<svg width="550" height="550" viewBox="0 0 550 550" fill="none" xmlns="http://www.w3.org/2000/svg">
<path d="M442.277 413.864H480.953V401.555H442.277V413.864Z" fill="#EBEBEB"/>
<path d="M131.032 273.614H169.708V261.305H131.032V273.614Z" fill="#EBEBEB"/>
<path d="M463.848 429.374C470.272 429.275 486.739 429 492.943 428.923H502.524L502.018 429.418V417.109L502.568 417.659C496.144 417.659 479.765 417.582 473.561 417.494L463.892 417.373L464.156 417.109L463.892 429.418L463.848 429.374ZM463.848 429.374L463.595 417.065V416.812H463.859C468.688 416.746 478.379 416.636 483.197 416.592L502.535 416.515H503.085V417.065V429.374V429.88H502.59H492.833C486.673 429.814 470.283 429.528 463.914 429.418L463.848 429.374Z" fill="#EBEBEB"/>
<path d="M369.82 173.492C376.244 173.382 392.711 173.107 398.915 173.041H408.496L407.99 173.536V161.227L408.54 161.777C402.116 161.777 385.737 161.7 379.533 161.612L369.864 161.491L370.128 161.227L369.864 173.536L369.82 173.492ZM369.82 173.492L369.6 161.183V160.93H369.864C374.693 160.864 384.384 160.754 389.202 160.71L408.54 160.633H409.09V161.183L409.035 173.492V173.998H408.54H398.783C392.623 173.921 376.233 173.646 369.864 173.536L369.82 173.492Z" fill="#EBEBEB"/>
<path d="M391.391 189.013C397.815 188.903 414.282 188.628 420.486 188.562H430.067L429.561 189.057V176.748L430.111 177.298C423.687 177.298 407.308 177.221 401.104 177.133L391.435 177.012L391.699 176.748L391.435 189.057L391.391 189.013ZM391.391 189.013L391.138 176.704V176.451H391.402C396.231 176.385 405.922 176.275 410.74 176.231L430.078 176.154H430.628V176.704V189.013V189.519H430.1H420.343C414.183 189.442 397.793 189.167 391.424 189.057L391.391 189.013Z" fill="#EBEBEB"/>
<path d="M412.874 173.503H451.55V161.194H412.874V173.503Z" fill="#EBEBEB"/>
<path d="M47.476 429.385H86.152V417.076H47.476V429.385Z" fill="#EBEBEB"/>
<path d="M69.047 61.7432L107.723 61.7432V49.4342L69.047 49.4342V61.7432Z" fill="#EBEBEB"/>
<path d="M47.476 77.2531C53.9 77.1431 70.367 76.8681 76.571 76.8021H86.152L85.646 77.2971V64.9881L86.196 65.5381C79.772 65.5381 63.393 65.4611 57.189 65.3731L47.52 65.2521L47.74 64.9001L47.476 77.2091V77.2531ZM47.476 77.2531L47.212 64.9001V64.6471H47.476C52.305 64.5811 61.985 64.4711 66.814 64.4271L86.152 64.3501H86.702V64.9001V77.2091V77.7151H86.207H76.45C70.29 77.6381 53.889 77.3631 47.531 77.2531H47.476Z" fill="#EBEBEB"/>
<path d="M442.277 61.732C448.701 61.622 465.168 61.358 471.372 61.281H480.953L480.447 61.776V49.467L480.997 50.017L461.659 49.94C456.841 49.94 447.139 49.797 442.321 49.731L442.585 49.467L442.321 61.776L442.277 61.732ZM442.277 61.732L442.013 49.423V49.17H442.277C447.106 49.104 456.797 48.994 461.615 48.95L480.953 48.873H481.503V49.423L481.448 61.732V62.238H480.953H471.196C465.036 62.161 448.646 61.886 442.277 61.776V61.732Z" fill="#EBEBEB"/>
<path d="M205.051 317.196H44.319V327.008H205.051V317.196Z" fill="#EBEBEB"/>
<path d="M190.718 327.008H58.652V354.079H190.718V327.008Z" fill="#EBEBEB"/>
<path d="M190.718 332.354L58.652 334.983V327.008H190.718V332.354Z" fill="#C7C7C7"/>
<path d="M170.819 348.964H78.551V332.134H170.819V348.964ZM79.651 347.864H169.719V333.234H79.651V347.864Z" fill="#DBDBDB"/>
<path d="M139.722 338.283H109.659V342.826H139.722V338.283Z" fill="#DBDBDB"/>
<path d="M57.585 509.795H53.207L65.934 354.09H77.088L57.585 509.795Z" fill="#EBEBEB"/>
<path d="M77.088 354.09L75.779 364.507H65.087L65.934 354.09H77.088Z" fill="#C7C7C7"/>
<path d="M191.785 509.795H196.163L183.436 354.09H172.282L191.785 509.795Z" fill="#EBEBEB"/>
<path d="M172.282 354.09L173.591 364.507H184.283L183.436 354.09H172.282Z" fill="#C7C7C7"/>
<path d="M75.141 184.305L74.998 179.905C74.9787 179.449 74.834 179.008 74.5797 178.63C74.3254 178.251 73.9715 177.95 73.557 177.76C73.26 177.628 72.974 177.485 72.688 177.331C72.402 177.177 72.127 177.012 71.852 176.847C71.4617 176.607 71.0124 176.479 70.554 176.479C70.0956 176.479 69.6463 176.607 69.256 176.847L65.483 179.19L58.212 167.464L61.974 165.121C62.3558 164.875 62.6612 164.528 62.8556 164.118C63.05 163.707 63.1256 163.251 63.074 162.8C63.0171 162.149 62.9987 161.495 63.019 160.842C63.0254 160.393 62.9089 159.95 62.6821 159.563C62.4552 159.175 62.1267 158.857 61.732 158.642L57.816 156.552L64.339 144.386L68.255 146.487C68.6587 146.697 69.1126 146.792 69.5668 146.761C70.0209 146.73 70.4576 146.574 70.829 146.311C71.368 145.937 71.929 145.596 72.501 145.277C72.9002 145.067 73.233 144.75 73.4622 144.361C73.6915 143.973 73.8081 143.528 73.799 143.077L73.667 138.677L87.45 138.248L87.593 142.648C87.6392 143.088 87.8036 143.508 88.0689 143.862C88.3343 144.217 88.6905 144.493 89.1 144.661L89.958 145.101L90.794 145.574C91.1805 145.814 91.6262 145.941 92.081 145.941C92.5358 145.941 92.9815 145.814 93.368 145.574L97.174 143.231L104.445 154.957L100.65 157.3C100.269 157.547 99.9645 157.894 99.7702 158.304C99.5759 158.714 99.4997 159.17 99.55 159.621C99.5883 160.269 99.5883 160.92 99.55 161.568C99.5436 162.017 99.6601 162.46 99.8869 162.847C100.114 163.235 100.442 163.554 100.837 163.768L104.753 165.869L98.23 178.035L94.336 176C93.9343 175.785 93.4803 175.686 93.0254 175.715C92.5705 175.744 92.1329 175.9 91.762 176.165C91.2296 176.539 90.6749 176.881 90.101 177.188C89.7046 177.402 89.3736 177.72 89.1431 178.108C88.9127 178.495 88.7913 178.937 88.792 179.388L88.935 183.788L75.141 184.305ZM70.51 175.329C71.1818 175.33 71.8403 175.517 72.413 175.868L73.205 176.308C73.48 176.462 73.744 176.594 74.019 176.726C74.6208 176.997 75.1346 177.431 75.5021 177.98C75.8696 178.528 76.076 179.168 76.098 179.828L76.208 183.128L87.802 182.765L87.692 179.465C87.6724 178.804 87.8383 178.151 88.1707 177.579C88.5031 177.008 88.9889 176.541 89.573 176.231C90.1117 175.938 90.6332 175.615 91.135 175.263C91.6711 174.881 92.3037 174.656 92.9609 174.615C93.6182 174.575 94.2737 174.719 94.853 175.032L97.801 176.605L103.301 166.386L100.364 164.802C99.7844 164.488 99.303 164.019 98.973 163.449C98.643 162.878 98.4772 162.227 98.494 161.568C98.5325 160.96 98.5325 160.35 98.494 159.742C98.43 159.085 98.5506 158.423 98.842 157.83C99.1335 157.237 99.5843 156.738 100.144 156.387L102.993 154.616L96.877 144.716L94.017 146.487C93.4565 146.833 92.811 147.016 92.1525 147.016C91.494 147.016 90.8485 146.833 90.288 146.487C90.035 146.322 89.771 146.179 89.507 146.036C89.243 145.893 88.968 145.75 88.693 145.629C88.0919 145.354 87.579 144.917 87.2119 144.367C86.8447 143.818 86.6377 143.177 86.614 142.516L86.504 139.216L74.8 139.557L74.899 142.857C74.9183 143.517 74.7536 144.168 74.4233 144.74C74.0931 145.311 73.6103 145.779 73.029 146.091C72.4882 146.386 71.9632 146.709 71.456 147.059C70.9194 147.44 70.2877 147.664 69.6313 147.706C68.9748 147.749 68.3194 147.609 67.738 147.301L64.79 145.717L59.29 155.947L62.227 157.52C62.8058 157.835 63.2865 158.304 63.6164 158.874C63.9463 159.445 64.1126 160.095 64.097 160.754C64.0769 161.371 64.0952 161.988 64.152 162.602C64.2031 163.251 64.0753 163.902 63.7825 164.484C63.4896 165.066 63.043 165.556 62.491 165.902L59.653 167.651L65.769 177.551L68.607 175.791C69.1832 175.456 69.8443 175.296 70.51 175.329ZM81.301 172.139C78.8921 172.144 76.5482 171.358 74.6293 169.901C72.7104 168.445 71.3226 166.399 70.679 164.078C70.0354 161.756 70.1716 159.288 71.0668 157.052C71.9619 154.815 73.5664 152.934 75.6339 151.698C77.7014 150.462 80.1176 149.938 82.5114 150.208C84.9051 150.478 87.1442 151.526 88.8845 153.192C90.6249 154.857 91.7705 157.048 92.1452 159.428C92.52 161.807 92.1032 164.244 90.959 166.364C90.0285 168.116 88.6369 169.579 86.9347 170.597C85.2324 171.615 83.2843 172.148 81.301 172.139ZM81.301 151.338C78.8987 151.337 76.5789 152.214 74.7783 153.804C72.9778 155.394 71.8208 157.588 71.5253 159.972C71.2298 162.356 71.8161 164.766 73.1739 166.748C74.5317 168.729 76.5672 170.146 78.8971 170.731C81.227 171.317 83.6905 171.03 85.8236 169.925C87.9567 168.82 89.6122 166.973 90.4783 164.733C91.3445 162.492 91.3615 160.012 90.5261 157.76C89.6908 155.507 88.0608 153.638 85.943 152.504C84.5242 151.747 82.9422 151.347 81.334 151.338H81.301Z" fill="#EBEBEB"/>
<path d="M456.324 218.647C456.8 218.353 457.349 218.197 457.908 218.197C458.468 218.197 459.016 218.353 459.492 218.647C459.767 218.812 460.031 218.966 460.306 219.109L461.153 219.538C461.66 219.769 462.092 220.136 462.403 220.599C462.714 221.061 462.89 221.6 462.913 222.156L463.034 226.05L475.728 225.654L475.607 221.76C475.595 221.201 475.737 220.649 476.019 220.166C476.3 219.683 476.71 219.286 477.202 219.021C477.754 218.719 478.29 218.388 478.808 218.031C479.264 217.708 479.8 217.518 480.357 217.481C480.914 217.444 481.471 217.562 481.965 217.822L485.386 219.659L491.392 208.472L487.96 206.635C487.472 206.367 487.067 205.969 486.789 205.486C486.512 205.003 486.373 204.453 486.387 203.896C486.387 203.258 486.387 202.631 486.332 202.004C486.275 201.448 486.376 200.886 486.623 200.385C486.87 199.883 487.253 199.46 487.729 199.166L491.029 197.109L484.33 186.318L481.03 188.375C480.556 188.669 480.009 188.825 479.452 188.825C478.894 188.825 478.347 188.669 477.873 188.375L477.059 187.913L476.223 187.495C475.713 187.265 475.277 186.897 474.964 186.432C474.651 185.968 474.474 185.426 474.452 184.866L474.342 180.972L461.648 181.368L461.769 185.251C461.784 185.809 461.643 186.361 461.364 186.844C461.084 187.328 460.676 187.724 460.185 187.99C459.626 188.29 459.086 188.624 458.568 188.991C458.111 189.316 457.573 189.508 457.014 189.545C456.454 189.582 455.896 189.462 455.4 189.2L451.979 187.363L445.973 198.561L449.394 200.398C449.886 200.663 450.295 201.059 450.574 201.543C450.854 202.027 450.994 202.579 450.978 203.137C450.94 203.767 450.94 204.399 450.978 205.029C451.032 205.585 450.93 206.146 450.684 206.647C450.437 207.148 450.055 207.571 449.581 207.867L446.281 209.924L452.98 220.704L456.324 218.647ZM459.514 198.605C460.486 196.794 461.972 195.311 463.787 194.345C465.601 193.379 467.66 192.972 469.706 193.175C471.751 193.379 473.69 194.185 475.277 195.491C476.865 196.796 478.029 198.543 478.624 200.511C479.219 202.478 479.217 204.578 478.619 206.544C478.021 208.511 476.853 210.256 475.264 211.559C473.674 212.862 471.734 213.664 469.688 213.865C467.643 214.065 465.583 213.655 463.771 212.685C461.34 211.382 459.527 209.166 458.728 206.526C457.93 203.886 458.213 201.037 459.514 198.605Z" fill="#EBEBEB"/>
<path d="M87.714 97.9C87.714 104.751 89.7455 111.448 93.5517 117.144C97.3579 122.841 102.768 127.281 109.097 129.902C115.427 132.524 122.391 133.21 129.111 131.873C135.83 130.537 142.002 127.238 146.846 122.393C151.691 117.549 154.99 111.377 156.326 104.658C157.663 97.9384 156.977 90.9737 154.355 84.6442C151.734 78.3148 147.294 72.9049 141.597 69.0987C135.901 65.2925 129.204 63.261 122.353 63.261C113.166 63.261 104.356 66.9104 97.8595 73.4065C91.3635 79.9026 87.714 88.7132 87.714 97.9ZM106.172 97.9C106.17 94.6992 107.117 91.5697 108.894 88.9073C110.67 86.2449 113.197 84.1692 116.153 82.9429C119.11 81.7165 122.363 81.3945 125.503 82.0176C128.643 82.6407 131.527 84.1809 133.791 86.4434C136.055 88.7059 137.597 91.5891 138.222 94.7282C138.848 97.8673 138.528 101.121 137.303 104.079C136.079 107.036 134.005 109.564 131.344 111.342C128.683 113.121 125.554 114.07 122.353 114.07C118.063 114.07 113.949 112.367 110.915 109.335C107.881 106.302 106.175 102.19 106.172 97.9Z" fill="#EBEBEB"/>
<path d="M115.687 64.6689H129.008L128.282 55.2419H116.424L115.687 64.6689Z" fill="#EBEBEB"/>
<path d="M141.053 69.1571L150.469 78.5841L156.618 71.3901L148.236 63.0081L141.053 69.1571Z" fill="#EBEBEB"/>
<path d="M155.804 90.2661V103.587L165.231 102.85V91.0031L155.804 90.2661Z" fill="#EBEBEB"/>
<path d="M151.316 115.621L141.9 125.037L149.083 131.186L157.465 122.815L151.316 115.621Z" fill="#EBEBEB"/>
<path d="M130.218 130.383H116.886L117.623 139.81H129.47L130.218 130.383Z" fill="#EBEBEB"/>
<path d="M104.852 125.884L95.436 116.468L89.287 123.662L97.669 132.033L104.852 125.884Z" fill="#EBEBEB"/>
<path d="M90.101 104.786V91.4651L80.663 92.2021V104.049L90.101 104.786Z" fill="#EBEBEB"/>
<path d="M94.589 79.431L104.005 70.004L96.822 63.855L88.44 72.237L94.589 79.431Z" fill="#EBEBEB"/>
<path d="M450.285 300.806H441.485V509.795H411.939V300.806H403.161L426.723 274.934L450.285 300.806Z" fill="#EBEBEB"/>
<path d="M504.405 258.841H495.594V509.795H466.059V258.841H457.27L480.843 232.958L504.405 258.841Z" fill="#EBEBEB"/>
<path d="M400.378 346.962H391.578V509.795H362.043V346.962H353.254L376.816 321.079L400.378 346.962Z" fill="#EBEBEB"/>
<path d="M45.595 509.795C192.566 509.124 357.434 509.113 504.405 509.795C357.434 510.466 192.566 510.466 45.595 509.795Z" fill="#263238"/>
<path d="M367.961 88.6599H182.061C179.565 88.6757 177.096 89.1836 174.797 90.1545C172.497 91.1253 170.412 92.5401 168.659 94.3179C166.907 96.0957 165.523 98.2015 164.585 100.515C163.648 102.828 163.176 105.304 163.196 107.8V490.6C163.152 495.636 165.11 500.484 168.639 504.077C172.169 507.671 176.981 509.715 182.017 509.762H367.917C370.416 509.745 372.886 509.235 375.188 508.263C377.489 507.29 379.577 505.874 381.331 504.094C383.085 502.315 384.471 500.207 385.41 497.892C386.349 495.576 386.823 493.098 386.804 490.6V107.8C386.839 102.764 384.875 97.9205 381.342 94.332C377.809 90.7435 372.997 88.7035 367.961 88.6599ZM375.034 478.797C375.034 488.873 367.488 497.024 358.182 497.024H191.829C182.49 497.024 174.955 488.873 174.955 478.797V122.331C174.955 101.805 182.49 100.804 191.829 100.804H225.148C227.084 100.804 228.668 103.004 228.668 105.732V106.909C228.668 113.3 232.166 113.322 236.467 113.322H313.467C317.867 113.322 321.266 113.322 321.266 106.909V105.732C321.266 103.004 322.828 100.804 324.808 100.804H358.127C367.433 100.804 374.979 103.532 374.979 122.331L375.034 478.797Z" fill="#263238"/>
<path d="M285.505 105.336H264.484C264.14 105.336 263.81 105.199 263.566 104.956C263.323 104.712 263.186 104.382 263.186 104.038C263.186 103.694 263.323 103.364 263.566 103.12C263.81 102.877 264.14 102.74 264.484 102.74H285.505C285.849 102.74 286.179 102.877 286.423 103.12C286.666 103.364 286.803 103.694 286.803 104.038C286.803 104.382 286.666 104.712 286.423 104.956C286.179 105.199 285.849 105.336 285.505 105.336Z" fill="white"/>
<path d="M375.1 122.331V478.797C375.1 488.873 367.554 497.024 358.248 497.024H191.829C182.501 497.024 174.955 488.873 174.955 478.797V122.331C174.955 101.805 182.501 100.804 191.829 100.804H225.148C227.084 100.804 228.668 103.004 228.668 105.732V106.909C228.668 113.3 232.166 113.322 236.467 113.322H313.5C317.834 113.322 321.299 113.322 321.299 106.909V105.732C321.299 103.004 322.861 100.804 324.83 100.804H358.16C367.499 100.804 375.1 103.532 375.1 122.331Z" fill="white"/>
<path d="M219.395 108.812L219.076 109.131L218.889 109.307C218.065 108.487 216.949 108.027 215.787 108.027C214.625 108.027 213.509 108.487 212.685 109.307L212.509 109.12L212.19 108.801L212.597 108.438C212.892 108.209 213.209 108.01 213.543 107.844C213.938 107.644 214.361 107.503 214.797 107.426C214.995 107.426 215.204 107.426 215.413 107.338H215.963H216.392C216.768 107.39 217.136 107.482 217.492 107.613C217.758 107.714 218.015 107.835 218.262 107.976C218.523 108.125 218.77 108.298 218.999 108.493L219.34 108.801L219.395 108.812Z" fill="#C7C7C7"/>
<path d="M213.708 110.319L213.191 109.813C213.881 109.128 214.814 108.743 215.787 108.743C216.76 108.743 217.693 109.128 218.383 109.813L217.866 110.319C217.314 109.769 216.566 109.461 215.787 109.461C215.008 109.461 214.26 109.769 213.708 110.319Z" fill="#C7C7C7"/>
<path d="M217.36 110.836L216.854 111.342C216.716 111.199 216.55 111.085 216.366 111.008C216.183 110.93 215.986 110.89 215.787 110.89C215.588 110.89 215.391 110.93 215.208 111.008C215.024 111.085 214.858 111.199 214.72 111.342C214.555 111.166 214.379 111.001 214.214 110.836C214.419 110.626 214.664 110.46 214.934 110.346C215.204 110.233 215.494 110.174 215.787 110.174C216.08 110.174 216.37 110.233 216.64 110.346C216.91 110.46 217.155 110.626 217.36 110.836Z" fill="#C7C7C7"/>
<path d="M216.249 111.793C216.249 111.915 216.2 112.033 216.114 112.12C216.027 112.206 215.91 112.255 215.787 112.255C215.727 112.255 215.667 112.243 215.612 112.22C215.556 112.196 215.506 112.162 215.464 112.119C215.422 112.076 215.389 112.025 215.367 111.969C215.345 111.913 215.335 111.853 215.336 111.793C215.336 111.673 215.384 111.559 215.468 111.474C215.553 111.389 215.667 111.342 215.787 111.342C215.847 111.34 215.907 111.351 215.963 111.373C216.019 111.395 216.07 111.428 216.113 111.47C216.156 111.512 216.19 111.562 216.214 111.618C216.237 111.673 216.249 111.733 216.249 111.793Z" fill="#C7C7C7"/>
<path d="M188.001 109.78C188.001 109.516 188.079 109.258 188.226 109.039C188.373 108.82 188.581 108.65 188.825 108.549C189.069 108.449 189.337 108.423 189.596 108.475C189.854 108.528 190.091 108.655 190.277 108.843C190.463 109.03 190.589 109.268 190.639 109.527C190.689 109.786 190.661 110.054 190.558 110.297C190.456 110.54 190.284 110.747 190.063 110.892C189.843 111.037 189.585 111.113 189.321 111.111C189.147 111.111 188.974 111.076 188.813 111.009C188.652 110.942 188.506 110.844 188.384 110.72C188.261 110.597 188.164 110.45 188.098 110.288C188.033 110.127 188 109.954 188.001 109.78Z" fill="#C7C7C7"/>
<path d="M192.17 109.78C192.17 109.517 192.248 109.259 192.394 109.041C192.541 108.822 192.748 108.651 192.992 108.55C193.235 108.45 193.502 108.423 193.761 108.475C194.019 108.526 194.256 108.653 194.442 108.839C194.628 109.025 194.755 109.262 194.806 109.52C194.858 109.778 194.831 110.046 194.731 110.289C194.63 110.533 194.459 110.74 194.24 110.887C194.022 111.033 193.764 111.111 193.501 111.111C193.326 111.111 193.153 111.077 192.992 111.01C192.83 110.943 192.683 110.845 192.56 110.721C192.436 110.598 192.338 110.451 192.271 110.289C192.204 110.128 192.17 109.955 192.17 109.78Z" fill="#C7C7C7"/>
<path d="M196.35 109.78C196.35 109.517 196.428 109.259 196.574 109.041C196.721 108.822 196.928 108.651 197.172 108.55C197.415 108.45 197.682 108.423 197.941 108.475C198.199 108.526 198.436 108.653 198.622 108.839C198.808 109.025 198.935 109.262 198.986 109.52C199.038 109.778 199.011 110.046 198.911 110.289C198.81 110.533 198.639 110.74 198.42 110.887C198.202 111.033 197.944 111.111 197.681 111.111C197.328 111.111 196.989 110.971 196.74 110.721C196.49 110.472 196.35 110.133 196.35 109.78Z" fill="#C7C7C7"/>
<path d="M200.53 109.78C200.53 109.516 200.608 109.258 200.755 109.039C200.902 108.82 201.11 108.65 201.354 108.549C201.598 108.449 201.866 108.423 202.125 108.475C202.383 108.528 202.62 108.655 202.806 108.843C202.992 109.03 203.118 109.268 203.168 109.527C203.218 109.786 203.19 110.054 203.088 110.297C202.985 110.54 202.813 110.747 202.592 110.892C202.372 111.037 202.114 111.113 201.85 111.111C201.676 111.111 201.503 111.076 201.342 111.009C201.181 110.942 201.035 110.844 200.913 110.72C200.79 110.597 200.693 110.45 200.627 110.288C200.562 110.127 200.529 109.954 200.53 109.78Z" fill="#C7C7C7"/>
<path d="M204.71 109.78C204.71 109.516 204.788 109.258 204.935 109.039C205.082 108.82 205.29 108.65 205.534 108.549C205.778 108.449 206.046 108.423 206.305 108.475C206.563 108.528 206.8 108.655 206.986 108.843C207.172 109.03 207.298 109.268 207.348 109.527C207.398 109.786 207.37 110.054 207.268 110.297C207.165 110.54 206.993 110.747 206.772 110.892C206.552 111.037 206.294 111.113 206.03 111.111C205.856 111.111 205.683 111.076 205.522 111.009C205.361 110.942 205.215 110.844 205.093 110.72C204.97 110.597 204.873 110.45 204.807 110.288C204.742 110.127 204.709 109.954 204.71 109.78Z" fill="#C7C7C7"/>
<path d="M360.041 112.684H349.228V107.668H360.041V112.684ZM349.789 112.123H359.469V108.229H349.8L349.789 112.123Z" fill="#C7C7C7"/>
<path d="M357.093 108.526H350.13V111.826H357.093V108.526Z" fill="#C7C7C7"/>
<path d="M360.998 108.834H360.041V111.507H360.998V108.834Z" fill="#C7C7C7"/>
<path d="M200.442 477.763H199.463V482.251H197.637V479.963H194.403V482.251H192.566V477.763H191.598L196.02 473.198L200.442 477.763Z" fill="#EBEBEB"/>
<path d="M358.82 473.198H348.161V474.716H358.82V473.198Z" fill="#EBEBEB"/>
<path d="M358.82 476.96H348.161V478.489H358.82V476.96Z" fill="#EBEBEB"/>
<path d="M358.82 480.733H348.161V482.262H358.82V480.733Z" fill="#EBEBEB"/>
<path d="M278.344 477.884L275.308 481.118L272.283 477.884L272.811 477.378L275.308 480.04L277.805 477.378L278.344 477.884Z" fill="#EBEBEB"/>
<path d="M275.308 484.462C274.22 484.462 273.157 484.139 272.252 483.535C271.348 482.931 270.643 482.072 270.227 481.067C269.81 480.062 269.701 478.956 269.914 477.889C270.126 476.822 270.65 475.842 271.419 475.073C272.188 474.304 273.168 473.78 274.235 473.568C275.302 473.355 276.408 473.464 277.413 473.881C278.418 474.297 279.277 475.002 279.881 475.906C280.485 476.811 280.808 477.874 280.808 478.962C280.808 480.421 280.229 481.82 279.197 482.851C278.166 483.882 276.767 484.462 275.308 484.462ZM275.308 474.177C274.361 474.175 273.434 474.454 272.645 474.979C271.857 475.504 271.242 476.251 270.878 477.126C270.515 478 270.419 478.963 270.603 479.893C270.788 480.822 271.244 481.676 271.913 482.345C272.583 483.015 273.437 483.471 274.366 483.655C275.295 483.84 276.258 483.744 277.133 483.381C278.008 483.017 278.755 482.402 279.28 481.613C279.805 480.825 280.084 479.898 280.082 478.951C280.082 477.685 279.579 476.47 278.684 475.575C277.788 474.68 276.574 474.177 275.308 474.177Z" fill="#EBEBEB"/>
<path d="M288.75 269.104C291.409 269.091 294.004 268.289 296.208 266.801C298.411 265.313 300.124 263.204 301.129 260.742C302.134 258.281 302.386 255.576 301.854 252.971C301.321 250.366 300.028 247.977 298.138 246.107C296.248 244.237 293.845 242.969 291.235 242.464C288.624 241.96 285.922 242.241 283.471 243.272C281.02 244.303 278.93 246.038 277.465 248.257C276.001 250.476 275.227 253.08 275.242 255.739C275.265 259.301 276.7 262.709 279.233 265.214C281.765 267.72 285.188 269.119 288.75 269.104ZM276.881 255.739C276.866 253.404 277.544 251.116 278.829 249.167C280.114 247.217 281.949 245.692 284.101 244.785C286.253 243.878 288.626 243.63 290.919 244.073C293.212 244.515 295.322 245.627 296.983 247.27C298.643 248.912 299.78 251.009 300.247 253.297C300.715 255.585 300.494 257.961 299.611 260.123C298.729 262.285 297.225 264.137 295.289 265.444C293.354 266.751 291.074 267.454 288.739 267.465C285.612 267.48 282.608 266.253 280.385 264.055C278.161 261.856 276.901 258.866 276.881 255.739ZM288.75 269.104C291.409 269.091 294.004 268.289 296.208 266.801C298.411 265.313 300.124 263.204 301.129 260.742C302.134 258.281 302.386 255.576 301.854 252.971C301.321 250.366 300.028 247.977 298.138 246.107C296.248 244.237 293.845 242.969 291.235 242.464C288.624 241.96 285.922 242.241 283.471 243.272C281.02 244.303 278.93 246.038 277.465 248.257C276.001 250.476 275.227 253.08 275.242 255.739C275.265 259.301 276.7 262.709 279.233 265.214C281.765 267.72 285.188 269.119 288.75 269.104ZM276.881 255.739C276.866 253.404 277.544 251.116 278.829 249.167C280.114 247.217 281.949 245.692 284.101 244.785C286.253 243.878 288.626 243.63 290.919 244.073C293.212 244.515 295.322 245.627 296.983 247.27C298.643 248.912 299.78 251.009 300.247 253.297C300.715 255.585 300.494 257.961 299.611 260.123C298.729 262.285 297.225 264.137 295.289 265.444C293.354 266.751 291.074 267.454 288.739 267.465C285.612 267.48 282.608 266.253 280.385 264.055C278.161 261.856 276.901 258.866 276.881 255.739ZM288.75 269.104C291.409 269.091 294.004 268.289 296.208 266.801C298.411 265.313 300.124 263.204 301.129 260.742C302.134 258.281 302.386 255.576 301.854 252.971C301.321 250.366 300.028 247.977 298.138 246.107C296.248 244.237 293.845 242.969 291.235 242.464C288.624 241.96 285.922 242.241 283.471 243.272C281.02 244.303 278.93 246.038 277.465 248.257C276.001 250.476 275.227 253.08 275.242 255.739C275.265 259.301 276.7 262.709 279.233 265.214C281.765 267.72 285.188 269.119 288.75 269.104ZM276.881 255.739C276.866 253.404 277.544 251.116 278.829 249.167C280.114 247.217 281.949 245.692 284.101 244.785C286.253 243.878 288.626 243.63 290.919 244.073C293.212 244.515 295.322 245.627 296.983 247.27C298.643 248.912 299.78 251.009 300.247 253.297C300.715 255.585 300.494 257.961 299.611 260.123C298.729 262.285 297.225 264.137 295.289 265.444C293.354 266.751 291.074 267.454 288.739 267.465C285.612 267.48 282.608 266.253 280.385 264.055C278.161 261.856 276.901 258.866 276.881 255.739ZM288.838 283.987C294.44 283.956 299.908 282.265 304.549 279.127C309.19 275.989 312.797 271.545 314.912 266.357C317.027 261.169 317.557 255.47 316.433 249.981C315.309 244.493 312.583 239.46 308.599 235.521C304.615 231.582 299.553 228.913 294.052 227.851C288.551 226.789 282.858 227.382 277.694 229.556C272.531 231.73 268.128 235.386 265.042 240.062C261.956 244.738 260.326 250.225 260.359 255.827C260.406 263.336 263.431 270.52 268.771 275.8C274.111 281.081 281.328 284.025 288.838 283.987ZM273.152 255.761C273.128 252.69 274.016 249.681 275.703 247.115C277.39 244.548 279.8 242.54 282.629 241.344C285.458 240.148 288.578 239.819 291.594 240.397C294.61 240.975 297.387 242.435 299.573 244.592C301.76 246.748 303.257 249.505 303.875 252.514C304.494 255.522 304.206 258.646 303.049 261.491C301.891 264.335 299.916 266.772 297.372 268.494C294.829 270.215 291.832 271.143 288.761 271.161C284.653 271.176 280.706 269.565 277.781 266.679C274.857 263.794 273.193 259.869 273.152 255.761ZM275.242 255.761C275.255 258.42 276.057 261.016 277.546 263.22C279.035 265.424 281.144 267.136 283.606 268.141C286.069 269.145 288.774 269.397 291.379 268.864C293.985 268.33 296.373 267.036 298.243 265.145C300.113 263.254 301.38 260.85 301.883 258.239C302.386 255.627 302.104 252.925 301.071 250.475C300.038 248.024 298.301 245.935 296.081 244.471C293.86 243.008 291.255 242.236 288.596 242.253C285.039 242.276 281.635 243.709 279.132 246.237C276.629 248.764 275.23 252.182 275.242 255.739V255.761ZM276.881 255.761C276.866 253.426 277.544 251.138 278.829 249.189C280.114 247.239 281.949 245.714 284.101 244.807C286.253 243.9 288.626 243.652 290.919 244.095C293.212 244.537 295.322 245.649 296.983 247.292C298.643 248.934 299.78 251.031 300.247 253.319C300.715 255.607 300.494 257.983 299.611 260.145C298.729 262.307 297.225 264.159 295.289 265.466C293.354 266.773 291.074 267.476 288.739 267.487C287.189 267.494 285.653 267.196 284.218 266.61C282.783 266.023 281.478 265.16 280.377 264.069C279.276 262.978 278.4 261.681 277.8 260.252C277.201 258.822 276.888 257.289 276.881 255.739V255.761ZM288.75 269.126C291.409 269.113 294.004 268.311 296.208 266.823C298.411 265.335 300.124 263.226 301.129 260.764C302.134 258.303 302.386 255.598 301.854 252.993C301.321 250.388 300.028 247.999 298.138 246.129C296.248 244.259 293.845 242.991 291.235 242.486C288.624 241.982 285.922 242.263 283.471 243.294C281.02 244.325 278.93 246.06 277.465 248.279C276.001 250.498 275.227 253.102 275.242 255.761C275.271 259.319 276.709 262.721 279.24 265.222C281.772 267.723 285.191 269.119 288.75 269.104V269.126ZM276.881 255.761C276.866 253.426 277.544 251.138 278.829 249.189C280.114 247.239 281.949 245.714 284.101 244.807C286.253 243.9 288.626 243.652 290.919 244.095C293.212 244.537 295.322 245.649 296.983 247.292C298.643 248.934 299.78 251.031 300.247 253.319C300.715 255.607 300.494 257.983 299.611 260.145C298.729 262.307 297.225 264.159 295.289 265.466C293.354 266.773 291.074 267.476 288.739 267.487C287.189 267.494 285.653 267.196 284.218 266.61C282.783 266.023 281.478 265.16 280.377 264.069C279.276 262.978 278.4 261.681 277.8 260.252C277.201 258.822 276.888 257.289 276.881 255.739V255.761ZM288.75 269.126C291.409 269.113 294.004 268.311 296.208 266.823C298.411 265.335 300.124 263.226 301.129 260.764C302.134 258.303 302.386 255.598 301.854 252.993C301.321 250.388 300.028 247.999 298.138 246.129C296.248 244.259 293.845 242.991 291.235 242.486C288.624 241.982 285.922 242.263 283.471 243.294C281.02 244.325 278.93 246.06 277.465 248.279C276.001 250.498 275.227 253.102 275.242 255.761C275.271 259.319 276.709 262.721 279.24 265.222C281.772 267.723 285.191 269.119 288.75 269.104V269.126ZM276.881 255.761C276.866 253.426 277.544 251.138 278.829 249.189C280.114 247.239 281.949 245.714 284.101 244.807C286.253 243.9 288.626 243.652 290.919 244.095C293.212 244.537 295.322 245.649 296.983 247.292C298.643 248.934 299.78 251.031 300.247 253.319C300.715 255.607 300.494 257.983 299.611 260.145C298.729 262.307 297.225 264.159 295.289 265.466C293.354 266.773 291.074 267.476 288.739 267.487C287.189 267.494 285.653 267.196 284.218 266.61C282.783 266.023 281.478 265.16 280.377 264.069C279.276 262.978 278.4 261.681 277.8 260.252C277.201 258.822 276.888 257.289 276.881 255.739V255.761Z" fill="#407BFF"/>
<path d="M283.074 228.547L293.964 228.481L293.315 220.781L283.624 220.836L283.074 228.547Z" fill="#407BFF"/>
<path d="M303.82 232.1L311.564 239.745L316.558 233.838L309.672 227.04L303.82 232.1Z" fill="#407BFF"/>
<path d="M315.986 249.271L316.052 260.161L323.752 259.523L323.697 249.832L315.986 249.271Z" fill="#407BFF"/>
<path d="M312.444 270.028L304.788 277.772L310.695 282.766L317.504 275.869L312.444 270.028Z" fill="#407BFF"/>
<path d="M295.262 282.194L284.372 282.249L285.021 289.96L294.701 289.905L295.262 282.194Z" fill="#407BFF"/>
<path d="M274.505 278.641L266.761 270.985L261.778 276.892L268.664 283.701L274.505 278.641Z" fill="#407BFF"/>
<path d="M262.35 261.459L262.284 250.569L254.573 251.218L254.628 260.909L262.35 261.459Z" fill="#407BFF"/>
<path d="M265.892 240.713L273.548 232.969L267.641 227.975L260.832 234.861L265.892 240.713Z" fill="#407BFF"/>
<g opacity="0.5">
<path d="M254.595 225.61C253.833 222.297 252.105 219.284 249.631 216.952C247.156 214.621 244.046 213.075 240.693 212.511C237.341 211.947 233.896 212.389 230.795 213.782C227.693 215.175 225.075 217.457 223.27 220.338C221.465 223.219 220.555 226.571 220.654 229.969C220.754 233.367 221.859 236.66 223.829 239.43C225.8 242.201 228.547 244.325 231.725 245.534C234.902 246.743 238.367 246.983 241.681 246.224C243.883 245.719 245.964 244.785 247.805 243.476C249.646 242.167 251.211 240.508 252.41 238.593C253.609 236.679 254.419 234.547 254.794 232.319C255.169 230.091 255.102 227.811 254.595 225.61ZM239.943 238.7C238.126 239.118 236.225 238.988 234.482 238.326C232.739 237.665 231.231 236.501 230.149 234.982C229.068 233.463 228.461 231.657 228.405 229.793C228.35 227.929 228.849 226.091 229.838 224.511C230.828 222.93 232.264 221.679 233.964 220.914C235.665 220.15 237.555 219.907 239.393 220.217C241.232 220.527 242.938 221.375 244.295 222.654C245.652 223.933 246.599 225.586 247.016 227.403C247.572 229.839 247.14 232.396 245.815 234.513C244.489 236.631 242.377 238.137 239.943 238.7Z" fill="#407BFF"/>
<path d="M230.923 214.126L237.369 212.652L235.972 208.164L230.241 209.484L230.923 214.126Z" fill="#407BFF"/>
<path d="M243.694 213.477L249.293 216.997L251.471 212.828L246.488 209.715L243.694 213.477Z" fill="#407BFF"/>
<path d="M253.176 222.057L254.661 228.492L259.138 227.095L257.818 221.364L253.176 222.057Z" fill="#407BFF"/>
<path d="M253.825 234.817L250.316 240.427L254.474 242.594L257.598 237.611L253.825 234.817Z" fill="#407BFF"/>
<path d="M245.256 244.299L238.81 245.784L240.207 250.261L245.949 248.941L245.256 244.299Z" fill="#407BFF"/>
<path d="M232.485 244.948L226.886 241.439L224.708 245.597L229.691 248.721L232.485 244.948Z" fill="#407BFF"/>
<path d="M223.003 236.379L221.518 229.933L217.041 231.341L218.361 237.072L223.003 236.379Z" fill="#407BFF"/>
<path d="M222.354 223.608L225.863 218.009L221.705 215.831L218.581 220.814L222.354 223.608Z" fill="#407BFF"/>
</g>
<g opacity="0.5">
<path d="M329.274 209C329.017 206.092 327.903 203.325 326.074 201.05C324.245 198.775 321.782 197.093 318.997 196.217C316.212 195.342 313.229 195.312 310.427 196.131C307.625 196.95 305.129 198.582 303.254 200.82C301.379 203.058 300.21 205.801 299.894 208.703C299.578 211.606 300.13 214.537 301.48 217.125C302.83 219.714 304.917 221.844 307.477 223.247C310.038 224.649 312.957 225.261 315.865 225.005C317.797 224.836 319.677 224.288 321.397 223.392C323.117 222.496 324.643 221.27 325.888 219.783C327.134 218.296 328.074 216.579 328.655 214.729C329.236 212.878 329.446 210.932 329.274 209ZM315.282 218.361C313.688 218.502 312.088 218.168 310.684 217.4C309.279 216.632 308.134 215.466 307.393 214.047C306.651 212.629 306.347 211.023 306.518 209.432C306.689 207.841 307.327 206.336 308.353 205.107C309.379 203.879 310.746 202.982 312.281 202.53C313.816 202.078 315.451 202.091 316.978 202.568C318.506 203.044 319.858 203.963 320.864 205.208C321.87 206.452 322.485 207.967 322.63 209.561C322.727 210.622 322.613 211.692 322.296 212.709C321.979 213.726 321.465 214.671 320.783 215.49C320.1 216.308 319.263 216.984 318.319 217.478C317.375 217.973 316.343 218.277 315.282 218.372V218.361Z" fill="#407BFF"/>
<path d="M310.497 196.46L316.151 195.965L315.491 191.994L310.453 192.434L310.497 196.46Z" fill="#407BFF"/>
<path d="M321.431 197.417L325.776 201.058L328.119 197.78L324.247 194.535L321.431 197.417Z" fill="#407BFF"/>
<path d="M328.482 205.821L328.988 211.475L332.959 210.815L332.519 205.777L328.482 205.821Z" fill="#407BFF"/>
<path d="M327.525 216.755L323.884 221.1L327.162 223.443L330.407 219.571L327.525 216.755Z" fill="#407BFF"/>
<path d="M319.121 223.806L313.467 224.312L314.138 228.283L319.165 227.843L319.121 223.806Z" fill="#407BFF"/>
<path d="M308.198 222.849L303.842 219.208L301.499 222.486L305.371 225.731L308.198 222.849Z" fill="#407BFF"/>
<path d="M301.136 214.445L300.641 208.791L296.67 209.462L297.11 214.489L301.136 214.445Z" fill="#407BFF"/>
<path d="M302.093 203.522L305.734 199.166L302.456 196.823L299.211 200.695L302.093 203.522Z" fill="#407BFF"/>
</g>
<path d="M332.486 337.348H217.514V327.019H332.486V337.348ZM218.086 336.798H331.936V327.569H218.064L218.086 336.798Z" fill="#407BFF"/>
<path d="M223.256 329.153H219.637V335.214H223.256V329.153Z" fill="#407BFF"/>
<path d="M228.261 329.153H224.642V335.214H228.261V329.153Z" fill="#407BFF"/>
<path d="M233.266 329.153H229.647V335.214H233.266V329.153Z" fill="#407BFF"/>
<path d="M238.26 329.153H234.641V335.214H238.26V329.153Z" fill="#407BFF"/>
<path d="M243.265 329.153H239.646V335.214H243.265V329.153Z" fill="#407BFF"/>
<path d="M248.27 329.153H244.651V335.214H248.27V329.153Z" fill="#407BFF"/>
<path d="M253.264 329.153H249.645V335.214H253.264V329.153Z" fill="#407BFF"/>
<path d="M258.269 329.153H254.65V335.214H258.269V329.153Z" fill="#407BFF"/>
<path d="M263.274 329.153H259.655V335.214H263.274V329.153Z" fill="#407BFF"/>
<path d="M268.279 329.153H264.66V335.214H268.279V329.153Z" fill="#407BFF"/>
<path d="M273.273 329.153H269.654V335.214H273.273V329.153Z" fill="#407BFF"/>
<path d="M278.278 329.153H274.659V335.214H278.278V329.153Z" fill="#407BFF"/>
<path d="M254.419 316.668C253.578 316.668 252.771 316.334 252.175 315.741C251.579 315.147 251.243 314.341 251.24 313.5V309.584C251.239 309.504 251.253 309.425 251.283 309.351C251.313 309.277 251.357 309.209 251.414 309.153C251.47 309.096 251.538 309.052 251.612 309.022C251.686 308.992 251.765 308.977 251.845 308.979C252.006 308.979 252.162 309.042 252.277 309.155C252.392 309.269 252.458 309.422 252.461 309.584V313.5C252.461 314.019 252.667 314.517 253.035 314.884C253.402 315.252 253.9 315.458 254.419 315.458C254.938 315.458 255.436 315.252 255.804 314.884C256.171 314.517 256.377 314.019 256.377 313.5V309.584C256.377 309.503 256.393 309.424 256.424 309.35C256.455 309.276 256.501 309.208 256.558 309.152C256.615 309.096 256.683 309.051 256.758 309.022C256.833 308.992 256.913 308.977 256.993 308.979C257.073 308.977 257.152 308.992 257.226 309.022C257.3 309.052 257.368 309.096 257.424 309.153C257.481 309.209 257.525 309.277 257.555 309.351C257.585 309.425 257.599 309.504 257.598 309.584V313.5C257.595 314.341 257.259 315.147 256.663 315.741C256.067 316.334 255.26 316.668 254.419 316.668Z" fill="#263238"/>
<path d="M262.757 313.676H261.404V316.063C261.384 316.211 261.311 316.346 261.199 316.445C261.087 316.543 260.943 316.597 260.793 316.597C260.644 316.597 260.5 316.543 260.388 316.445C260.276 316.346 260.203 316.211 260.183 316.063V309.573C260.183 309.494 260.199 309.415 260.229 309.341C260.259 309.268 260.304 309.201 260.36 309.145C260.416 309.089 260.483 309.044 260.556 309.014C260.63 308.984 260.709 308.968 260.788 308.968H262.757C263.066 308.968 263.372 309.029 263.658 309.147C263.943 309.266 264.203 309.439 264.422 309.657C264.64 309.876 264.814 310.136 264.932 310.421C265.05 310.707 265.111 311.013 265.111 311.322C265.111 311.631 265.05 311.937 264.932 312.223C264.814 312.508 264.64 312.768 264.422 312.987C264.203 313.205 263.943 313.379 263.658 313.497C263.372 313.615 263.066 313.676 262.757 313.676ZM261.404 312.455H262.757C263.057 312.455 263.346 312.336 263.558 312.123C263.771 311.911 263.89 311.622 263.89 311.322C263.89 311.022 263.771 310.733 263.558 310.521C263.346 310.308 263.057 310.189 262.757 310.189H261.404V312.455Z" fill="#263238"/>
<path d="M266.596 316.063V309.573C266.594 309.493 266.609 309.414 266.639 309.34C266.669 309.266 266.713 309.198 266.77 309.142C266.826 309.085 266.894 309.041 266.968 309.011C267.042 308.981 267.121 308.966 267.201 308.968H268.499C269.52 308.968 270.499 309.373 271.221 310.096C271.943 310.818 272.349 311.797 272.349 312.818C272.349 313.839 271.943 314.818 271.221 315.54C270.499 316.262 269.52 316.668 268.499 316.668H267.201C267.041 316.668 266.887 316.604 266.773 316.491C266.66 316.377 266.596 316.223 266.596 316.063ZM267.817 315.447H268.499C269.196 315.447 269.865 315.17 270.358 314.677C270.851 314.184 271.128 313.515 271.128 312.818C271.128 312.121 270.851 311.452 270.358 310.959C269.865 310.466 269.196 310.189 268.499 310.189H267.817V315.447Z" fill="#263238"/>
<path d="M277.717 314.853H275L274.461 316.283C274.415 316.397 274.336 316.494 274.234 316.563C274.132 316.632 274.012 316.668 273.889 316.668C273.82 316.684 273.749 316.684 273.68 316.668C273.604 316.64 273.535 316.597 273.475 316.542C273.416 316.487 273.368 316.421 273.334 316.347C273.301 316.274 273.282 316.194 273.279 316.113C273.276 316.033 273.289 315.952 273.317 315.876L275.748 309.408C275.795 309.292 275.876 309.194 275.98 309.125C276.084 309.056 276.206 309.021 276.331 309.023C276.456 309.019 276.579 309.054 276.684 309.123C276.788 309.192 276.869 309.291 276.914 309.408L279.345 315.876C279.373 315.952 279.386 316.033 279.383 316.113C279.38 316.194 279.361 316.274 279.328 316.347C279.294 316.421 279.246 316.487 279.187 316.542C279.127 316.597 279.058 316.64 278.982 316.668C278.913 316.686 278.842 316.686 278.773 316.668C278.651 316.669 278.532 316.633 278.432 316.564C278.332 316.495 278.255 316.397 278.212 316.283L277.717 314.853ZM277.266 313.643L276.375 311.278L275.484 313.643H277.266Z" fill="#263238"/>
<path d="M284.504 310.2H282.755V316.074C282.755 316.234 282.691 316.388 282.578 316.502C282.464 316.615 282.31 316.679 282.15 316.679C281.99 316.679 281.836 316.615 281.722 316.502C281.609 316.388 281.545 316.234 281.545 316.074V310.2H279.807C279.646 310.197 279.492 310.131 279.379 310.016C279.265 309.9 279.202 309.745 279.202 309.584C279.201 309.504 279.215 309.425 279.245 309.351C279.275 309.277 279.319 309.209 279.376 309.153C279.432 309.096 279.5 309.052 279.574 309.022C279.648 308.992 279.727 308.977 279.807 308.979H284.504C284.583 308.979 284.662 308.994 284.736 309.025C284.809 309.055 284.876 309.1 284.932 309.156C284.988 309.212 285.033 309.279 285.063 309.352C285.093 309.426 285.109 309.504 285.109 309.584C285.109 309.745 285.046 309.9 284.932 310.016C284.819 310.131 284.665 310.197 284.504 310.2Z" fill="#263238"/>
<path d="M286.924 316.063V309.573C286.922 309.493 286.937 309.414 286.967 309.34C286.997 309.266 287.041 309.198 287.098 309.142C287.154 309.085 287.222 309.041 287.296 309.011C287.37 308.981 287.449 308.966 287.529 308.968H291.126C291.286 308.968 291.44 309.032 291.554 309.145C291.667 309.259 291.731 309.412 291.731 309.573C291.731 309.734 291.668 309.889 291.554 310.005C291.441 310.12 291.287 310.186 291.126 310.189H288.2V312.202H290.763C290.911 312.222 291.046 312.295 291.145 312.407C291.243 312.519 291.297 312.663 291.297 312.812C291.297 312.962 291.243 313.106 291.145 313.218C291.046 313.33 290.911 313.403 290.763 313.423H288.2V315.447H291.181C291.329 315.467 291.464 315.54 291.563 315.652C291.661 315.764 291.715 315.908 291.715 316.057C291.715 316.207 291.661 316.351 291.563 316.463C291.464 316.575 291.329 316.648 291.181 316.668H287.584C287.5 316.676 287.415 316.666 287.336 316.639C287.256 316.612 287.182 316.568 287.12 316.511C287.058 316.454 287.009 316.385 286.975 316.308C286.941 316.231 286.924 316.147 286.924 316.063Z" fill="#263238"/>
<path d="M294.019 315.106C294.237 315.109 294.445 315.197 294.599 315.351C294.753 315.505 294.841 315.713 294.844 315.931C294.841 316.148 294.753 316.355 294.599 316.507C294.444 316.66 294.236 316.745 294.019 316.745C293.803 316.745 293.596 316.659 293.443 316.507C293.291 316.354 293.205 316.147 293.205 315.931C293.205 315.714 293.29 315.506 293.443 315.351C293.595 315.197 293.802 315.109 294.019 315.106Z" fill="#263238"/>
<path d="M296.549 315.106C296.767 315.109 296.975 315.197 297.129 315.351C297.283 315.505 297.371 315.713 297.374 315.931C297.371 316.148 297.283 316.355 297.128 316.507C296.974 316.66 296.766 316.745 296.549 316.745C296.333 316.745 296.126 316.659 295.973 316.507C295.821 316.354 295.735 316.147 295.735 315.931C295.735 315.714 295.82 315.506 295.973 315.351C296.125 315.197 296.332 315.109 296.549 315.106Z" fill="#263238"/>
<path d="M299.079 315.106C299.297 315.109 299.505 315.197 299.659 315.351C299.813 315.505 299.901 315.713 299.904 315.931C299.901 316.148 299.813 316.355 299.659 316.507C299.504 316.66 299.296 316.745 299.079 316.745C298.863 316.745 298.656 316.659 298.503 316.507C298.351 316.354 298.265 316.147 298.265 315.931C298.265 315.714 298.35 315.506 298.503 315.351C298.655 315.197 298.862 315.109 299.079 315.106Z" fill="#263238"/>
<path d="M433.51 360.888C416.548 389.807 389.917 415.646 382.855 418.275C375.155 421.135 346.5 412.357 332.255 407.22C327.591 405.537 337.128 372.68 342.155 370.986C347.182 369.292 369.391 382.778 374.737 381.469C376.42 381.062 406.01 363.803 422.257 352.935C437.393 342.804 438.658 352.11 433.51 360.888Z" fill="#AD6359"/>
<path d="M334.334 413.292L347.193 369.996C347.193 369.996 369.556 380.567 373.263 379.731C376.97 378.895 411.279 357.797 423.775 350.845C436.271 343.893 445.72 348.315 429.847 370.084C412.72 393.58 392.876 416.009 385.11 419.188C374.88 423.357 334.334 413.292 334.334 413.292Z" fill="#407BFF"/>
<path d="M382.855 398.101C382.28 399.508 381.91 400.989 381.755 402.501C382.679 401.272 383.42 399.916 383.955 398.475C384.532 397.069 384.903 395.587 385.055 394.075C384.14 395.31 383.4 396.664 382.855 398.101ZM381.568 375.496L380.369 376.167C381.474 376.536 382.618 376.773 383.779 376.871C383.088 376.342 382.348 375.881 381.568 375.496ZM362.934 411.4C361.528 410.822 360.046 410.451 358.534 410.3C361.017 412.127 363.939 413.266 367.004 413.6C365.759 412.676 364.389 411.935 362.934 411.4ZM357.5 386.1C356.887 384.698 356.084 383.388 355.113 382.206C355.597 385.249 356.876 388.11 358.82 390.5C358.59 388.978 358.146 387.497 357.5 386.1ZM403.568 376.464C402.16 377.067 400.845 377.867 399.663 378.84C401.184 378.614 402.666 378.174 404.063 377.531C405.473 376.932 406.788 376.132 407.968 375.155C406.456 375.377 404.982 375.81 403.59 376.442L403.568 376.464ZM338.602 398.86L338.195 400.235C339.386 399.684 340.496 398.974 341.495 398.123C340.515 398.258 339.553 398.497 338.624 398.838L338.602 398.86Z" fill="white"/>
<path d="M344.828 412.401C345.424 410.9 345.931 409.364 346.346 407.803C346.786 406.439 347.248 405.075 347.677 403.689C348.612 400.686 349.558 397.683 350.471 394.68C351.384 391.677 352.319 388.674 353.199 385.671C354.079 382.668 355.069 379.698 355.784 376.651C355.791 376.625 355.788 376.597 355.774 376.573C355.761 376.549 355.739 376.532 355.713 376.525C355.686 376.517 355.658 376.521 355.634 376.534C355.611 376.547 355.593 376.57 355.586 376.596C354.288 379.434 353.287 382.426 352.286 385.396C351.285 388.366 350.328 391.248 349.415 394.196C348.502 397.144 347.655 400.224 346.852 403.249C346.456 404.712 346.126 406.186 345.752 407.649C345.301 409.205 344.952 410.789 344.707 412.39C344.713 412.4 344.722 412.408 344.732 412.414C344.742 412.42 344.753 412.424 344.765 412.425C344.776 412.426 344.788 412.424 344.799 412.42C344.81 412.416 344.82 412.41 344.828 412.401Z" fill="#263238"/>
<path opacity="0.1" d="M354.475 417.549C366.234 419.661 379.775 421.355 385.099 419.177C392.876 416.009 412.72 393.591 429.858 370.084C439.934 356.246 439.758 349.426 435.138 348.084L354.475 417.549Z" fill="black"/>
<path d="M361.988 300.96C360.819 296.03 358.296 291.524 354.705 287.95C351.113 284.377 346.596 281.876 341.66 280.731L346.808 302.423L335.995 309.408L323.202 308L318.054 286.297C314.326 289.403 311.495 293.448 309.855 298.015C308.214 302.582 307.824 307.504 308.723 312.272C309.623 317.04 311.78 321.481 314.971 325.136C318.163 328.792 322.273 331.528 326.876 333.062C331.48 334.596 336.409 334.872 341.155 333.862C345.902 332.852 350.292 330.593 353.872 327.318C357.452 324.042 360.092 319.87 361.519 315.232C362.946 310.594 363.108 305.659 361.988 300.938V300.96Z" fill="#DBDBDB"/>
<path d="M345.114 465.839C346.283 470.769 348.806 475.274 352.397 478.848C355.989 482.422 360.506 484.923 365.442 486.068L360.294 464.376L371.096 457.391L383.9 458.777L389.048 480.48C392.776 477.374 395.607 473.329 397.247 468.762C398.888 464.195 399.278 459.273 398.379 454.505C397.479 449.737 395.322 445.296 392.131 441.64C388.939 437.985 384.829 435.249 380.226 433.715C375.622 432.181 370.693 431.905 365.947 432.915C361.2 433.924 356.81 436.184 353.23 439.459C349.65 442.735 347.01 446.907 345.583 451.545C344.156 456.183 343.994 461.118 345.114 465.839Z" fill="#DBDBDB"/>
<path d="M349.365 313.096L325.755 318.699L356.34 447.582L379.95 441.979L349.365 313.096Z" fill="#DBDBDB"/>
<path d="M351.404 352.656L341.686 354.963L354.282 408.038L364 405.731L351.404 352.656Z" fill="#C7C7C7"/>
<path d="M355.685 405.515C357.885 401.324 351.703 401.115 351.703 401.115C351.703 401.115 360.767 399.322 361.416 394.097C362.032 389.07 354.497 389.026 353.958 389.015C354.431 388.916 362.758 387.046 362.835 381.733C362.945 376.233 355.366 377.465 354.882 377.542C355.3 377.311 360.833 374.099 360.008 370.04C358.578 363.077 341.99 370.898 336.545 369.028L333.124 358.853C332.723 361.588 331.539 364.147 329.714 366.223C327.184 369.292 325.468 371.327 324.929 373.758C324.646 374.845 324.721 375.994 325.143 377.034C325.565 378.075 326.312 378.951 327.272 379.533C327.272 379.533 322.564 381.337 322.344 385.528C322.234 387.673 325.567 389.752 325.567 389.752C325.567 389.752 321.86 391.358 321.893 395.098C321.893 398.079 325.248 399.707 325.248 399.707C325.248 399.707 322.399 402.897 323.411 405.933C325.424 412.016 350.9 414.491 355.685 405.515Z" fill="#AD6359"/>
<path d="M335.401 366.762L333.201 359.007C333.058 358.743 332.904 358.468 332.75 358.226C327.349 349.426 314.248 347.776 316.14 354.926C317.57 360.371 326.667 363.308 327.327 369.094L335.401 366.762Z" fill="#AD6359"/>
<path d="M325.743 399.982C325.725 399.982 325.709 399.989 325.696 400.001C325.684 400.014 325.677 400.03 325.677 400.048C325.677 400.065 325.684 400.082 325.696 400.095C325.709 400.107 325.725 400.114 325.743 400.114C333.905 402.963 343.75 403.601 352.143 401.115C352.418 401.027 352.396 400.554 352.077 400.587C343.317 401.672 334.444 401.468 325.743 399.982Z" fill="#263238"/>
<path d="M325.435 389.741C325.336 389.741 325.303 389.884 325.435 389.917C333.861 392.81 344.96 393.217 354.233 389.224C354.552 389.081 354.695 388.641 354.321 388.773C347.93 390.962 333.553 391.237 325.435 389.741Z" fill="#263238"/>
<path d="M355.432 376.992C346.401 380.479 337.15 380.732 327.613 379.621C327.492 379.621 327.481 379.775 327.613 379.819C332.123 381.634 338.272 381.711 343.068 381.359C347.513 381.119 351.817 379.719 355.553 377.3C355.707 377.212 355.63 376.915 355.432 376.992Z" fill="#263238"/>
<path d="M132.308 506.869C135.498 508.09 228.074 509.773 231.704 507.705C232.1 507.474 231.99 503.393 233.354 492.822C233.42 492.316 235.554 490.358 238.854 487.586C251.24 477.213 280.335 455.334 280.335 455.334L234.135 415.195L189.365 459.195L177.716 470.635C177.716 470.635 139.887 491.062 136.147 493.735C132.407 496.408 129.129 505.648 132.308 506.869Z" fill="#AD6359"/>
<path d="M132.319 506.869C135.509 508.101 228.085 509.773 231.704 507.705C232.089 507.474 231.979 503.393 233.354 492.822C233.409 492.316 235.554 490.358 238.854 487.586C243.155 483.978 245.201 482.328 251.603 477.345L192.863 455.752L189.343 459.206L177.705 470.646C177.705 470.646 139.876 491.073 136.136 493.746C132.396 496.419 129.118 505.648 132.319 506.869Z" fill="#EBEBEB"/>
<path d="M125.939 508.2C129.151 509.3 227.788 510.4 231.341 508.2C232.177 507.683 232.936 501.963 233.541 494.109C233.618 493.13 243.606 485.144 244.97 483.659L184.536 463.309L176.902 470.481C176.902 470.481 132.418 491.183 128.777 493.999C125.136 496.815 122.716 507.023 125.939 508.2Z" fill="#407BFF"/>
<path d="M127.303 504.46C142.802 504.262 211.541 504.922 226.875 505.901C226.996 505.901 226.996 506 226.875 506C211.475 506.539 142.78 505.373 127.303 504.713C126.973 504.702 126.973 504.471 127.303 504.46Z" fill="#263238"/>
<path d="M171.974 471.097C178.09 469.997 185.537 471.097 190.146 475.497C190.322 475.662 190.08 475.915 189.882 475.849C184.078 473.897 178.082 472.573 171.996 471.9C171.943 471.901 171.891 471.892 171.842 471.874C171.792 471.855 171.747 471.826 171.709 471.79C171.671 471.754 171.64 471.71 171.618 471.662C171.597 471.614 171.585 471.562 171.583 471.509C171.582 471.457 171.591 471.404 171.61 471.355C171.629 471.306 171.657 471.261 171.693 471.222C171.73 471.184 171.773 471.153 171.821 471.132C171.869 471.11 171.921 471.098 171.974 471.097Z" fill="#263238"/>
<path d="M167.552 473.693C173.657 472.593 181.104 473.693 185.713 478.093C185.889 478.269 185.647 478.511 185.449 478.445C179.644 476.501 173.648 475.181 167.563 474.507C167.455 474.508 167.351 474.467 167.274 474.392C167.196 474.316 167.152 474.213 167.15 474.105C167.149 473.997 167.191 473.893 167.266 473.816C167.341 473.739 167.444 473.694 167.552 473.693Z" fill="#263238"/>
<path d="M163.119 476.3C169.224 475.2 176.671 476.3 181.28 480.645C181.456 480.821 181.214 481.074 181.016 481.008C175.212 479.059 169.216 477.739 163.13 477.07C163.079 477.071 163.029 477.062 162.982 477.043C162.935 477.024 162.892 476.996 162.856 476.961C162.783 476.89 162.741 476.793 162.74 476.691C162.738 476.588 162.777 476.49 162.848 476.417C162.92 476.343 163.017 476.302 163.119 476.3Z" fill="#263238"/>
<path d="M158.686 478.896C164.791 477.796 172.238 478.896 176.847 483.296C177.023 483.461 176.781 483.714 176.583 483.648C170.778 481.705 164.782 480.385 158.697 479.71C158.589 479.711 158.485 479.67 158.408 479.595C158.33 479.519 158.286 479.416 158.284 479.309C158.283 479.201 158.325 479.096 158.4 479.019C158.475 478.942 158.578 478.897 158.686 478.896Z" fill="#263238"/>
<path d="M163.515 465.575C167.783 468.985 173.415 470.415 178.398 472.34C178.915 472.538 179.333 472.054 179.366 471.592C179.391 471.59 179.416 471.582 179.438 471.569C179.46 471.556 179.478 471.539 179.492 471.517C179.506 471.496 179.515 471.472 179.517 471.447C179.52 471.421 179.518 471.396 179.509 471.372C177.717 465.952 174.535 461.097 170.28 457.292C167.761 455.092 163.317 453.596 160.886 456.863C158.587 459.954 161.018 463.595 163.515 465.575ZM162.019 460.658C161.029 453.959 168.168 457.545 169.961 459.217C171.101 460.322 172.167 461.502 173.151 462.748C175.23 465.311 176.913 468.116 178.717 470.855C176.308 469.755 173.833 468.875 171.391 467.874C168.487 466.675 162.569 464.354 162.019 460.658Z" fill="#263238"/>
<path d="M199.969 462.319C198.539 458.502 193.842 458.744 190.817 460.119C185.666 462.598 181.261 466.392 178.046 471.119C178.031 471.14 178.021 471.165 178.018 471.191C178.014 471.217 178.017 471.243 178.025 471.268C178.034 471.293 178.048 471.315 178.067 471.333C178.086 471.351 178.109 471.364 178.134 471.372C178.095 471.485 178.084 471.606 178.102 471.724C178.12 471.842 178.165 471.955 178.235 472.052C178.305 472.149 178.398 472.228 178.504 472.282C178.611 472.335 178.729 472.363 178.849 472.362C184.195 471.9 189.97 472.076 195.019 469.997C198 468.743 201.3 465.927 199.969 462.319ZM186.769 470.019C184.151 470.305 181.522 470.459 178.904 470.844C181.401 468.721 183.799 466.444 186.505 464.607C187.798 463.687 189.151 462.853 190.553 462.11C192.753 461.01 200.596 459.525 197.78 465.696C196.273 469.04 189.948 469.634 186.813 469.975L186.769 470.019Z" fill="#263238"/>
<path d="M188.694 456.753L245.795 486.343C245.795 486.343 305.294 432.443 310.695 432.091C316.096 431.739 396.187 485.991 436.48 486.167C478.214 486.343 480.326 442.618 480.326 442.618L419.452 428.637C375.562 407.011 329.846 368.137 299.948 371.778C267.531 375.716 188.694 456.753 188.694 456.753Z" fill="#37474F"/>
<path d="M188.694 456.753L245.795 486.343C245.795 486.343 305.294 432.443 310.695 432.091C316.096 431.739 396.187 485.991 436.48 486.167C478.214 486.343 480.326 442.618 480.326 442.618L419.452 428.637C375.562 407.011 329.846 368.137 299.948 371.778C267.531 375.716 188.694 456.753 188.694 456.753Z" fill="#37474F"/>
<path d="M202.642 449.218C212.278 453.981 209.572 452.518 219.142 457.347C223.839 459.734 247.456 471.647 251.46 474.595C251.477 474.612 251.489 474.633 251.492 474.657C251.496 474.681 251.492 474.705 251.481 474.726C251.47 474.747 251.452 474.764 251.43 474.774C251.409 474.784 251.384 474.787 251.361 474.782C246.642 473.198 223.289 460.779 218.647 458.282C209.143 453.233 211.926 454.586 202.477 449.482C202.442 449.46 202.417 449.425 202.408 449.385C202.399 449.345 202.406 449.302 202.427 449.267C202.449 449.232 202.484 449.208 202.524 449.198C202.565 449.189 202.607 449.196 202.642 449.218Z" fill="#263238"/>
<path d="M255.915 472.703C267.08 462.803 303.655 430.804 305.14 429.616C306.296 428.517 307.578 427.557 308.957 426.756C309.527 426.532 310.14 426.442 310.75 426.491C311.36 426.541 311.951 426.729 312.477 427.042C314.171 427.834 315.777 428.692 317.504 429.517L327.404 434.346C340.208 440.594 352.924 446.996 365.816 453.046C378.213 458.854 387.068 464.321 400.015 468.787C412.886 473.33 426.2 476.505 439.736 478.258C441.408 478.467 443.036 478.643 444.752 478.797C444.873 478.797 444.873 478.995 444.752 478.984C431.468 478.202 418.335 475.759 405.658 471.713C392.821 467.775 384.12 462.649 371.943 457.05C359.315 451.231 346.863 445.016 334.422 438.834C327.822 435.534 321.288 432.234 314.699 429.044C313.203 428.307 311.08 426.723 309.375 427.504C308.661 427.904 307.999 428.392 307.406 428.956L305.206 430.782C302.39 433.136 257.543 471.757 256.08 472.868C255.959 473 255.805 472.791 255.915 472.703Z" fill="#263238"/>
<path d="M220.209 473.088L295.812 442.761C276.496 458.557 245.795 486.343 245.795 486.343L220.209 473.088Z" fill="#263238"/>
<path d="M480.37 442.618C480.37 442.618 478.258 486.343 436.524 486.167C401.5 486.024 336.303 444.972 316.393 434.467L382.8 407.858C394.9 415.261 407.286 422.609 419.507 428.637L480.37 442.618Z" fill="#263238"/>
<path d="M480.37 442.618C480.37 442.618 486.464 487.124 466.07 501.743C445.676 516.362 301.246 508.123 279.642 500.071C258.038 492.019 258.907 456.599 283.239 449.471C306.339 442.684 403.524 443.179 405.966 442.332C406.571 442.112 397.617 436.194 397.672 435.864L417.197 424.743L480.37 442.618Z" fill="#37474F"/>
<path d="M451.484 445.06C451.484 444.895 451.781 444.961 451.77 445.06C451.574 449.644 452.991 454.151 455.774 457.798C458.964 461.813 463.815 464.211 468.204 466.675C468.622 466.906 468.27 467.577 467.83 467.423C465.11 466.455 462.506 465.189 460.064 463.65C457.812 462.325 455.857 460.55 454.322 458.436C452.953 456.522 451.994 454.346 451.505 452.045C451.017 449.743 451.01 447.365 451.484 445.06Z" fill="#263238"/>
<path d="M407.715 438.229C408.815 436.997 409.915 435.82 411.015 434.632C413.611 431.794 416.229 428.956 418.935 426.239C419.199 425.975 419.661 426.382 419.419 426.657C417.571 428.857 415.635 430.991 413.721 433.136L410.762 436.436C409.737 437.408 408.812 438.481 408.001 439.637C407.264 440.88 408.111 441.991 409.409 442.189C410.571 442.268 411.719 441.902 412.621 441.166C414.656 439.512 416.53 437.671 418.22 435.666C419.313 434.544 420.413 433.426 421.52 432.311C422.697 431.134 423.951 430.012 425.117 428.835C425.194 428.758 425.337 428.835 425.26 428.967C424.226 430.265 423.258 431.629 422.224 432.927C421.19 434.225 420.123 435.512 419.056 436.788C417.989 438.064 416.999 439.175 415.932 440.33C415.036 441.351 413.976 442.217 412.797 442.893C410.872 443.916 407.605 443.993 406.714 441.54C406.57 440.949 406.588 440.33 406.764 439.748C406.94 439.166 407.268 438.642 407.715 438.229Z" fill="#263238"/>
<path d="M282.612 500.335C290.158 500.808 297.682 501.578 305.217 502.073C312.752 502.568 320.188 502.931 327.679 503.173C342.727 503.701 357.782 503.782 372.845 503.415C388.058 503.03 404.481 502.249 419.639 500.819C426.888 500.148 434.236 499.631 441.419 498.421C447.878 497.483 453.934 494.72 458.876 490.457C469.051 481.426 473.462 467.676 475.607 454.454C475.893 452.683 476.146 450.901 476.366 449.119C476.373 449.1 476.385 449.083 476.402 449.071C476.419 449.059 476.439 449.052 476.459 449.052C476.48 449.052 476.5 449.059 476.517 449.071C476.534 449.083 476.546 449.1 476.553 449.119C475.068 462.704 472.318 476.828 463.265 487.399C459.435 492.021 454.453 495.55 448.822 497.629C441.958 500.038 434.434 500.335 427.273 500.984C412.06 502.37 395.571 503.184 380.303 503.734C365.035 504.284 349.569 504.317 334.202 503.855C318.835 503.393 303.49 502.513 288.189 501.083C286.319 500.907 284.46 500.72 282.601 500.467C282.587 500.477 282.571 500.483 282.554 500.484C282.537 500.485 282.521 500.481 282.506 500.473C282.491 500.465 282.479 500.452 282.471 500.438C282.463 500.423 282.46 500.406 282.461 500.389C282.462 500.372 282.469 500.356 282.479 500.343C282.489 500.329 282.503 500.319 282.519 500.313C282.535 500.308 282.552 500.307 282.569 500.31C282.585 500.314 282.6 500.323 282.612 500.335Z" fill="#263238"/>
<path d="M332.761 444.455C337.546 443.96 342.32 443.487 347.116 443.201C351.912 442.915 356.818 442.695 361.669 442.497C371.261 442.112 380.886 441.804 390.489 441.782C395.989 441.782 401.39 441.98 406.835 442.288C407.011 442.288 406.978 442.552 406.835 442.563C397.21 443.003 387.596 443.179 377.971 443.399C368.346 443.619 358.765 444.026 349.162 444.499C343.717 444.774 338.283 444.928 332.838 445.137C332.409 445.17 332.365 444.488 332.761 444.455Z" fill="#263238"/>
<path d="M396.539 435.314C400.296 437.132 403.891 439.266 407.286 441.694C410.759 443.982 414.067 446.511 417.186 449.262C417.274 449.35 417.186 449.449 417.054 449.405C413.402 447.513 409.904 445.192 406.439 442.97C402.925 440.792 399.546 438.404 396.319 435.82C396.066 435.6 396.231 435.171 396.539 435.314Z" fill="#263238"/>
<path d="M398.266 438.526L483.208 448.327C483.208 446.589 466.312 361.119 444.378 347.853C440.165 345.301 432.608 345.455 425.865 351.615C413.6 362.802 397.166 437.371 398.266 438.526Z" fill="#407BFF"/>
<path d="M452.199 355.707C450.844 356.298 449.577 357.076 448.437 358.017C449.958 357.795 451.439 357.358 452.837 356.719H452.903C452.65 356.4 452.43 356.026 452.199 355.707ZM437.085 414.403C435.68 415.009 434.369 415.813 433.191 416.79C434.713 416.573 436.195 416.135 437.591 415.492C438.997 414.882 440.312 414.078 441.496 413.105C439.971 413.322 438.485 413.759 437.085 414.403ZM474.738 411.917C474.417 412.143 474.109 412.385 473.814 412.643C474.177 412.643 474.529 412.533 474.914 412.456C474.837 412.28 474.793 412.093 474.738 411.917ZM402.204 418.055C402.061 418.682 401.918 419.287 401.775 419.892C402.255 420.809 402.838 421.669 403.513 422.455C403.292 420.933 402.851 419.451 402.204 418.055ZM453.618 391.71C453.009 390.305 452.21 388.991 451.242 387.805C451.46 389.327 451.897 390.809 452.54 392.205C453.145 393.608 453.945 394.919 454.916 396.099C454.698 394.581 454.26 393.103 453.618 391.71ZM433.015 347.237L432.806 347.314L433.081 347.644C433.07 347.507 433.048 347.371 433.015 347.237ZM419.694 397.782C418.288 397.204 416.806 396.833 415.294 396.682C417.777 398.509 420.699 399.648 423.764 399.982C422.519 399.058 421.149 398.317 419.694 397.782ZM481.547 439.758L480.557 439.34C479.149 438.768 477.668 438.398 476.157 438.24C477.379 439.168 478.732 439.91 480.172 440.44C480.722 440.649 481.272 440.836 481.844 441.001C481.734 440.605 481.646 440.187 481.547 439.758ZM456.104 428.186C455.528 429.592 455.158 431.074 455.004 432.586C456.821 430.102 457.959 427.186 458.304 424.127C457.379 425.367 456.638 426.734 456.104 428.186ZM421.465 434.5C420.888 435.906 420.517 437.388 420.365 438.9C422.168 436.409 423.287 433.488 423.61 430.43C422.705 431.678 421.983 433.048 421.465 434.5ZM430.694 373.395C430.107 374.817 429.736 376.318 429.594 377.85C430.503 376.612 431.243 375.258 431.794 373.824C432.365 372.416 432.735 370.935 432.894 369.424C431.979 370.643 431.239 371.983 430.694 373.406V373.395Z" fill="white"/>
<path d="M453.684 353.991C469.469 366.091 511.06 415.206 502.359 426.855C493.658 438.504 434.082 434.621 416.691 429.605C411.521 428.12 424.798 395.208 430.309 393.58C434.907 392.227 460.702 399.223 461.175 397.727C461.703 396.044 455.983 385.165 446.765 365.277C436.139 342.353 446.71 348.623 453.684 353.991Z" fill="#AD6359"/>
<path d="M404.899 387.871C392.975 388.179 389.961 390.071 379.764 385C373.076 381.7 368.071 384.505 372.614 390.819C380.061 401.137 395.516 404.019 401.159 403.414L404.899 387.871Z" fill="#AD6359"/>
<path d="M437.701 393.976C437.701 393.976 423.401 388.872 410.674 387.937C401.874 387.288 382.547 388.025 367.532 409.684C363.979 414.832 362.549 424.677 371.404 418.396C377.707 413.93 380.347 409.2 384.483 407.275C384.483 407.275 384.153 420.013 389.444 423.379C394.064 426.33 398.891 428.944 403.887 431.2C404.508 430.38 405.074 429.52 405.581 428.626C405.581 428.626 410.817 431.299 419.463 429.011L437.701 393.976Z" fill="#AD6359"/>
<path d="M402.171 388.663C398.475 391.446 390.731 397.463 386.111 404.602C380.974 412.522 373.23 429.165 379.115 432.894C383.438 435.622 386.947 429.528 386.947 429.528C386.947 429.528 385.198 437.085 389.642 438.702C393.69 440.176 396.121 435.292 396.121 435.292C396.121 435.292 395.846 440.066 400.015 440.726C405.031 441.529 404.789 431.409 410.564 427.834C411.862 427.031 402.171 388.663 402.171 388.663Z" fill="#AD6359"/>
<path d="M395.384 408.628C392.337 411.807 387.266 420.827 386.859 429.363C386.859 429.55 386.991 429.66 387.035 429.484C388.994 422.232 391.823 415.244 395.461 408.672C395.461 408.672 395.417 408.595 395.384 408.628Z" fill="#263238"/>
<path d="M403.227 414.04C400.884 417.054 396.066 426.58 395.956 435.237C395.956 435.435 396.099 435.534 396.143 435.358C397.72 428.019 400.122 420.883 403.304 414.084L403.227 414.04Z" fill="#263238"/>
<path d="M384.472 407.198C380.853 408.947 378.697 411.213 375.859 413.974C374.469 415.359 373 416.663 371.459 417.879C370.051 418.979 367.983 420.618 366.113 419.573C365.662 419.231 365.311 418.774 365.098 418.249C364.885 417.724 364.818 417.152 364.903 416.592C365.109 414.974 365.573 413.399 366.278 411.928C366.278 411.873 366.201 411.818 366.179 411.873C365.485 413.22 364.932 414.636 364.529 416.097C364.271 417.097 364.325 418.153 364.683 419.122C365.585 421.124 368.093 420.992 369.754 420.123C370.732 419.57 371.654 418.922 372.504 418.187C373.329 417.505 374.132 416.779 374.913 416.042C376.519 414.524 378.037 412.918 379.621 411.378C381.17 409.924 382.809 408.569 384.527 407.319C384.535 407.308 384.54 407.295 384.541 407.282C384.542 407.268 384.54 407.255 384.534 407.243C384.529 407.231 384.52 407.22 384.509 407.212C384.498 407.204 384.485 407.199 384.472 407.198Z" fill="#263238"/>
<path d="M378.73 421.872C380.358 416.886 382.306 412.011 384.56 407.275L384.472 407.22C381.975 410.52 378.455 418.748 377.74 421.322C377.025 423.896 376.277 427.086 376.706 429.715C377.366 433.686 380.116 433.994 381.106 434.027C382.3 434.055 383.467 433.666 384.406 432.927C385.492 431.992 386.372 430.842 386.991 429.55C386.991 429.484 386.936 429.429 386.903 429.484C385.803 431.277 383.757 433.202 381.557 433.268C381.073 433.302 380.587 433.239 380.128 433.082C379.669 432.925 379.246 432.678 378.884 432.355C378.136 431.498 377.722 430.401 377.718 429.264C377.635 426.76 377.977 424.261 378.73 421.872Z" fill="#263238"/>
<path d="M437.701 393.976L425.7 435.6C425.7 435.6 500.203 439.846 504.328 426.316C508.453 412.786 472.494 368.5 457.6 356.334C440.297 342.232 439.373 348.15 445.005 362.263C450.901 377.036 461.054 398.123 461.054 398.123L437.701 393.976Z" fill="#407BFF"/>
<path d="M456.104 428.186C455.528 429.592 455.158 431.074 455.004 432.586C456.821 430.101 457.959 427.186 458.304 424.127C457.379 425.367 456.638 426.734 456.104 428.186ZM473.957 382.107C472.549 381.537 471.068 381.167 469.557 381.007C470.78 381.933 472.133 382.674 473.572 383.207C474.98 383.779 476.461 384.149 477.972 384.307C476.744 383.388 475.392 382.647 473.957 382.107ZM502.084 423.566C501.489 422.155 500.684 420.842 499.697 419.672C499.925 421.191 500.362 422.672 500.995 424.072C501.601 425.481 502.405 426.795 503.382 427.977C503.166 426.451 502.729 424.965 502.084 423.566ZM477.708 410.3C476.671 410.761 475.677 411.313 474.738 411.95C474.417 412.176 474.109 412.418 473.814 412.676C474.177 412.676 474.529 412.566 474.914 412.489C476.047 412.23 477.152 411.861 478.214 411.389C479.621 410.785 480.936 409.985 482.119 409.013C480.593 409.222 479.107 409.655 477.708 410.3ZM437.085 414.436C435.68 415.042 434.369 415.846 433.191 416.823C434.713 416.606 436.195 416.168 437.591 415.525C438.997 414.915 440.312 414.111 441.496 413.138C439.972 413.345 438.487 413.771 437.085 414.403V414.436ZM455.4 354.585C454.356 354.867 453.337 355.235 452.353 355.685L452.221 355.751C450.866 356.342 449.599 357.12 448.459 358.061C449.98 357.838 451.461 357.401 452.859 356.763H452.925C453.98 356.294 454.989 355.726 455.939 355.069L455.4 354.585Z" fill="white"/>
<path d="M484.561 404.8C480.839 403.061 476.998 401.59 473.066 400.4C469.174 399.239 465.204 398.361 461.186 397.771C458.898 397.419 456.588 397.166 454.289 396.913C454.223 396.913 454.212 397.012 454.289 397.023C458.327 397.627 462.327 398.464 466.268 399.531C470.199 400.558 474.1 401.658 477.972 402.831C480.172 403.491 482.372 404.25 484.517 405.031C484.605 404.987 484.649 404.8 484.561 404.8Z" fill="#263238"/>
<path d="M437.877 393.8C438.251 393.8 458.975 397.1 459.668 397.265C459.536 396.99 454.289 387.123 453.508 385.682C453.42 385.539 453.354 385.396 453.277 385.242C452.804 384.626 452.331 383.999 451.891 383.361L450.186 380.886C450.791 381.689 451.396 382.481 451.99 383.284C452.265 383.658 452.529 384.032 452.793 384.384C452.276 383.361 451.759 382.327 451.253 381.293C450.428 379.654 449.669 377.993 448.91 376.31C448.91 376.255 448.976 376.222 448.998 376.31C450.549 379.192 452.177 382.008 453.739 384.879C455.301 387.75 461.186 398.299 461.153 398.288C461.12 398.277 438.251 394.24 437.811 394.13C437.767 394.121 437.729 394.095 437.704 394.058C437.679 394.021 437.67 393.976 437.679 393.932C437.688 393.888 437.714 393.85 437.751 393.825C437.788 393.8 437.833 393.791 437.877 393.8Z" fill="#263238"/>
<path d="M440.726 419.243C442.035 414.601 443.3 409.937 444.785 405.339C445.621 402.732 446.457 400.114 447.315 397.507C447.315 397.408 447.524 397.452 447.502 397.507C446.402 402.226 445.225 406.956 443.883 411.62C442.541 416.284 441.254 420.904 439.846 425.535C439.054 428.164 438.185 430.749 437.228 433.334C437.228 433.334 437.129 433.334 437.14 433.334C438.108 428.593 439.406 423.929 440.726 419.243Z" fill="#263238"/>
<path d="M424.908 436.403C425.425 435.094 426.008 433.224 426.635 431.948C426.778 431.607 427.031 431.629 426.921 431.948C426.547 433.114 426.294 434.401 425.942 435.6C426.976 435.6 428.021 435.6 429.066 435.688L432.685 435.842C435.039 435.941 437.404 436.007 439.758 436.051C444.547 436.139 449.332 436.139 454.113 436.051C463.704 435.872 473.28 435.196 482.801 434.027C485.463 433.686 488.125 433.29 490.765 432.817C493.358 432.389 495.928 431.831 498.465 431.145C498.483 431.145 498.499 431.152 498.512 431.164C498.524 431.177 498.531 431.194 498.531 431.211C498.531 431.229 498.524 431.245 498.512 431.258C498.499 431.27 498.483 431.277 498.465 431.277C496.319 432.111 494.113 432.78 491.865 433.279C489.489 433.796 487.102 434.247 484.693 434.61C479.908 435.347 475.09 435.831 470.261 436.183C460.691 436.88 451.103 437.169 441.496 437.052C438.801 437.052 436.117 436.964 433.422 436.865C432.069 436.865 430.716 436.777 429.363 436.7C428.01 436.623 424.82 436.623 424.908 436.403Z" fill="#263238"/>
<path d="M429.814 364.804C434.676 365.904 443.014 358.479 446.314 352.451C446.534 352.033 445.896 347.688 445.357 342.364C445.038 339.141 444.763 335.533 444.752 332.222C444.752 331.551 424.028 337.337 424.028 337.337C425.228 341.469 425.919 345.732 426.085 350.031C426.078 350.485 426.031 350.938 425.942 351.384V351.615C425.458 354.2 425.117 363.715 429.814 364.804Z" fill="#AD6359"/>
<path d="M443.432 332.321C442.497 337.909 439.032 351.428 428.032 351.725C427.323 351.741 426.613 351.704 425.909 351.615C425.896 351.538 425.896 351.46 425.909 351.384C425.998 350.938 426.045 350.485 426.052 350.031C425.887 345.731 425.196 341.468 423.995 337.337C423.995 337.337 438.9 333.157 443.432 332.321Z" fill="#263238"/>
<path d="M451.198 310.629C452.221 318.208 444.994 338.426 439.098 342.232C430.54 347.732 418.198 346.39 413.974 336.501C409.838 326.92 419.727 300.729 426.162 297.451C435.6 292.6 449.691 299.431 451.198 310.629Z" fill="#AD6359"/>
<path d="M428.802 319.484C428.802 319.484 428.89 319.594 428.868 319.649C428.296 320.98 427.878 322.608 428.934 323.521C428.934 323.521 428.934 323.62 428.934 323.598C427.482 322.817 428.054 320.661 428.802 319.484Z" fill="#263238"/>
<path d="M430.551 318.538C432.751 319.209 431.288 323.642 429.209 323.015C427.13 322.388 428.681 317.977 430.551 318.538Z" fill="#263238"/>
<path d="M420.794 317.009C420.794 316.954 420.662 317.009 420.651 317.097C420.222 318.483 419.551 320.001 418.11 320.034V320.111C419.683 320.408 420.618 318.395 420.794 317.009Z" fill="#263238"/>
<path d="M420.057 315.161C417.912 314.248 416.24 318.604 418.22 319.462C420.2 320.32 421.861 315.931 420.057 315.161Z" fill="#263238"/>
<path d="M432.85 317.031C432.291 316.721 431.747 316.383 431.222 316.019C430.606 315.623 430.122 315.37 429.759 314.666C429.702 314.462 429.712 314.245 429.787 314.047C429.862 313.849 429.999 313.681 430.177 313.566C430.577 313.393 431.015 313.328 431.447 313.378C431.88 313.428 432.292 313.592 432.641 313.852C433.424 314.281 434.022 314.981 434.324 315.821C434.356 316.012 434.337 316.208 434.269 316.389C434.201 316.57 434.086 316.73 433.937 316.852C433.787 316.975 433.608 317.056 433.417 317.088C433.227 317.119 433.031 317.099 432.85 317.031Z" fill="#263238"/>
<path d="M419.1 312.158C419.735 312.238 420.374 312.286 421.014 312.301C421.682 312.442 422.377 312.361 422.994 312.07C423.171 311.943 423.301 311.76 423.363 311.551C423.425 311.342 423.415 311.118 423.335 310.915C423.114 310.531 422.792 310.214 422.404 309.999C422.017 309.784 421.578 309.679 421.135 309.694C420.25 309.565 419.35 309.777 418.616 310.288C418.472 310.423 418.366 310.594 418.311 310.784C418.256 310.974 418.253 311.175 418.303 311.367C418.352 311.558 418.453 311.732 418.593 311.872C418.733 312.011 418.908 312.11 419.1 312.158Z" fill="#263238"/>
<path d="M425.7 332.64C425.285 332.937 424.779 333.081 424.27 333.047C423.763 332.866 423.301 332.577 422.917 332.2C422.917 332.2 422.818 332.2 422.829 332.255C422.931 332.591 423.124 332.893 423.386 333.128C423.648 333.362 423.969 333.521 424.314 333.586C424.618 333.612 424.924 333.546 425.19 333.397C425.457 333.248 425.673 333.023 425.81 332.75C425.898 332.673 425.799 332.607 425.7 332.64Z" fill="#263238"/>
<path d="M425.7 328.042C425.167 328.468 424.552 328.779 423.893 328.955C423.234 329.131 422.546 329.169 421.872 329.065C421.283 328.981 420.709 328.815 420.167 328.57C420.059 328.53 419.956 328.478 419.859 328.416L419.584 328.273C419.516 328.235 419.462 328.175 419.43 328.104C419.399 328.033 419.391 327.953 419.408 327.877C419.423 327.826 419.445 327.778 419.474 327.734V327.624C419.804 326.524 420.453 324.984 420.453 324.984C420.002 325.05 417.736 325.259 417.956 324.72C419.696 320.007 421.907 315.481 424.556 311.212C424.575 311.187 424.602 311.169 424.633 311.162C424.663 311.155 424.695 311.159 424.723 311.174C424.751 311.188 424.773 311.212 424.784 311.242C424.796 311.271 424.797 311.303 424.787 311.333C423.203 315.733 420.86 319.759 419.199 324.115C420.009 324.032 420.828 324.061 421.63 324.203C421.762 324.291 420.321 327.217 420.211 327.701C420.214 327.719 420.214 327.738 420.211 327.756C421.047 328.136 421.951 328.344 422.87 328.369C423.788 328.393 424.702 328.233 425.557 327.899C425.7 327.8 425.821 327.965 425.7 328.042Z" fill="#263238"/>
<path d="M420.981 328.24C421.303 329.191 421.863 330.043 422.609 330.715C423.027 331.065 423.541 331.279 424.083 331.331C425.282 331.408 425.645 330.418 425.744 329.483C425.802 328.993 425.802 328.499 425.744 328.009C424.222 328.596 422.552 328.677 420.981 328.24Z" fill="#263238"/>
<path d="M422.609 330.715C423.027 331.064 423.541 331.279 424.083 331.331C425.282 331.408 425.645 330.418 425.744 329.483C425.159 329.308 424.532 329.334 423.964 329.557C423.395 329.781 422.918 330.188 422.609 330.715Z" fill="#FF9ABB"/>
<path d="M445.896 325.82C442.596 325.215 443.542 317.592 443.542 317.592C443.542 317.592 434.896 318.274 436.942 307.263C436.942 307.263 426.679 308.539 421.355 304.128C416.812 300.366 415.855 291.159 420.585 286.77C423.269 284.284 429.704 282.799 436.876 293.106C436.876 293.106 449.955 287.474 451.495 302.203C451.495 302.203 457.303 304.106 456.863 310.035C456.17 319.396 448.8 326.348 445.896 325.82Z" fill="#263238"/>
<path d="M437.085 306.493C437.09 306.482 437.097 306.472 437.106 306.464C437.115 306.456 437.125 306.45 437.136 306.446C437.148 306.442 437.16 306.44 437.171 306.441C437.183 306.441 437.195 306.444 437.206 306.449C437.217 306.454 437.227 306.461 437.235 306.47C437.243 306.479 437.249 306.489 437.253 306.5C437.257 306.512 437.259 306.524 437.258 306.535C437.258 306.547 437.255 306.559 437.25 306.57C436.205 309.144 435.105 311.949 436.788 314.534C437.545 315.758 438.681 316.701 440.024 317.219C441.366 317.737 442.841 317.802 444.224 317.405C444.389 317.35 444.488 317.614 444.312 317.658C442.961 318.054 441.523 318.041 440.18 317.62C438.837 317.199 437.649 316.389 436.766 315.293C434.588 312.598 435.435 309.21 437.085 306.493Z" fill="#263238"/>
<path d="M445.984 324.082C450.978 322.652 455.18 319.506 456.621 314.281C457.42 311.814 457.266 309.138 456.192 306.779C455.092 304.656 453.09 303.556 451.374 302.049C451.374 302.049 451.374 301.928 451.429 301.961C462.836 307.384 457.171 323.004 446.116 324.687C446.045 324.685 445.976 324.659 445.921 324.614C445.867 324.568 445.829 324.506 445.813 324.436C445.798 324.367 445.807 324.294 445.838 324.23C445.869 324.166 445.92 324.114 445.984 324.082Z" fill="#263238"/>
<path d="M419.034 286.561C425.469 280.445 434.434 287.221 437.107 293.722C434.511 288.717 428.153 283.03 422.18 285.395C414.964 288.255 415.294 300.366 422.455 302.995C422.664 303.072 422.554 303.446 422.323 303.38C415.591 301.488 414.26 291.104 419.034 286.561Z" fill="#263238"/>
<path d="M443.762 326.832C443.762 326.832 449.702 320.98 452.452 323.224C455.202 325.468 449.856 334.554 446.028 335.214C445.543 335.334 445.038 335.354 444.545 335.274C444.052 335.194 443.58 335.015 443.158 334.748C442.735 334.481 442.372 334.131 442.088 333.719C441.804 333.308 441.607 332.844 441.507 332.354L443.762 326.832Z" fill="#AD6359"/>
<path d="M450.857 325.787V325.886C448.151 326.436 446.402 328.526 445.027 330.77C445.22 330.546 445.459 330.367 445.728 330.244C445.996 330.121 446.288 330.058 446.584 330.058C446.879 330.058 447.171 330.121 447.439 330.244C447.708 330.367 447.947 330.546 448.14 330.77C448.151 330.783 448.158 330.8 448.158 330.817C448.159 330.834 448.154 330.851 448.144 330.865C448.133 330.879 448.119 330.889 448.102 330.894C448.086 330.899 448.068 330.897 448.052 330.891C447.635 330.67 447.159 330.584 446.691 330.643C446.223 330.702 445.784 330.904 445.434 331.221C444.86 331.756 444.344 332.35 443.894 332.992C443.729 333.201 443.344 332.992 443.476 332.761V332.706C444.037 329.494 447.359 325.479 450.857 325.787Z" fill="#263238"/>
<path d="M415.514 446.831H327.536V450.769H415.514V446.831Z" fill="#C7C7C7"/>
<path d="M327.536 446.831V450.769H387.343L384.329 446.831H327.536Z" fill="#A6A6A6"/>
<path d="M380.534 450.769H294.789L287.65 392.535H373.395L380.534 450.769Z" fill="#A6A6A6"/>
<path d="M376.585 450.769H290.829L283.69 392.535H369.446L376.585 450.769Z" fill="#C7C7C7"/>
<path d="M335.368 421.047C335.488 421.692 335.479 422.354 335.34 422.995C335.201 423.636 334.936 424.243 334.56 424.781C334.185 425.319 333.706 425.776 333.151 426.126C332.597 426.477 331.978 426.713 331.331 426.822C330 426.927 328.681 426.509 327.654 425.656C326.627 424.804 325.973 423.584 325.831 422.257C325.711 421.613 325.72 420.951 325.858 420.311C325.996 419.67 326.26 419.064 326.635 418.526C327.009 417.989 327.487 417.531 328.04 417.18C328.594 416.829 329.211 416.592 329.857 416.482C331.188 416.38 332.507 416.799 333.535 417.65C334.564 418.502 335.221 419.72 335.368 421.047Z" fill="white"/>
<path d="M109.131 440.759C109.131 440.759 127.941 436.491 138.248 426.998C148.555 417.505 154.319 400.477 154.319 400.477C147.171 401.837 140.123 403.674 133.221 405.977C130.64 408.635 128.487 411.678 126.841 414.997C126.681 412.851 126.681 410.697 126.841 408.551C124.429 409.589 122.175 410.959 120.142 412.621C111.54 420.2 109.131 440.759 109.131 440.759Z" fill="#407BFF"/>
<path d="M142.571 408.749C145.134 406.978 147.741 405.262 150.271 403.48C150.305 403.459 150.329 403.427 150.338 403.388C150.347 403.35 150.341 403.31 150.32 403.276C150.3 403.243 150.267 403.219 150.229 403.21C150.191 403.2 150.151 403.206 150.117 403.227C145.277 406.12 140.492 409.211 135.817 412.456C134.2 413.556 132.627 414.755 131.054 415.954L131.384 415.404C131.945 414.458 132.55 413.534 133.144 412.599C134.321 410.714 135.657 408.933 137.137 407.275C137.192 407.209 137.137 407.121 137.038 407.187C135.575 408.87 134.112 410.542 132.781 412.335C132.143 413.193 131.549 414.073 130.988 414.975C130.702 415.437 130.416 415.91 130.141 416.394L129.866 416.878C127.435 418.792 125.059 420.783 122.804 422.884C121.407 424.182 120.065 425.535 118.767 426.921C119.493 424.644 120.12 422.345 120.967 420.101C120.967 420.024 120.868 419.991 120.846 420.101C120.021 422.455 119.13 424.82 118.492 427.229C117.025 428.791 115.654 430.408 114.378 432.08L114.444 431.772C114.664 430.892 114.884 430.001 115.115 429.121C115.577 427.427 116.072 425.733 116.655 424.061C117.734 420.597 119.446 417.364 121.704 414.524C121.759 414.458 121.704 414.37 121.605 414.436C118.083 418.829 115.621 423.974 114.411 429.473C114.202 430.276 114.015 431.079 113.828 431.882C113.74 432.311 113.619 432.751 113.553 433.191C112.981 433.95 112.453 434.731 111.892 435.523C108.684 440.425 106.014 445.658 103.928 451.132C101.584 457.286 99.5717 463.561 97.9 469.931C97.9 470.052 98.054 470.096 98.098 469.931C101.772 458.931 105.534 447.766 111.826 437.921C113.157 435.847 114.592 433.843 116.127 431.915C119.285 431.726 122.404 431.116 125.4 430.1C128.631 429.024 131.713 427.546 134.574 425.7C136.198 424.595 137.766 423.409 139.271 422.147C139.284 422.135 139.292 422.119 139.293 422.101C139.294 422.084 139.288 422.067 139.276 422.053C139.265 422.04 139.248 422.032 139.231 422.031C139.213 422.03 139.196 422.036 139.183 422.048C136.562 424.168 133.664 425.922 130.57 427.262C127.527 428.658 124.345 429.728 121.077 430.452C119.691 430.749 118.283 430.98 116.875 431.167C118.6 429.023 120.436 426.971 122.375 425.018C123.013 424.391 123.662 423.786 124.322 423.17C126.512 421.632 128.839 420.299 131.274 419.188C134.354 417.692 137.39 416.119 140.437 414.568C142.164 413.688 143.869 412.797 145.607 411.95C145.673 411.95 145.607 411.807 145.541 411.84C142.45 413.336 139.304 414.722 136.18 416.152C133.243 417.505 130.273 418.858 127.457 420.431L127.105 420.651C129.646 418.451 132.286 416.317 134.992 414.282C137.471 412.361 139.997 410.516 142.571 408.749Z" fill="#263238"/>
<path d="M141.504 418.451C139.975 419.122 138.413 419.716 136.895 420.42C135.377 421.124 133.87 422.004 132.385 422.873C132.319 422.873 132.385 423.005 132.451 422.972C133.947 422.257 135.465 421.586 136.95 420.838C138.435 420.09 139.975 419.254 141.537 418.572C141.614 418.539 141.581 418.418 141.504 418.451Z" fill="#263238"/>
<path d="M48.026 345.972C51.5005 350.455 53.468 355.923 53.647 361.592C53.647 363.275 53.438 365.629 53.24 368.39C57.9357 371.113 62.0957 374.669 65.516 378.884C61.7641 376.7 57.4531 375.667 53.119 375.914C53.2116 377.803 53.4506 379.683 53.834 381.535C56.5692 381.537 59.2778 382.072 61.809 383.108C59.3381 383.084 56.8889 383.571 54.615 384.538C57.97 395.208 67.936 406.164 95.458 410.817C98.3797 397.736 96.6567 384.046 90.585 372.097C82.335 355.872 48.026 345.972 48.026 345.972Z" fill="#407BFF"/>
<path d="M104.984 456.5C104.511 451.946 103.884 447.392 103.202 442.871C101.827 433.804 99.9914 424.812 97.702 415.932C96.6276 411.763 95.3015 407.664 93.731 403.656C93.8111 402.925 93.8478 402.191 93.841 401.456C93.841 400.576 93.841 399.696 93.841 398.816C93.841 397.056 93.731 395.296 93.588 393.536C93.3098 390.056 92.7432 386.604 91.894 383.218C91.388 381.26 90.794 379.324 90.233 377.388C90.2279 377.376 90.2194 377.366 90.2087 377.359C90.1979 377.352 90.1853 377.348 90.1725 377.348C90.1596 377.348 90.1471 377.352 90.1363 377.359C90.1256 377.366 90.1171 377.376 90.112 377.388C91.0229 380.773 91.6992 384.217 92.136 387.695C92.629 391.119 92.941 394.567 93.071 398.024C93.071 398.97 93.071 399.916 93.071 400.862C93.071 401.258 93.071 401.665 93.071 402.072C91.7216 398.784 90.1751 395.581 88.44 392.48C85.6365 387.563 82.4785 382.857 78.991 378.4C78.975 377.883 78.8975 377.37 78.76 376.871L78.364 375.023C78.078 373.769 77.759 372.515 77.418 371.272C76.736 368.775 75.834 366.366 75.053 363.902C75.053 363.825 74.91 363.902 74.932 363.902C75.658 366.333 76.142 368.863 76.703 371.349C76.978 372.57 77.242 373.802 77.517 375.034C77.649 375.639 77.781 376.255 77.902 376.871V377.014C76.802 375.606 75.702 374.22 74.492 372.856C69.234 366.696 63.492 361.009 57.673 355.366C56.958 354.673 56.232 354.002 55.473 353.309C55.418 353.254 55.33 353.309 55.385 353.408C60.885 359.194 66.385 365.035 71.555 371.162C72.787 372.614 73.986 374.088 75.174 375.562L73.304 374.319C71.698 373.274 70.081 372.251 68.409 371.316C66.737 370.381 65.109 369.468 63.338 368.621C61.567 367.774 59.686 367.037 57.981 366.036C57.915 366.036 57.849 366.124 57.926 366.157C59.6637 366.961 61.3401 367.891 62.942 368.94C64.625 369.93 66.242 370.931 67.936 371.976C69.63 373.021 71.181 374.011 72.787 375.056C74.129 375.925 75.449 376.871 76.835 377.674C80.0234 381.772 82.9621 386.059 85.635 390.511C87.3033 393.313 88.827 396.199 90.2 399.157L89.21 398.728L86.691 397.628L81.818 395.505C78.738 394.163 75.603 392.931 72.567 391.457C70.8592 390.655 69.209 389.736 67.628 388.707C67.562 388.707 67.507 388.773 67.628 388.828C73.271 392.711 79.596 395.428 85.844 398.222L88.55 399.41C89.287 399.74 90.035 400.114 90.75 400.4C92.5953 404.536 94.1501 408.796 95.403 413.149C97.8637 421.915 99.8611 430.804 101.387 439.78C102.971 448.767 104.038 457.82 104.863 466.906C104.962 468.006 105.061 469.172 105.193 470.305C105.208 470.389 105.252 470.465 105.317 470.52C105.383 470.575 105.465 470.605 105.551 470.605C105.636 470.605 105.718 470.575 105.784 470.52C105.849 470.465 105.893 470.389 105.908 470.305C105.941 465.674 105.468 461.054 104.984 456.5Z" fill="#263238"/>
<path d="M88.242 380.468C87.736 377.663 86.988 374.968 86.24 372.185C86.24 372.108 86.097 372.185 86.119 372.185C86.812 374.869 87.307 377.608 87.813 380.347C88.319 383.086 88.781 385.913 89.177 388.718H89.254C89.0697 385.951 88.7318 383.197 88.242 380.468Z" fill="#263238"/>
<path d="M76.384 388.047C74.469 386.789 72.4696 385.664 70.4 384.681C69.388 384.164 68.376 383.669 67.364 383.174C66.352 382.679 65.164 382.25 64.185 381.722C64.169 381.713 64.1501 381.711 64.1326 381.716C64.115 381.722 64.1003 381.734 64.0915 381.75C64.0827 381.766 64.0807 381.784 64.0859 381.802C64.091 381.82 64.103 381.834 64.119 381.843C65.131 382.338 66.088 382.943 67.078 383.493C68.068 384.043 69.102 384.593 70.125 385.165C72.138 386.265 74.118 387.442 76.23 388.322C76.2665 388.342 76.3096 388.348 76.3498 388.336C76.39 388.325 76.4241 388.298 76.4445 388.262C76.4649 388.225 76.47 388.182 76.4587 388.142C76.4473 388.102 76.4205 388.067 76.384 388.047Z" fill="#263238"/>
<path opacity="0.1" d="M109.472 408.177C109.472 408.177 126.874 404.019 134.871 392.348C142.494 381.194 144.969 362.186 145.156 360.514C144.848 362.043 141.251 378.664 129.404 386.397C120.329 392.326 111.562 397.199 109.472 408.177Z" fill="#263238"/>
<path d="M125.532 378.103C122.44 380.951 120.216 384.616 119.119 388.674C120.394 384.709 122.605 381.11 125.565 378.18C125.675 378.147 125.587 378.048 125.532 378.103Z" fill="#263238"/>
<path d="M109.472 408.177C109.472 408.177 126.874 404.019 134.871 392.348C142.494 381.194 144.969 362.186 145.156 360.514C145.161 360.474 145.161 360.433 145.156 360.393C145.156 360.393 136.818 372.262 128.04 375.287C119.262 378.312 106.953 388.784 109.472 408.177Z" fill="#407BFF"/>
<path d="M142.098 366.938C140.535 370.136 138.738 373.213 136.719 376.145C134.686 378.92 132.276 381.397 129.558 383.504C127.193 385.385 124.696 387.09 122.298 388.927C122.3 388.898 122.3 388.868 122.298 388.839C122.745 388.179 123.218 387.53 123.717 386.892C124.718 385.616 125.807 384.417 126.907 383.229C129.107 380.886 131.307 378.587 133.21 376.046C134.292 374.645 135.228 373.138 136.004 371.547C136.004 371.47 135.916 371.437 135.883 371.547C133.056 377.432 127.424 381.194 123.398 386.166C122.822 386.869 122.286 387.603 121.792 388.366C121.388 388.914 121.052 389.509 120.791 390.137C118.586 391.899 116.592 393.91 114.851 396.132C115.004 394.992 115.235 393.863 115.544 392.755C115.954 391.21 116.575 389.729 117.392 388.355C117.392 388.289 117.326 388.223 117.282 388.289C116.438 389.672 115.759 391.149 115.258 392.689C114.894 393.912 114.679 395.176 114.62 396.451C113.763 397.618 112.98 398.837 112.277 400.103C112.343 399.729 112.42 399.366 112.486 399.003C112.838 397.265 113.223 395.538 113.663 393.822C114.481 390.337 115.899 387.02 117.854 384.021C117.861 384.014 117.866 384.005 117.87 383.996C117.873 383.986 117.874 383.976 117.872 383.966C117.871 383.956 117.868 383.947 117.862 383.939C117.857 383.93 117.85 383.923 117.841 383.918C117.832 383.913 117.823 383.91 117.813 383.909C117.803 383.908 117.793 383.909 117.784 383.913C117.774 383.917 117.766 383.922 117.759 383.929C117.752 383.937 117.747 383.945 117.744 383.955C115.743 386.911 114.183 390.142 113.113 393.547C112.552 395.252 112.112 396.99 111.716 398.739C111.529 399.597 111.353 400.455 111.188 401.324C111.111 401.764 111.012 402.215 110.935 402.677C109.213 406.47 107.868 410.424 106.92 414.48C105.213 421.726 103.975 429.075 103.213 436.48C102.33 444.221 101.944 452.01 102.058 459.8C102.058 460.779 102.135 461.758 102.179 462.726C102.179 462.979 102.575 463.023 102.586 462.726C102.762 458.865 102.861 455.026 103.092 451.132C103.323 447.238 103.653 443.432 104.06 439.571C104.857 432.008 106.068 424.495 107.69 417.065C109.098 410.707 110.935 404.305 114.411 398.728C116.138 395.952 118.253 393.437 120.692 391.259C123.134 389.059 125.796 387.145 128.392 385.121C130.996 383.142 133.362 380.868 135.443 378.345C137.56 375.532 139.402 372.523 140.943 369.358C141.35 368.566 141.779 367.785 142.197 367.004C142.241 366.938 142.131 366.872 142.098 366.938Z" fill="#263238"/>
<path d="M139.095 369.49C137.949 371.834 136.652 374.101 135.212 376.277C135.212 376.277 135.212 376.376 135.289 376.332C136.781 374.177 138.095 371.903 139.216 369.534C139.249 369.457 139.128 369.424 139.095 369.49Z" fill="#263238"/>
<path d="M45.595 400.477C45.595 400.477 45.32 425.216 60.115 432.377C74.91 439.538 82.83 433.565 92.884 435.963C92.488 435.369 85.316 425.062 73.909 422.224C62.161 419.265 49.159 410.784 45.595 400.477Z" fill="#407BFF"/>
<path opacity="0.1" d="M45.595 400.477C45.595 400.477 45.32 425.216 60.115 432.377C74.91 439.538 82.83 433.565 92.884 435.963C87.574 433.434 81.8976 431.76 76.065 431.002C66.726 429.847 48.906 423.764 45.595 400.477Z" fill="black"/>
<path d="M93.852 436.381C92.104 434.778 90.1328 433.437 88 432.399C87.681 432.245 87.362 432.124 87.032 431.981C86.8788 431.784 86.7135 431.597 86.537 431.42C86.097 430.958 85.635 430.507 85.151 430.089C84.21 429.275 83.2017 428.543 82.137 427.9C79.695 426.459 77.011 425.458 74.503 424.116C74.426 424.116 74.36 424.193 74.437 424.226C75.68 424.875 76.879 425.579 78.078 426.283C79.277 426.987 80.454 427.625 81.587 428.362C82.6154 429.022 83.5934 429.757 84.513 430.562C84.777 430.793 85.03 431.035 85.283 431.288C83.652 430.747 81.9875 430.314 80.3 429.99C77.594 429.451 74.8 429.055 72.149 428.483C70.826 428.182 69.519 427.815 68.233 427.383C67.001 426.393 65.78 425.414 64.614 424.336C63.2032 423.085 61.9175 421.7 60.775 420.2C60.775 420.134 60.61 420.2 60.665 420.266C62.458 422.691 64.4884 424.932 66.726 426.954C66.088 426.712 65.461 426.459 64.834 426.173C59.7567 423.89 55.3983 420.266 52.228 415.69C52.228 415.624 52.074 415.69 52.118 415.756C54.8132 419.681 58.2834 423.013 62.315 425.546C64.3398 426.805 66.5027 427.828 68.761 428.593C71.384 429.406 74.0596 430.038 76.769 430.485C79.4188 430.907 82.0359 431.513 84.601 432.3C86.97 433.099 89.1976 434.269 91.201 435.765C94.9447 438.703 97.9568 442.468 100.001 446.765C102.649 452.47 104.301 458.586 104.885 464.849C104.885 465.113 105.325 465.113 105.303 464.849C104.643 454.421 101.871 443.597 93.852 436.381Z" fill="#263238"/>
<path d="M76.692 428.318C75.9347 427.167 74.9075 426.22 73.7 425.557C72.2948 424.833 71.0637 423.812 70.092 422.565C70.037 422.499 69.927 422.565 69.982 422.631C70.865 423.768 71.9456 424.737 73.172 425.491C74.515 426.205 75.6979 427.185 76.648 428.373C76.637 428.428 76.725 428.373 76.692 428.318Z" fill="#263238"/>
<path d="M84.535 454.641L85.206 468.237L87.274 509.795H118.294L120.362 468.237L121.033 454.641H84.535Z" fill="#455A64"/>
<path d="M84.535 454.641L85.206 468.237H120.362L121.033 454.641H84.535Z" fill="#263238"/>
<path d="M82.368 461.934H123.211V448.954H82.368V461.934Z" fill="#455A64"/>
</svg>
