<svg width="536" height="539" viewBox="0 0 536 539" fill="none" xmlns="http://www.w3.org/2000/svg">
<path d="M105.811 259.019L105.762 261.174L237.327 264.2L237.376 262.044L105.811 259.019Z" fill="#EBEBEB"/>
<path d="M294.019 262.455L292.332 263.786L371.48 365.256L373.167 363.925L294.019 262.455Z" fill="#EBEBEB"/>
<path d="M163.251 96.995L161.46 98.1803L246.937 228.786L248.728 227.601L163.251 96.995Z" fill="#EBEBEB"/>
<path d="M240.064 288.577L105.1 408.652L106.521 410.266L241.485 290.192L240.064 288.577Z" fill="#EBEBEB"/>
<path d="M454.71 259.022H329.286V261.178H454.71V259.022Z" fill="#EBEBEB"/>
<path d="M182.828 96.5611C186.366 81.6613 177.222 66.6984 162.406 63.1406C147.589 59.5827 132.709 68.7771 129.171 83.6769C125.633 98.5767 134.776 113.54 149.593 117.097C164.41 120.655 179.289 111.461 182.828 96.5611Z" fill="#EBEBEB"/>
<path d="M147.679 86.1106C147.677 87.8381 148.184 89.5273 149.137 90.9647C150.09 92.4021 151.445 93.5229 153.032 94.1855C154.618 94.848 156.364 95.0225 158.049 94.6868C159.734 94.3511 161.283 93.5203 162.498 92.2995C163.714 91.0788 164.542 89.523 164.877 87.8289C165.213 86.1348 165.042 84.3786 164.385 82.7824C163.728 81.1862 162.615 79.8219 161.187 78.8619C159.759 77.902 158.08 77.3896 156.362 77.3896C154.061 77.3896 151.854 78.3081 150.226 79.9433C148.598 81.5785 147.682 83.7967 147.679 86.1106Z" fill="white"/>
<path d="M141.365 110.182V113.783C143.902 115.374 146.679 116.543 149.587 117.243C153.261 118.157 157.079 118.32 160.817 117.724C164.555 117.128 168.136 115.784 171.348 113.772V110.182C171.348 106.18 169.767 102.341 166.953 99.5107C164.138 96.6804 160.321 95.0904 156.34 95.0904C152.36 95.0904 148.543 96.6804 145.728 99.5107C142.914 102.341 141.332 106.18 141.332 110.182H141.365Z" fill="white"/>
<path d="M462.3 289.518C472.216 278.059 481.499 265.49 480.149 251.638C479.248 242.647 473.084 233.721 462.3 233.721C451.516 233.721 445.33 242.647 444.43 251.638C443.058 265.49 452.384 278.059 462.3 289.518ZM452.491 251.788C452.491 249.843 453.065 247.941 454.139 246.323C455.214 244.705 456.741 243.443 458.528 242.698C460.315 241.952 462.282 241.756 464.18 242.134C466.078 242.512 467.822 243.447 469.192 244.821C470.561 246.196 471.495 247.947 471.875 249.855C472.255 251.763 472.064 253.741 471.327 255.54C470.59 257.339 469.338 258.877 467.732 259.961C466.125 261.045 464.235 261.626 462.3 261.631C461.011 261.635 459.733 261.383 458.541 260.888C457.349 260.394 456.266 259.668 455.355 258.751C454.443 257.834 453.721 256.745 453.229 255.547C452.738 254.348 452.487 253.063 452.491 251.767V251.788Z" fill="#EBEBEB"/>
<path d="M428.8 380.135C431.519 387.158 433.115 394.569 433.527 402.094H452.888V401.555L452.727 400.057C452.485 397.474 452.058 394.913 451.451 392.392C450.45 388.251 449.013 384.229 447.163 380.394C447.128 380.3 447.062 380.222 446.976 380.171C446.891 380.12 446.79 380.1 446.692 380.114H428.8V380.135Z" fill="#EBEBEB"/>
<path d="M429.325 429.238H447.11C447.205 429.25 447.302 429.227 447.382 429.173C447.463 429.12 447.522 429.04 447.549 428.947C450.588 422.553 452.382 415.634 452.834 408.562C452.847 408.482 452.865 408.403 452.888 408.325V407.786H452.598H433.86C433.517 407.786 433.538 407.786 433.506 408.142C433.388 409.705 433.292 411.268 433.142 412.831C432.884 415.306 432.487 417.764 431.952 420.194C431.303 423.165 430.458 426.089 429.422 428.947L429.325 429.238Z" fill="#EBEBEB"/>
<path d="M354.521 434.908L354.671 435.167C356.183 437.487 357.871 439.685 359.72 441.743C361.942 444.274 364.417 446.568 367.106 448.588C372.288 452.545 378.155 455.502 384.408 457.309C386.838 458.012 389.313 458.545 391.816 458.905L392.545 459.023H392.974L393.392 458.754L392.92 458.419C387.494 454.706 382.747 450.078 378.888 444.74C376.705 441.727 374.79 438.527 373.163 435.178C373.13 435.087 373.068 435.01 372.986 434.959C372.905 434.909 372.808 434.887 372.713 434.897H354.489L354.521 434.908Z" fill="#EBEBEB"/>
<path d="M372.316 402.094H397.304V380.146H377.794C377.709 380.133 377.623 380.152 377.551 380.2C377.48 380.248 377.429 380.321 377.408 380.405C375.615 384.531 374.282 388.844 373.431 393.265C372.986 395.571 372.664 397.899 372.466 400.24C372.423 400.844 372.37 401.458 372.316 402.094Z" fill="#EBEBEB"/>
<path d="M372.466 407.958C372.466 408.476 372.466 409.036 372.541 409.511C372.649 410.74 372.734 411.958 372.906 413.176C373.142 414.858 373.399 416.539 373.731 418.21C374.469 421.875 375.545 425.462 376.947 428.925C376.973 429.026 377.033 429.114 377.118 429.174C377.202 429.233 377.306 429.26 377.408 429.249H397.433V407.958H372.466Z" fill="#EBEBEB"/>
<path d="M402.932 380.275V402.266H427.331C427.331 401.706 427.278 401.188 427.224 400.617C427.095 399.388 426.999 398.159 426.806 396.941C426.506 395.076 426.195 393.211 425.798 391.368C424.977 387.667 423.796 384.056 422.271 380.588C422.243 380.502 422.185 380.428 422.109 380.379C422.033 380.33 421.943 380.309 421.853 380.318H402.932V380.275Z" fill="#EBEBEB"/>
<path d="M402.911 408.249V429.238H422.368C422.462 429.247 422.556 429.223 422.634 429.17C422.712 429.117 422.77 429.038 422.797 428.947C424.277 425.376 425.39 421.663 426.12 417.865C426.484 415.914 426.763 413.941 427.01 411.968C427.17 410.686 427.203 409.381 427.288 408.077C427.294 408.034 427.294 407.99 427.288 407.948H403.222C402.965 407.937 402.911 408.012 402.911 408.249Z" fill="#EBEBEB"/>
<path d="M345.827 402.256H366.291C366.711 394.674 368.325 387.208 371.072 380.135H351.98C351.887 380.122 351.793 380.142 351.713 380.191C351.633 380.24 351.572 380.316 351.541 380.405C349.352 384.756 347.765 389.387 346.824 394.171C346.32 396.718 345.987 399.297 345.827 401.889C345.816 402.008 345.827 402.094 345.827 402.256Z" fill="#EBEBEB"/>
<path d="M345.806 407.797C345.806 408.293 345.806 408.767 345.87 409.241C346.009 411.095 346.224 412.949 346.545 414.782C347.302 419.04 348.565 423.192 350.308 427.147C350.587 427.783 350.887 428.408 351.176 429.044C351.196 429.107 351.237 429.16 351.292 429.196C351.346 429.231 351.412 429.246 351.477 429.238H370.494L369.818 427.298C367.928 421.64 366.782 415.758 366.41 409.802C366.41 409.209 366.334 408.616 366.313 408.023C366.313 407.872 366.313 407.797 366.099 407.807H345.806V407.797Z" fill="#EBEBEB"/>
<path d="M355.078 374.53C355.08 374.558 355.08 374.587 355.078 374.616H373.302C373.392 374.627 373.483 374.607 373.561 374.56C373.639 374.514 373.699 374.442 373.731 374.357C376.113 369.583 379.096 365.137 382.607 361.13C384.682 358.818 386.965 356.704 389.425 354.813C390.647 353.864 391.923 352.98 393.167 352.075L393.37 351.913L393.124 351.741C393.124 351.633 393.199 351.514 393.242 351.353C385.598 352.237 378.234 354.765 371.649 358.766C365.063 362.768 359.412 368.147 355.078 374.54V374.53Z" fill="#EBEBEB"/>
<path d="M406.406 458.775C406.573 458.823 406.746 458.852 406.92 458.861C408.874 458.598 410.811 458.216 412.72 457.719C420.442 455.744 427.616 452.028 433.699 446.853C436.01 444.917 438.141 442.773 440.067 440.449C441.509 438.694 442.838 436.847 444.044 434.919L444.129 434.747H427.203C427.112 434.74 427.021 434.763 426.945 434.814C426.87 434.865 426.813 434.94 426.784 435.027C425.05 438.554 422.998 441.913 420.653 445.063C418.491 447.931 416.088 450.608 413.47 453.062C411.32 455.112 409.007 456.983 406.556 458.657L406.406 458.775Z" fill="#EBEBEB"/>
<path d="M406.631 351.881C407.381 352.441 408.282 353.077 409.15 353.746C412.061 356.016 414.766 358.541 417.233 361.292C420.568 364.961 423.418 369.048 425.713 373.451C425.852 373.732 425.981 374.023 426.141 374.292C426.171 374.335 426.209 374.372 426.254 374.4C426.298 374.427 426.347 374.446 426.399 374.454C426.699 374.454 426.999 374.454 427.31 374.454H443.604C434.524 361.518 422.336 353.799 406.813 351.439L406.92 351.643L406.631 351.881Z" fill="#EBEBEB"/>
<path d="M379.777 434.919C382.084 438.983 384.866 442.754 388.064 446.152C390.883 449.192 394.045 451.891 397.487 454.194V434.919H379.777Z" fill="#EBEBEB"/>
<path d="M402.943 434.93V453.838C409.99 448.962 415.799 442.489 419.902 434.941L402.943 434.93Z" fill="#EBEBEB"/>
<path d="M380.324 374.454H397.294V356.451C393.813 358.732 390.617 361.424 387.775 364.472C384.955 367.531 382.458 370.877 380.324 374.454Z" fill="#EBEBEB"/>
<path d="M402.932 357.012V374.605H419.227C415.244 367.536 409.662 361.509 402.932 357.012Z" fill="#EBEBEB"/>
<path d="M55.7225 292.106H116.355L116.355 231.134H55.7225L55.7225 292.106Z" fill="#EBEBEB"/>
<path d="M58.6813 289.12H113.385V234.109H58.6813L58.6813 289.12Z" fill="#DBDBDB"/>
<path d="M67.5359 247.239C67.3203 248.33 67.4593 249.462 67.9323 250.468C68.4054 251.473 69.1874 252.299 70.163 252.823C71.1386 253.347 72.2559 253.542 73.3501 253.379C74.4443 253.216 75.4572 252.703 76.2394 251.917C77.0216 251.13 77.5315 250.111 77.6938 249.011C77.8562 247.911 77.6623 246.787 77.141 245.806C76.6196 244.825 75.7983 244.039 74.7984 243.563C73.7986 243.087 72.673 242.948 71.5881 243.164C70.5882 243.366 69.6699 243.86 68.9488 244.585C68.2277 245.31 67.7361 246.234 67.5359 247.239Z" fill="#C7C7C7"/>
<path d="M73.8608 274.847H113.396L93.6285 252.554L73.8608 274.847Z" fill="#C7C7C7"/>
<path d="M58.692 274.847H91.3236L75.0078 260.326L58.692 274.847Z" fill="#A6A6A6"/>
<path d="M113.396 274.847H58.692V289.12H113.396V274.847Z" fill="#A6A6A6"/>
<path d="M152.224 395.626V447.37H145.792V460.231L133.175 447.37H64.3199V395.626H152.224Z" fill="white"/>
<path d="M152.224 395.626C152.342 411.246 152.835 432.569 152.867 448.006H152.224H145.792L146.489 447.305L146.585 460.166V462.106L145.213 460.726L132.521 448.017L133.175 448.286C112.453 448.286 83.7017 448.502 63.2694 448.416V447.338L63.4088 395.594V394.667C85.7921 394.839 129.873 395.27 152.224 395.594V395.626ZM152.224 395.626C130.312 395.949 86.2209 396.381 64.32 396.542L65.2312 395.626L65.392 447.37L64.32 446.292C84.3556 446.292 113.235 446.389 133.56 446.432L133.828 446.702L146.36 459.638L144.999 460.198L145.095 447.338V446.637C145.513 446.637 151.656 446.637 152.213 446.637L151.57 447.284C151.709 432.397 151.999 410.632 152.213 395.54L152.224 395.626Z" fill="#EBEBEB"/>
<path d="M92.0633 421.757C92.0654 422.591 91.8214 423.407 91.3621 424.101C90.9029 424.796 90.249 425.338 89.4833 425.659C88.7176 425.979 87.8745 426.064 87.0607 425.903C86.2469 425.741 85.499 425.341 84.9118 424.752C84.3245 424.163 83.9242 423.412 83.7616 422.594C83.599 421.776 83.6814 420.928 83.9983 420.157C84.3153 419.386 84.8525 418.727 85.542 418.264C86.2315 417.8 87.0423 417.552 87.8718 417.552C88.9816 417.552 90.0461 417.995 90.8319 418.783C91.6176 419.571 92.0605 420.641 92.0633 421.757Z" fill="#EBEBEB"/>
<path d="M112.935 421.757C112.935 422.588 112.69 423.401 112.231 424.092C111.771 424.784 111.118 425.323 110.354 425.641C109.59 425.959 108.75 426.042 107.939 425.88C107.128 425.718 106.383 425.317 105.798 424.73C105.213 424.142 104.815 423.392 104.654 422.577C104.493 421.761 104.575 420.916 104.892 420.148C105.208 419.38 105.744 418.723 106.432 418.261C107.119 417.799 107.928 417.552 108.754 417.552C109.862 417.555 110.924 417.999 111.708 418.787C112.491 419.575 112.932 420.643 112.935 421.757Z" fill="#EBEBEB"/>
<path d="M133.818 421.757C133.82 422.591 133.576 423.408 133.116 424.102C132.656 424.797 132.002 425.339 131.235 425.66C130.469 425.98 129.625 426.064 128.811 425.902C127.997 425.74 127.249 425.338 126.662 424.748C126.076 424.158 125.676 423.406 125.515 422.587C125.353 421.769 125.437 420.92 125.756 420.15C126.074 419.379 126.613 418.721 127.304 418.258C127.995 417.796 128.807 417.55 129.637 417.553C130.745 417.555 131.807 417.999 132.59 418.787C133.374 419.575 133.815 420.643 133.818 421.757Z" fill="#EBEBEB"/>
<path d="M314.56 295.828C334.177 276.101 334.177 244.116 314.56 224.389C294.942 204.661 263.136 204.661 243.518 224.389C223.901 244.116 223.901 276.101 243.518 295.828C263.136 315.555 294.942 315.555 314.56 295.828Z" fill="#EBEBEB"/>
<path d="M487.524 394.71C474.242 412.799 460.392 433.798 457.015 456.49C457.007 456.529 457.007 456.569 457.015 456.608C457.023 456.647 457.038 456.684 457.06 456.717C457.082 456.75 457.11 456.778 457.143 456.8C457.175 456.822 457.212 456.838 457.251 456.846C457.29 456.853 457.33 456.853 457.368 456.846C457.407 456.838 457.444 456.823 457.477 456.801C457.51 456.779 457.538 456.75 457.56 456.717C457.582 456.684 457.597 456.647 457.605 456.608C459.137 450.419 461.1 444.346 463.479 438.433C472.216 436.019 480.781 434.035 485.369 425.314C490.054 416.356 489.454 404.67 488.586 394.904C488.51 394.386 487.76 394.354 487.524 394.71Z" fill="#90CAF9"/>
<path d="M463.608 438.272C469.579 424.797 477.244 411.322 486.977 400.197C487.042 400.121 487.149 400.197 487.085 400.304C480.706 408.195 475.861 416.787 471.133 425.53C475.528 421.034 480.352 417.014 484.523 412.249C484.598 412.152 484.726 412.249 484.651 412.389C480.513 417.38 476 422.802 470.608 426.5C469.179 429.188 467.717 431.876 466.223 434.563C466.588 434.359 466.963 434.175 467.295 433.992C467.36 433.992 467.424 434.057 467.36 434.089C466.942 434.305 466.534 434.52 466.116 434.703C465.419 435.976 464.723 437.248 463.972 438.52C463.876 438.8 463.479 438.552 463.608 438.272Z" fill="#263238"/>
<path d="M468.046 433.572C471.618 431.558 475.03 429.27 478.251 426.726C478.337 426.651 478.466 426.726 478.369 426.845C475.257 429.556 471.843 431.896 468.196 433.82C468.025 433.906 467.885 433.658 468.046 433.572Z" fill="#263238"/>
<path d="M455.482 453.116C455.494 453.171 455.524 453.221 455.568 453.257C455.612 453.293 455.667 453.312 455.723 453.312C455.78 453.312 455.835 453.293 455.878 453.257C455.922 453.221 455.953 453.171 455.964 453.116C456.029 445.645 455.964 438.142 456.082 430.629C457.991 426.769 462.075 424.635 464.916 421.53C466.957 419.27 468.734 416.782 470.211 414.114C473.635 407.724 475.729 400.7 476.365 393.47C477.147 385.471 474.135 359.093 470.779 360.052C469.043 360.526 463.415 373.592 461.925 377.914C459.52 385.027 457.762 392.344 456.672 399.776C453.928 417.369 454.153 435.426 455.482 453.116Z" fill="#90CAF9"/>
<path d="M455.429 420.884C455.836 411.429 457.948 401.878 459.931 392.715C462.075 382.83 464.573 373.527 469.579 364.687C469.601 364.662 469.632 364.645 469.665 364.639C469.699 364.633 469.733 364.638 469.763 364.654C469.793 364.671 469.816 364.697 469.83 364.728C469.843 364.76 469.845 364.795 469.836 364.828C466.461 371.682 463.851 378.891 462.053 386.323C462.386 385.784 462.793 385.245 463.125 384.781C463.265 384.577 463.597 384.781 463.458 384.975C463.005 385.775 462.474 386.526 461.871 387.218C461.871 387.218 461.871 387.218 461.807 387.218C460.07 394.279 458.816 401.512 457.755 408.713C457.828 408.615 457.906 408.521 457.991 408.433C458.044 408.433 458.141 408.433 458.098 408.519C457.969 408.756 457.819 408.993 457.669 409.23C457.133 412.896 456.597 416.539 456.136 420.161C462.568 414.588 468.142 408.034 471.262 399.949C471.262 399.949 471.337 399.949 471.316 399.949C468.26 408.325 463.447 415.785 456.029 420.873C455.889 421.843 455.761 422.824 455.621 423.794C455.621 423.988 455.278 423.934 455.278 423.74C455.278 422.878 455.278 422.015 455.353 421.153C455.34 421.131 455.332 421.106 455.328 421.08C455.325 421.054 455.327 421.027 455.334 421.002C455.341 420.977 455.353 420.954 455.369 420.933C455.385 420.913 455.406 420.896 455.429 420.884Z" fill="#263238"/>
<path d="M458.473 407.182C463.426 399.755 468.046 392.543 471.669 384.329C471.669 384.242 471.862 384.329 471.83 384.404C468.775 392.554 464.508 400.822 458.72 407.376C458.691 407.399 458.656 407.412 458.62 407.412C458.584 407.412 458.548 407.4 458.52 407.377C458.491 407.355 458.471 407.323 458.463 407.288C458.454 407.253 458.458 407.215 458.473 407.182Z" fill="#263238"/>
<path d="M465.055 382.496C467.103 378.852 469.268 375.306 471.198 371.587C471.251 371.479 471.391 371.587 471.348 371.673C469.764 375.556 467.758 379.251 465.366 382.69C465.34 382.731 465.299 382.761 465.252 382.772C465.205 382.783 465.155 382.775 465.114 382.749C465.073 382.724 465.043 382.682 465.032 382.635C465.021 382.587 465.03 382.537 465.055 382.496Z" fill="#263238"/>
<path d="M450.444 431.513C450.348 436.462 449.77 441.391 448.718 446.227C448.793 446.766 448.868 447.305 448.943 447.844C450.457 442.499 451.335 436.991 451.559 431.437C451.604 431.359 451.627 431.269 451.627 431.178C451.627 431.088 451.604 430.998 451.559 430.92C451.773 423.47 451.224 416.017 449.918 408.681C447.624 394.947 442.597 381.731 433.067 371.479C432.988 371.406 432.894 371.353 432.791 371.324C432.688 371.295 432.58 371.291 432.476 371.312C432.371 371.333 432.273 371.378 432.19 371.445C432.106 371.511 432.039 371.597 431.995 371.694C428.146 381.526 429.486 393.254 432.766 403.053C434.531 408.358 437.059 413.373 440.27 417.941C443.626 422.576 447.796 426.468 450.444 431.513Z" fill="#90CAF9"/>
<path d="M434.214 376.06C443.24 390.797 449.522 408.26 450.294 425.648C450.294 425.95 449.79 426.036 449.747 425.724C449.533 424.15 449.297 422.608 449.05 421.067C445.32 417.466 441.482 413.672 438.813 409.209C438.808 409.192 438.808 409.174 438.813 409.157C438.819 409.14 438.829 409.126 438.843 409.115C438.857 409.105 438.874 409.099 438.892 409.098C438.909 409.097 438.926 409.102 438.941 409.112C442.039 412.937 445.361 416.572 448.889 420C448.235 416.151 447.474 412.367 446.563 408.637L445.856 407.797C445.695 407.613 445.952 407.344 446.124 407.527L446.338 407.764C445.069 402.643 443.494 397.603 441.621 392.672C439.316 389.923 436.754 387.541 435.082 384.221C435.072 384.214 435.064 384.204 435.059 384.193C435.053 384.182 435.051 384.17 435.051 384.157C435.052 384.145 435.055 384.133 435.061 384.122C435.067 384.112 435.076 384.103 435.086 384.096C435.096 384.09 435.108 384.086 435.12 384.085C435.132 384.084 435.145 384.086 435.156 384.091C435.167 384.095 435.177 384.103 435.185 384.112C435.192 384.122 435.198 384.133 435.2 384.145C436.54 386.043 437.848 387.951 439.37 389.719C439.981 390.419 440.646 391.077 441.278 391.756C439.19 386.403 436.714 381.211 433.871 376.222C433.868 376.181 433.878 376.14 433.899 376.105C433.92 376.07 433.95 376.041 433.987 376.024C434.024 376.006 434.066 376.001 434.106 376.007C434.146 376.014 434.184 376.032 434.214 376.06Z" fill="#263238"/>
<path d="M436.036 394.235C438.963 398.181 442.286 401.954 444.998 406.093C445.073 406.201 444.901 406.331 444.805 406.234C441.321 402.946 438.373 398.461 435.843 394.376C435.768 394.225 435.95 394.128 436.036 394.235Z" fill="#263238"/>
<path d="M445.405 406.945L445.523 407.074C445.537 407.081 445.549 407.091 445.558 407.103C445.567 407.115 445.574 407.13 445.576 407.145C445.579 407.16 445.578 407.176 445.573 407.191C445.568 407.206 445.56 407.219 445.549 407.23C445.538 407.241 445.525 407.249 445.51 407.254C445.496 407.258 445.48 407.26 445.465 407.257C445.45 407.254 445.435 407.248 445.423 407.239C445.411 407.229 445.401 407.217 445.394 407.203L445.266 407.085C445.18 406.999 445.319 406.859 445.405 406.945Z" fill="#263238"/>
<path d="M420.074 404.39C421.135 412.625 424.429 420.408 429.593 426.888C431.742 429.422 434.393 431.478 437.376 432.925C440.721 434.585 444.226 436.504 447.689 437.873C449.333 442.084 450.554 446.45 451.333 450.906C451.451 450.529 451.559 450.13 451.666 449.752C449.447 430.564 437.097 414.178 421.307 403.635C421.185 403.532 421.034 403.47 420.875 403.458C420.716 403.445 420.557 403.484 420.42 403.567C420.284 403.65 420.177 403.775 420.115 403.922C420.053 404.07 420.039 404.234 420.074 404.39Z" fill="#90CAF9"/>
<path d="M425.584 410.05C425.477 409.953 425.584 409.759 425.745 409.845C434.424 416.334 441.343 424.911 445.866 434.79C445.984 435.048 445.63 435.286 445.48 435.016C444.766 433.722 444.015 432.461 443.229 431.232C439.627 430.553 436.218 427.998 433.581 425.573C433.506 425.508 433.581 425.4 433.688 425.465C435.067 426.735 436.602 427.822 438.255 428.699C439.724 429.454 441.3 429.928 442.833 430.532C441.493 428.376 440.099 426.349 438.652 424.365C434.729 422.889 431.047 420.833 427.728 418.264C427.709 418.248 427.696 418.225 427.691 418.2C427.687 418.175 427.692 418.149 427.705 418.127C427.717 418.105 427.738 418.088 427.762 418.08C427.785 418.071 427.812 418.072 427.835 418.081C431.094 420.054 434.454 421.853 437.901 423.471C435.698 420.551 433.324 417.765 430.794 415.127C429.561 414.48 428.318 413.823 427.138 413.133C427.042 413.079 427.138 412.906 427.213 412.949C428.201 413.295 429.144 413.758 430.022 414.329C428.575 412.874 427.106 411.451 425.584 410.05Z" fill="#263238"/>
<path d="M425.863 416.679C426.079 416.808 426.284 416.956 426.474 417.121C426.527 417.121 426.474 417.24 426.399 417.218C426.179 417.113 425.967 416.991 425.766 416.852C425.659 416.787 425.756 416.615 425.863 416.679Z" fill="#263238"/>
<path d="M476.268 492.463H432.981L436.476 452.825L437.247 444.082H472.002L472.773 452.825L476.268 492.463Z" fill="#455A64"/>
<path d="M472.773 452.825H436.476L437.247 444.082H472.002L472.773 452.825Z" fill="#263238"/>
<path d="M474.081 437.97H435.178V446.615H474.081V437.97Z" fill="#455A64"/>
<path d="M338.473 492.409H229.054C228.154 488.873 227.285 485.391 226.406 481.952C225.409 478.007 224.423 474.158 223.48 470.407C223.276 469.577 223.051 468.736 222.847 467.917L220.703 459.519C220.285 457.859 219.867 456.285 219.471 454.614C219.074 452.943 218.634 451.38 218.238 449.774C218.12 449.354 218.023 448.944 217.916 448.534C217.809 448.125 217.691 447.629 217.584 447.187C217.477 446.745 217.305 446.109 217.166 445.548C217.016 444.977 216.876 444.416 216.737 443.856C216.458 442.778 216.19 441.7 215.944 440.74L214.818 436.32C214.668 435.684 214.507 435.059 214.346 434.445C214.089 433.442 213.843 432.472 213.607 431.502C213.435 430.866 213.285 430.241 213.135 429.626C212.478 427.104 211.874 424.732 211.323 422.511C211.173 421.929 211.034 421.358 210.884 420.797C210.648 419.838 210.412 418.911 210.187 418.027C210.037 417.466 209.898 416.949 209.78 416.388C209.287 414.491 208.847 412.766 208.472 411.246C208.365 410.847 208.268 410.448 208.161 410.071C207.914 409.069 207.679 408.185 207.486 407.387C207.4 407.064 207.336 406.762 207.25 406.481C207.164 406.201 207.1 405.867 207.025 405.597C206.95 405.328 206.928 405.209 206.896 405.048C206.864 404.886 206.757 404.509 206.692 404.293C206.628 404.078 206.639 404.056 206.617 403.959L206.36 402.967H312.863C312.863 402.967 316.369 415.127 321.986 434.725C323.122 438.714 324.355 443.026 325.674 447.596C329.426 460.651 333.778 475.905 338.473 492.409Z" fill="#37474F"/>
<path d="M246.967 492.409H244.234C240.189 475.563 236.258 458.675 232.442 441.743C231.527 437.639 230.623 433.521 229.73 429.389C229.644 429.001 229.558 428.624 229.483 428.236C229.472 428.194 229.477 428.15 229.498 428.112C229.519 428.075 229.554 428.048 229.596 428.036C229.637 428.025 229.681 428.03 229.718 428.051C229.755 428.073 229.783 428.108 229.794 428.149C229.794 428.279 229.869 428.408 229.912 428.527C231.145 432.946 232.377 437.388 233.578 441.818C238.216 458.642 242.679 475.506 246.967 492.409Z" fill="#263238"/>
<path d="M309.433 402.956L304.737 426.618L300.878 446.022L294.318 479.096L293.642 482.491L292.517 488.129L291.67 492.441H229.044C228.154 488.895 227.264 485.402 226.406 481.985C225.409 478.039 224.423 474.191 223.48 470.439C223.276 469.609 223.051 468.768 222.847 467.949L220.703 459.551C220.285 457.891 219.867 456.317 219.471 454.646C219.074 452.976 218.634 451.412 218.238 449.806C218.12 449.386 218.023 448.976 217.916 448.567C217.809 448.157 217.691 447.661 217.584 447.219C217.477 446.777 217.305 446.141 217.166 445.58C217.016 445.009 216.876 444.449 216.737 443.888C216.458 442.81 216.19 441.732 215.944 440.773L214.818 436.353C214.657 435.706 214.507 435.092 214.346 434.477C214.089 433.475 213.843 432.504 213.607 431.534C213.435 430.898 213.285 430.273 213.135 429.658C212.478 427.136 211.874 424.764 211.323 422.544C211.173 421.962 211.034 421.39 210.884 420.83C210.648 419.87 210.412 418.943 210.187 418.059C210.037 417.499 209.898 416.981 209.78 416.421C209.287 414.523 208.847 412.799 208.472 411.279C208.365 410.88 208.268 410.481 208.161 410.104C207.914 409.101 207.679 408.217 207.486 407.419C207.4 407.096 207.336 406.794 207.25 406.514C207.164 406.233 207.1 405.899 207.025 405.63C206.95 405.36 206.928 405.242 206.896 405.08C206.864 404.918 206.757 404.541 206.692 404.325C206.628 404.11 206.639 404.088 206.617 403.991L206.36 402.999L309.433 402.956Z" fill="#263238"/>
<path d="M309.444 402.913C309.444 403.495 309.004 409.888 307.975 419.633C307.685 422.468 307.342 425.594 306.903 428.947C306.281 434.229 305.509 440.05 304.544 446.195C302.915 456.975 300.782 468.671 298.005 480.13C297.019 484.259 295.936 488.345 294.789 492.344L154.486 492.398C154.486 492.398 152.717 481.553 152.964 478.384C154.293 461.136 164.295 402.924 164.295 402.924H289L309.444 402.913Z" fill="#37474F"/>
<path d="M309.154 415.612C309.004 420.56 308.8 425.497 308.479 430.424C308.146 435.814 307.664 441.085 306.967 446.411C306.954 446.609 306.928 446.807 306.892 447.003C306.249 451.991 305.506 456.968 304.662 461.934C303.869 466.558 303.29 471.55 301.254 475.84C300.481 477.48 299.387 478.947 298.038 480.152C296.798 481.291 295.282 482.083 293.642 482.448C293.374 482.512 293.102 482.555 292.828 482.577C292.753 482.577 292.667 482.577 292.592 482.577C292.642 482.606 292.683 482.649 292.71 482.701C292.736 482.752 292.747 482.811 292.742 482.869C292.688 484.529 292.742 486.21 292.549 487.86C292.544 487.928 292.544 487.996 292.549 488.064C292.388 489.509 292.12 490.932 291.852 492.376H289.44C289.44 492.376 289.44 492.376 289.44 492.301C289.858 490.738 290.201 489.164 290.598 487.579C290.994 485.995 291.53 484.41 291.906 482.771C291.933 482.713 291.973 482.661 292.024 482.621C290.526 482.693 289.043 482.304 287.773 481.504C286.502 480.704 285.505 479.533 284.916 478.147C284.134 475.991 284.487 473.835 284.809 471.679C285.238 468.855 285.656 466.019 286.085 463.184C286.889 457.988 287.929 452.846 288.85 447.672C288.979 446.885 289.118 446.098 289.258 445.311C291.102 434.79 293.031 424.258 295.347 413.833C295.433 413.402 295.529 412.96 295.626 412.529C295.722 412.098 296.151 412.324 296.129 412.604C296.054 413.305 295.99 414.017 295.904 414.707C295.497 418.71 295.022 422.698 294.478 426.672C293.814 431.34 293.353 436.04 292.699 440.686C292.474 442.282 292.259 443.866 292.024 445.462C290.952 453.137 289.88 460.823 288.54 468.477C287.929 472.035 285.731 478.406 290.812 479.505C291.978 479.769 293.198 479.616 294.264 479.074C296.512 477.715 298.192 475.581 298.992 473.069C300.439 468.995 300.953 464.51 301.704 460.263C302.526 455.584 303.265 450.895 303.923 446.195C304.745 440.316 305.613 434.456 306.528 428.613C306.978 425.627 307.45 422.641 307.921 419.665C308.146 418.286 308.372 416.906 308.586 415.515C308.736 415.235 309.154 415.321 309.154 415.612Z" fill="#263238"/>
<path d="M187.504 452.372C193.229 452.31 198.925 451.539 204.463 450.076C207.014 449.407 209.544 448.588 212.042 447.769C214.527 447.074 216.854 445.899 218.892 444.308C222.74 440.967 224.541 435.684 226.213 431.028C228.049 425.742 229.536 420.34 230.662 414.858C230.716 414.588 231.112 414.685 231.123 414.933C231.257 421.123 230.477 427.299 228.808 433.259C227.425 438.315 225.592 443.953 221.507 447.499C217.219 451.229 211.431 452.534 205.963 453.213C199.818 453.93 193.606 453.843 187.482 452.954C187.419 452.934 187.365 452.894 187.326 452.84C187.288 452.786 187.269 452.721 187.272 452.655C187.274 452.589 187.298 452.525 187.34 452.474C187.382 452.423 187.439 452.387 187.504 452.372Z" fill="#263238"/>
<path d="M177.952 415.03C177.652 422.759 169.687 463.141 169.097 470.86C168.722 475.829 170.63 492.42 170.63 492.42H168.679C168.679 492.42 167.2 477.651 167.404 470.86C167.618 463.12 176.687 422.813 177.287 415.084C177.28 414.995 177.308 414.907 177.366 414.84C177.423 414.772 177.505 414.73 177.593 414.723C177.681 414.716 177.768 414.744 177.836 414.802C177.903 414.859 177.945 414.941 177.952 415.03Z" fill="#263238"/>
<path d="M291.166 241.31C344.026 289.217 393.006 341.672 396.854 368.514C402.214 405.587 379.488 415.871 369.336 415.946C341.668 416.227 291.402 303.479 273.928 260.434C256.937 218.608 279.556 230.789 291.166 241.31Z" fill="#F7A9A0"/>
<path d="M370.912 318.01L312.145 350.134C312.145 350.134 275.6 282.22 267.185 250.797C258.77 219.373 271.334 220.246 298.992 244.717C326.649 269.187 370.912 318.01 370.912 318.01Z" fill="#C7C7C7"/>
<path d="M370.912 318.01L312.145 350.134C312.145 350.134 275.6 282.22 267.185 250.797C258.77 219.373 271.334 220.246 298.992 244.717C326.649 269.187 370.912 318.01 370.912 318.01Z" fill="#90CAF9"/>
<path opacity="0.1" d="M267.217 250.754C275.633 282.231 312.177 350.113 312.177 350.113L365.691 320.845L267.142 227.695C263.851 230.228 263.712 237.71 267.217 250.754Z" fill="black"/>
<path d="M358.852 308.922C336.19 324.338 314.225 334.352 309.829 336.95C309.615 337.069 309.444 336.713 309.669 336.605C314.107 334.331 338.227 319.239 358.67 308.577C358.906 308.416 359.12 308.772 358.852 308.922Z" fill="#263238"/>
<path d="M325.427 438.746L153.296 439.231C153.296 439.231 168.304 309.009 231.552 232.093C246.185 214.285 269.737 223.965 279.663 233.409C304.834 257.416 325.888 438.11 325.427 438.746Z" fill="#90CAF9"/>
<path d="M267.26 225.442C259.906 230.832 252.842 236.589 245.681 242.162C241.993 245.029 238.391 248.08 234.532 250.7C231.445 252.791 227.896 254.537 224.091 254.322C221.575 254.137 219.179 253.164 217.241 251.541L217.637 250.926C218.434 251.577 219.309 252.124 220.242 252.554C224.048 254.3 228.175 253.438 231.724 251.476C235.636 249.32 239.088 246.248 242.604 243.509C246.449 240.498 250.301 237.491 254.16 234.487C258.138 231.393 262.093 228.019 266.231 225.011C266.585 225.151 266.928 225.302 267.26 225.442ZM241.79 314.614C245.595 309.138 247.45 301.786 245.07 295.361C242.926 289.615 237.812 285.832 232.002 284.43C225.958 283.009 219.609 283.772 214.068 286.586C206.821 290.295 201.557 296.838 195.05 301.581C193.216 302.926 191.238 304.061 189.154 304.966C188.961 305.419 188.779 305.872 188.597 306.314C195.608 303.64 200.818 298.035 206.424 293.238C209.352 290.555 212.68 288.351 216.287 286.705C219.352 285.454 222.627 284.806 225.935 284.797C232.227 284.732 238.949 287.093 242.551 292.569C246.624 298.768 245.424 306.799 241.715 312.857C232.292 328.197 211.452 327.227 195.876 327.518C190.525 327.544 185.187 328.045 179.924 329.016C179.774 329.426 179.624 329.836 179.485 330.245C185.471 329.137 191.547 328.596 197.634 328.628C212.771 328.423 232.024 328.661 241.79 314.614ZM245.595 275.806C259.147 277.353 272.814 274.155 284.294 266.751C287.357 264.79 290.229 262.541 292.87 260.035L292.484 258.957C289.709 261.63 286.667 264.007 283.405 266.05C271.519 273.613 257.299 276.561 243.408 274.34C231.959 272.378 221.7 265.307 210.594 262.18L209.951 263.258C214.765 264.763 219.459 266.629 223.994 268.842C230.952 271.936 237.984 274.89 245.595 275.817V275.806ZM232.828 380.825C237.45 376.199 240.22 370.026 240.61 363.48C240.943 357.486 239.056 351.158 234.318 347.245C228.883 342.793 221.454 342.588 215.022 344.68C207.604 347.094 201.847 352.226 196.798 358.079C191.309 364.429 186.517 371.651 179.839 376.847C175.315 380.372 169.59 383.315 163.759 383.639C163.673 383.973 163.587 384.329 163.512 384.717C166.491 384.54 169.417 383.851 172.163 382.679C179.485 379.585 185.027 374.055 190.044 368.008C195.329 361.68 200.26 354.576 207.143 349.843C213.156 345.715 221.186 343.009 228.4 345.305C235.111 347.461 239.002 353.692 239.453 360.559C239.651 363.957 239.162 367.36 238.014 370.562C236.866 373.764 235.083 376.698 232.774 379.186C227.414 385.051 220.167 388.694 212.846 391.411C204.321 394.477 195.618 397.015 186.785 399.011C177.395 401.221 166.096 403.15 158.216 409.187C158.099 409.769 157.991 410.33 157.884 410.901C165.763 404.261 177.845 402.277 187.611 399.97C196.422 397.997 205.101 395.466 213.596 392.392C220.607 389.719 227.521 386.247 232.828 380.836V380.825ZM221.775 409.457C214.207 408.95 207.743 413.769 203.466 419.579C199.017 425.67 196.39 432.839 192.274 439.113H193.517C195.19 436.471 196.637 433.658 198.041 430.952C201.675 423.859 205.674 415.925 213.146 412.26C216.672 410.421 220.75 409.96 224.595 410.966C226.312 411.53 227.886 412.462 229.21 413.697C230.533 414.933 231.574 416.444 232.26 418.124C235.132 424.689 234.039 432.008 234.404 438.962H235.476C235.154 433.281 235.733 427.546 234.5 421.918C233.106 415.44 228.786 409.942 221.775 409.467V409.457ZM299.817 434.434C297.244 427.395 297.223 419.741 297.576 412.357C298.434 393.826 302.057 375.112 299.163 356.602C296.955 342.416 290.887 328.025 278.934 319.444C272.867 315.132 264.537 312.286 257.623 316.425C251.759 319.907 248.693 326.947 248.608 333.609C248.522 342.233 252.51 350.275 256.701 357.551C260.893 364.828 265.599 371.565 269.79 378.734C273.982 385.902 277.53 393.308 279.095 401.372C280.52 408.904 280.275 416.659 278.377 424.085C277.095 429.301 275.042 434.293 272.288 438.897H273.542C274.11 437.938 274.614 436.946 275.14 435.965C278.515 429.352 280.502 422.111 280.976 414.693C281.45 407.275 280.401 399.838 277.895 392.845C272.234 377.171 260.86 364.601 253.839 349.628C250.248 341.985 247.921 332.876 251.695 324.834C253.145 321.499 255.632 318.727 258.781 316.932C260.659 316.02 262.701 315.499 264.785 315.401C266.868 315.302 268.95 315.629 270.905 316.361C278.323 318.797 284.498 324.812 288.754 331.215C292.812 337.534 295.665 344.556 297.169 351.924C301.114 369.916 298.005 388.414 296.73 406.514C296.172 414.329 295.658 422.317 297.351 430.047C297.965 433.115 299.05 436.068 300.567 438.8H301.94C301.076 437.426 300.365 435.962 299.817 434.434ZM281.143 300.945C284.734 308.286 292.024 312.264 299.26 315.25C301.94 316.328 304.62 317.406 307.3 318.484C307.235 318.107 307.149 317.74 307.085 317.406C302.883 315.617 298.595 314.011 294.5 311.941C287.51 308.416 280.296 302.056 280.392 293.507C280.489 285.659 287.671 280.097 294.779 278.674C295.914 278.45 297.064 278.31 298.22 278.253C298.134 277.941 298.048 277.628 297.973 277.315C293.107 277.502 288.443 279.32 284.723 282.479C282.135 284.695 280.372 287.728 279.721 291.082C279.071 294.437 279.572 297.914 281.143 300.945Z" fill="white"/>
<path d="M219.438 237.904C169.322 276.593 117.062 342.276 116.28 380.2C115.508 417.65 136.423 413.92 139.95 412.82C177.191 401.156 222.076 297.28 238.681 254.969C255.136 212.97 231.831 228.331 219.438 237.904Z" fill="#F7A9A0"/>
<path d="M138.92 313.375L197.109 346.555C197.109 346.555 234.854 279.353 243.826 248.048C252.799 216.743 240.214 217.422 212.127 241.397C184.041 265.371 138.92 313.375 138.92 313.375Z" fill="#90CAF9"/>
<path d="M151.152 304.546C173.535 320.36 195.318 330.774 199.671 333.404C199.874 333.533 200.057 333.177 199.842 333.07C195.436 330.709 171.584 315.186 151.334 304.168C151.152 303.996 150.959 304.384 151.152 304.546Z" fill="#263238"/>
<path d="M193.367 344.27C194.564 344.728 195.735 345.253 196.873 345.844C202.469 334.665 201.45 337.22 207.143 326.095C209.944 320.64 212.735 315.186 215.515 309.731C218.409 304.061 221.004 298.142 224.198 292.634C224.215 292.6 224.245 292.573 224.281 292.561C224.317 292.549 224.357 292.552 224.391 292.569C224.425 292.586 224.451 292.616 224.463 292.653C224.475 292.689 224.472 292.729 224.455 292.763C222.601 298.153 220.092 303.349 217.712 308.534C218.238 307.726 218.785 306.907 219.31 306.13C220.596 304.395 221.85 302.659 222.997 300.827C223.169 300.536 223.641 300.773 223.458 301.053C222.386 302.799 221.411 304.6 220.457 306.443C219.503 308.286 218.441 310.022 217.359 311.833C216.276 313.644 215.215 315.143 214.003 316.76L213.585 317.352C212.063 320.586 210.584 323.82 208.986 327.054C203.391 338.298 197.623 347.138 197.43 347.084C195.965 346.375 194.557 345.553 193.217 344.626C193.046 344.475 193.207 344.259 193.367 344.27Z" fill="#263238"/>
<path d="M366.774 414.61C349.526 412.065 339.76 379.833 320.603 328.531C317.248 319.519 361.789 267.969 367.835 276.259C375.457 286.705 395.643 344.637 397.658 360.343C401.625 391.422 386.917 417.563 366.774 414.61Z" fill="#F7A9A0"/>
<path d="M340.242 380.448C336.308 372.061 332.792 363.491 329.351 354.899C326.135 346.221 322.49 337.651 320.603 328.531C323.304 337.371 327.035 345.866 330.348 354.5C333.296 362.111 337.53 372.826 340.242 380.448Z" fill="#263238"/>
<path d="M383.776 313.461C381.364 295.846 376.422 271.279 370.162 266.137C363.59 260.747 339.738 242.679 332.845 240.265C325.952 237.85 295.25 226.11 289.612 229.398C285.098 232.018 290.437 243.962 305.059 249.697C317.923 254.721 324.516 259.399 328.182 261.016C331.848 262.633 340.982 274.89 338.527 280.28C337.069 283.46 327.871 287.19 322.147 284.592C316.422 281.994 315.007 270.578 308.468 265.188C301.929 259.798 290.394 260.466 289.729 263.593C289.065 266.719 292.87 268.196 298.766 278.835C302.561 285.681 302.819 302.109 311.427 313.892C315.715 319.81 323.283 335.56 323.283 335.56L383.776 313.461Z" fill="#F7A9A0"/>
<path d="M302.368 260.337C300.254 260.027 298.27 259.123 296.644 257.728C296.134 257.246 295.746 256.648 295.513 255.984C295.28 255.32 295.208 254.61 295.304 253.912C295.316 253.388 295.518 252.885 295.872 252.5C295.979 252.424 295.808 252.274 295.754 252.392C295.595 252.637 295.419 252.871 295.229 253.093C295.091 253.301 294.979 253.525 294.896 253.761C294.719 254.217 294.635 254.705 294.65 255.195C294.686 256.271 295.087 257.302 295.786 258.116C297.416 260.078 299.935 260.596 302.358 260.509C302.369 260.51 302.38 260.509 302.391 260.505C302.402 260.501 302.411 260.496 302.42 260.488C302.428 260.481 302.435 260.471 302.44 260.461C302.445 260.451 302.448 260.44 302.449 260.429C302.449 260.417 302.448 260.406 302.444 260.395C302.441 260.384 302.435 260.375 302.427 260.366C302.42 260.358 302.411 260.351 302.401 260.346C302.391 260.341 302.38 260.338 302.368 260.337Z" fill="#263238"/>
<path d="M370.204 266.137C364.641 257.34 350.405 241.494 336.297 236.039C326.767 232.352 293.942 248.404 294.896 254.71C295.851 261.016 301.457 261.048 309.754 260.1C312.777 259.744 328.772 253.977 331.495 257.351C335.407 262.202 340.381 278.782 340.381 278.782L370.204 266.137Z" fill="#F7A9A0"/>
<path d="M295.711 252.252C299.774 245.504 308.682 241.903 317.548 239.068C317.687 239.014 317.762 239.23 317.634 239.273C315.372 239.995 300.921 246.679 295.808 252.36C295.754 252.424 295.668 252.317 295.711 252.252Z" fill="#263238"/>
<path d="M370.205 266.137C364.641 257.34 350.405 241.494 336.297 236.039C326.767 232.352 300.793 252.899 301.747 259.205C302.701 265.511 310.751 266.029 319.66 262.913C322.533 261.911 332.181 255.087 334.904 258.461C338.816 263.312 348.368 275.364 348.368 275.364L370.205 266.137Z" fill="#F7A9A0"/>
<path d="M342.858 267.905C341.968 266.514 341.668 266.029 340.714 264.671C339.76 263.312 338.859 261.943 337.852 260.65C337.058 259.449 336.065 258.395 334.914 257.534C333.722 256.852 332.342 256.576 330.98 256.747C327.893 257.038 325.095 259 322.479 260.509C319.553 262.202 313.496 264.929 308.843 264.433C307.569 264.358 306.324 264.016 305.188 263.431C304.318 263.039 303.562 262.43 302.99 261.663C300.975 258.235 303.494 254.311 306.077 251.541C310.869 246.366 317.323 242.615 323.573 239.532C325.116 238.777 326.671 238.066 328.225 237.376C329.966 236.442 331.884 235.891 333.853 235.759C337.069 235.759 342.365 238.993 344.005 240.071C344.133 240.146 344.219 239.941 344.101 239.866C342.118 238.626 337.208 234.573 331.998 234.832C330.101 235.118 328.268 235.738 326.585 236.664C324.77 237.447 322.983 238.288 321.225 239.187C317.766 240.885 314.447 242.857 311.298 245.083C308.329 247.239 305.177 249.686 303.172 252.791C301.436 255.475 300.91 259.259 302.604 262.126C304.019 264.509 307.053 265.08 308.447 265.263C309.809 265.453 311.19 265.453 312.552 265.263C315.587 264.61 318.572 263.739 321.482 262.655C324.302 261.577 326.842 259.615 329.758 258.731C330.443 258.493 331.169 258.395 331.893 258.443C332.616 258.491 333.323 258.684 333.971 259.011C335.153 259.814 336.212 260.787 337.112 261.9C339.051 263.825 340.809 265.925 342.365 268.174C342.804 268.681 343.233 268.476 342.858 267.905Z" fill="#263238"/>
<path d="M374.332 273.812C372.284 269.629 368.854 252.403 365.552 247.11C362.25 241.817 347.157 223.545 340.103 224.332C331.237 225.313 340.457 241.386 345.098 248.048C349.74 254.71 348.947 265.899 348.947 265.899L374.332 273.812Z" fill="#F7A9A0"/>
<path d="M338.634 237.02C340.256 239.162 341.77 241.386 343.169 243.682C344.651 245.768 345.977 247.963 347.135 250.247C348.106 252.582 348.685 255.063 348.85 257.588C348.968 258.828 349.011 260.057 349.011 261.307C349.011 262.558 348.904 264.035 348.936 265.393C348.936 265.533 348.711 265.555 348.711 265.393C348.549 262.91 348.23 260.44 347.757 257.998C347.314 255.463 346.569 252.991 345.538 250.635C343.469 245.967 340.435 241.806 338.334 237.16C338.248 236.988 338.516 236.869 338.634 237.02Z" fill="#263238"/>
<path d="M348.829 267.732C349.043 274.114 346.16 280.215 343.072 285.638C340.928 289.27 338.002 292.321 335.847 295.933C332.618 301.311 330.676 307.371 330.176 313.633C330.182 305.071 333.158 296.779 338.591 290.187C341.194 286.942 343.407 283.399 345.184 279.633C346.942 275.882 348.593 271.936 348.807 267.775L348.829 267.732Z" fill="#263238"/>
<path d="M285.559 243.121C285.312 245.867 284.925 248.598 284.402 251.303C283.995 253.757 283.364 256.168 282.515 258.504C280.864 262.709 277.702 266.589 272.867 267.721C270.603 268.155 268.276 268.129 266.022 267.644C263.769 267.159 261.634 266.225 259.746 264.897C255.715 262.223 252.563 258.429 249.68 254.742C247.889 252.457 246.196 250.118 244.63 247.692C243.837 246.474 243.033 245.245 242.294 243.984C241.554 242.722 240.889 241.44 240.085 240.232C240.021 240.135 239.806 240.232 239.871 240.308C241.436 243.175 246.153 252.241 247.729 254.494C250.602 258.58 253.742 262.763 257.923 265.781C261.919 268.846 266.945 270.223 271.934 269.619C274.333 269.237 276.594 268.244 278.503 266.735C280.411 265.225 281.903 263.249 282.837 260.995C283.939 258.314 284.639 255.484 284.916 252.597C285.313 249.438 285.527 246.248 285.656 243.067C285.624 243.089 285.57 243.089 285.559 243.121Z" fill="#263238"/>
<path d="M268.901 259.798C258.288 259.496 245.199 239.607 241.704 225.377C241.479 224.407 253.989 191.291 255.79 184.467C256.154 183.066 295.647 206.232 295.647 206.232C295.647 206.232 287.682 219.416 284.616 231.317C284.37 232.32 279.16 260.067 268.901 259.798Z" fill="#F7A9A0"/>
<path d="M295.636 206.221C295.636 206.221 287.682 219.405 284.605 231.317C284.552 231.554 284.219 233.29 283.608 235.791C263.862 228.536 254.278 212.582 249.883 201.802C252.574 194.256 255.061 187.238 255.779 184.478C256.208 183.066 295.636 206.221 295.636 206.221Z" fill="#263238"/>
<path d="M242.915 167.09C242.915 167.09 240.224 177.191 238.263 180.36C236.301 183.529 227.425 184.672 227.425 184.672C227.425 184.672 235.25 190.59 237.941 190.784C240.632 190.978 246.689 185.804 246.689 185.804C246.689 185.804 239.742 194.956 235.969 194.363C233.642 193.997 241.329 196.519 241.329 196.519C243.926 197.148 246.663 196.791 249.015 195.517C252.531 193.415 242.915 167.09 242.915 167.09Z" fill="#263238"/>
<path d="M257.569 136.906C248.854 150.78 244.898 196.692 252.971 209.391C264.666 227.803 289.74 236.157 306.806 220.677C323.358 205.682 327.442 145.756 317.88 133.597C303.794 115.734 270.455 116.424 257.569 136.906Z" fill="#F7A9A0"/>
<path d="M291.22 168.028C289.866 168.153 288.506 168.204 287.146 168.179C285.581 168.179 284.337 168.427 282.954 167.554C282.594 167.259 282.339 166.855 282.227 166.402C282.115 165.949 282.152 165.472 282.333 165.042C283.233 163.263 285.141 162.735 287.028 162.595C288.934 162.392 290.847 162.915 292.388 164.061C293.964 165.203 293.053 167.78 291.22 168.028Z" fill="#263238"/>
<path d="M288.936 177.945C288.936 177.827 288.679 178.053 288.668 178.183C288.293 181.266 287.35 184.748 284.38 185.341C284.294 185.341 284.284 185.513 284.38 185.513C287.875 185.556 289.076 180.932 288.936 177.945Z" fill="#263238"/>
<path d="M286.696 174.313C281.84 173.235 279.942 183.034 284.445 184.09C288.947 185.146 290.769 175.272 286.696 174.313Z" fill="#263238"/>
<path d="M306.496 180.921C306.496 180.813 306.699 181.115 306.678 181.233C305.992 184.273 305.713 187.863 308.264 189.405C308.35 189.458 308.264 189.609 308.211 189.577C304.952 188.445 305.359 183.68 306.496 180.921Z" fill="#263238"/>
<path d="M309.808 178.258C314.761 178.84 313.249 188.758 308.661 188.219C304.073 187.68 305.67 177.773 309.808 178.258Z" fill="#263238"/>
<path d="M314.589 173.202C313.321 172.67 312.083 172.069 310.88 171.402C309.465 170.712 308.275 170.324 307.45 168.869C307.268 168.44 307.229 167.963 307.339 167.51C307.449 167.058 307.702 166.653 308.061 166.357C309.69 165.193 311.63 165.613 313.356 166.357C315.13 167.07 316.575 168.423 317.408 170.152C317.588 170.557 317.645 171.006 317.573 171.444C317.5 171.882 317.301 172.288 317.001 172.613C316.701 172.939 316.312 173.168 315.883 173.272C315.454 173.377 315.004 173.353 314.589 173.202Z" fill="#263238"/>
<path d="M281.336 202.772C281.925 203.623 282.461 204.745 283.544 205.057C284.677 205.251 285.838 205.207 286.953 204.928C286.976 204.923 287 204.926 287.021 204.936C287.042 204.945 287.059 204.962 287.07 204.983C287.081 205.004 287.085 205.027 287.081 205.05C287.077 205.074 287.066 205.095 287.049 205.111C286.5 205.626 285.822 205.981 285.088 206.141C284.354 206.3 283.591 206.257 282.879 206.017C282.293 205.731 281.803 205.278 281.472 204.715C281.14 204.151 280.981 203.501 281.014 202.847C281.003 202.664 281.25 202.664 281.336 202.772Z" fill="#263238"/>
<path d="M286.288 194.256C286.823 195.614 287.632 196.845 288.666 197.872C289.699 198.898 290.934 199.697 292.292 200.217C293.471 200.694 294.713 200.995 295.979 201.112C296.216 201.156 296.457 201.174 296.697 201.166C296.923 201.166 297.137 201.166 297.384 201.166C297.551 201.165 297.713 201.11 297.846 201.009C297.98 200.908 298.077 200.766 298.123 200.605C298.129 200.501 298.129 200.397 298.123 200.292V200.023C298.638 197.684 299.099 194.072 299.099 194.072C299.871 194.665 303.848 197.479 304.019 196.228C305.37 185.944 306.871 174.517 306.067 163.996C306.054 163.93 306.019 163.87 305.967 163.827C305.915 163.784 305.85 163.761 305.783 163.761C305.716 163.761 305.65 163.784 305.599 163.827C305.547 163.87 305.511 163.93 305.499 163.996C303.805 173.817 303.848 183.874 302.283 193.781C300.996 192.973 298.917 191.55 297.694 191.345C297.341 191.345 296.923 198.352 296.622 199.376C296.626 199.412 296.626 199.448 296.622 199.484C292.592 199.225 289.869 197.457 286.567 194.094C286.428 193.814 286.149 193.975 286.288 194.256Z" fill="#263238"/>
<path d="M247.889 173.041C256.09 173.429 268.322 149.508 268.322 149.508L265.106 163.845C265.106 163.845 272.427 161.129 277.209 155.825C280.617 152.052 282.097 145.638 282.408 142.35C282.408 142.35 287.768 153.884 296.451 159.598C299.667 161.754 325.577 170.378 326.113 168.75C327.732 163.942 323.294 143.255 318.288 136.593C312.509 128.929 303.473 120.326 286.01 121.049C268.547 121.771 261.15 130.384 256.272 137.359C251.395 144.333 244.877 172.9 247.889 173.041Z" fill="#263238"/>
<path d="M257.28 177.536C257.28 177.536 251.095 160.751 243.773 162.606C236.451 164.46 238.509 186.968 245.295 191.712C246.124 192.386 247.081 192.884 248.106 193.178C249.132 193.472 250.206 193.554 251.264 193.42C252.322 193.286 253.342 192.939 254.264 192.399C255.185 191.859 255.989 191.137 256.626 190.278L257.28 177.536Z" fill="#F7A9A0"/>
<path d="M244.523 169.041C244.405 169.041 244.341 169.171 244.427 169.235C249.144 172.771 250.644 178.409 251.266 184.015C250.194 181.643 248.35 180.004 245.241 181.19C245.081 181.255 245.156 181.514 245.316 181.514C246.321 181.463 247.316 181.726 248.167 182.266C249.017 182.807 249.68 183.598 250.065 184.532C250.694 186.099 251.158 187.729 251.448 189.394C251.566 189.933 252.52 189.9 252.456 189.308C252.45 189.261 252.45 189.214 252.456 189.167C254.332 182.451 251.566 171.628 244.523 169.041Z" fill="#263238"/>
<path d="M306.678 125.199C302.245 120.982 297.221 117.441 291.766 114.688C285.634 111.724 264.902 106.517 258.695 108.964C252.488 111.411 244.866 130.136 243.805 132.896C242.744 135.656 238.381 153.001 243.119 159.134C247.857 165.268 257.988 136.69 270.787 130.438C283.587 124.186 306.678 125.199 306.678 125.199Z" fill="#90CAF9"/>
<path opacity="0.1" d="M306.678 125.21C306.678 125.21 283.576 124.067 270.787 130.384C257.998 136.701 247.868 165.268 243.108 159.134C241.028 156.439 240.61 153.324 240.964 148.451C245.027 140.474 252.756 128.562 262.704 121.868C272.031 115.594 284.68 115.087 297.158 117.75C300.534 119.964 303.718 122.459 306.678 125.21Z" fill="black"/>
<path d="M239.12 176.792C242.208 169.311 256.766 151.384 268.804 142.35C280.843 133.316 307.021 134.459 310.301 135.774C318.255 139.008 320.196 142.361 321.718 142.059C323.24 141.757 316.926 132.831 315.093 130.686C313.26 128.541 308.2 123.248 304.652 122.148C301.103 121.049 278.624 115.928 267.625 122.601C256.626 129.274 236.762 151.707 236.601 159.048C236.601 160.816 238.338 162.562 238.263 165.063C238.156 168.351 237.63 172.016 237.834 174.41C237.984 176.318 238.852 177.428 239.12 176.792Z" fill="#90CAF9"/>
<path d="M272.427 137.671C270.941 135.906 269.606 134.016 268.44 132.023C267.23 130.023 266.255 127.888 265.534 125.662C265.531 125.645 265.524 125.629 265.514 125.615C265.505 125.601 265.492 125.588 265.478 125.579C265.463 125.569 265.447 125.563 265.43 125.56C265.413 125.556 265.396 125.556 265.379 125.56C265.362 125.564 265.346 125.57 265.332 125.58C265.318 125.59 265.305 125.602 265.296 125.617C265.286 125.631 265.28 125.648 265.277 125.665C265.273 125.682 265.274 125.699 265.277 125.716C265.678 128.097 266.456 130.397 267.582 132.529C268.741 134.623 270.279 136.48 272.117 138.006C272.288 138.178 272.588 137.876 272.427 137.671Z" fill="#263238"/>
<path d="M241.586 169.095C241.514 168.469 241.41 167.846 241.275 167.23C241.17 166.517 241.141 165.794 241.189 165.074C241.464 163.756 241.59 162.411 241.564 161.064C241.363 159.984 241.047 158.928 240.621 157.916C240.049 156.801 239.883 155.52 240.149 154.294C240.155 154.278 240.157 154.261 240.156 154.243C240.155 154.226 240.151 154.209 240.144 154.194C240.136 154.178 240.126 154.164 240.113 154.153C240.1 154.142 240.085 154.133 240.069 154.127C240.053 154.121 240.036 154.119 240.019 154.12C240.001 154.121 239.985 154.125 239.969 154.133C239.954 154.14 239.94 154.151 239.929 154.164C239.917 154.177 239.908 154.192 239.903 154.208C239.12 156.536 240.128 158.703 240.492 160.999C240.728 162.465 240.224 163.867 240.214 165.311C240.095 166.697 240.442 168.083 241.2 169.246C241.286 169.375 241.597 169.311 241.586 169.095Z" fill="#263238"/>
<path d="M246.967 161.7C246.484 160.617 246.058 159.508 245.692 158.38C245.389 157.257 245.16 156.115 245.006 154.962C244.845 153.82 244.781 152.677 244.641 151.545C244.48 150.198 244.159 148.861 244.062 147.514C244.062 147.341 243.794 147.395 243.805 147.514C243.901 148.915 243.805 150.327 243.805 151.728C243.861 152.944 243.997 154.154 244.212 155.351C244.403 156.497 244.701 157.624 245.102 158.714C245.469 159.824 246.056 160.847 246.828 161.722C246.835 161.735 246.847 161.746 246.861 161.753C246.874 161.76 246.89 161.762 246.905 161.76C246.92 161.757 246.935 161.75 246.946 161.74C246.957 161.729 246.964 161.715 246.967 161.7Z" fill="#263238"/>
<path d="M252.22 155.124C251.07 153.227 250.199 151.172 249.637 149.023C249.101 146.867 248.693 144.775 248.297 142.652C248.297 142.501 248.029 142.512 248.039 142.652C247.997 144.907 248.231 147.159 248.736 149.357C248.996 150.422 249.377 151.452 249.873 152.429C250.477 153.454 251.196 154.405 252.017 155.264C252.092 155.383 252.306 155.232 252.22 155.124Z" fill="#263238"/>
<path d="M257.623 148.958C257.007 148.144 256.552 147.218 256.283 146.231C255.908 145.153 255.554 144.075 255.211 142.997C254.868 141.919 254.579 140.841 254.278 139.838C253.908 138.803 253.758 137.701 253.839 136.604C253.837 136.575 253.826 136.546 253.807 136.524C253.788 136.501 253.762 136.485 253.734 136.478C253.705 136.471 253.675 136.473 253.648 136.484C253.62 136.495 253.597 136.514 253.582 136.539C253.323 137.62 253.283 138.742 253.464 139.838C253.606 141.05 253.849 142.247 254.193 143.417C254.542 144.566 254.961 145.693 255.447 146.791C255.803 147.807 256.467 148.685 257.344 149.303C257.548 149.335 257.773 149.131 257.623 148.958Z" fill="#263238"/>
<path d="M262.822 140.593C262.34 139.655 261.879 138.717 261.472 137.747C261.064 136.777 260.721 135.796 260.4 134.815C260.078 133.834 259.66 132.734 259.328 131.688C259.328 131.654 259.314 131.621 259.29 131.597C259.266 131.573 259.233 131.559 259.199 131.559C259.165 131.559 259.132 131.573 259.108 131.597C259.084 131.621 259.07 131.654 259.07 131.688C259.141 132.778 259.303 133.86 259.553 134.922C259.818 135.977 260.158 137.011 260.571 138.016C260.959 139.016 261.414 139.989 261.933 140.927C262.397 141.899 263.041 142.773 263.83 143.503C263.861 143.525 263.899 143.537 263.937 143.538C263.975 143.539 264.013 143.528 264.045 143.507C264.077 143.487 264.102 143.457 264.117 143.421C264.133 143.386 264.137 143.347 264.13 143.309C263.777 142.366 263.34 141.456 262.822 140.593Z" fill="#263238"/>
<path d="M279.717 135.278C279.277 134.082 278.849 132.917 278.302 131.775C277.737 130.608 277.107 129.475 276.415 128.379C275.112 126.216 273.573 124.206 271.827 122.385C271.731 122.288 271.516 122.385 271.602 122.525C274.185 126.837 276.962 131.052 279.47 135.397C279.49 135.423 279.517 135.441 279.549 135.449C279.58 135.457 279.613 135.453 279.642 135.439C279.671 135.425 279.694 135.401 279.708 135.372C279.722 135.343 279.725 135.31 279.717 135.278Z" fill="#263238"/>
<path d="M286.503 130.265C286.038 129.089 285.444 127.969 284.734 126.924C283.163 124.786 281.366 122.827 279.374 121.081C279.245 120.973 279.052 121.081 279.17 121.253C280.703 123.237 282.279 125.199 283.705 127.269C284.419 128.285 285.077 129.339 285.677 130.427C286.267 131.505 286.61 132.723 287.146 133.834C287.155 133.852 287.168 133.867 287.185 133.878C287.202 133.889 287.222 133.894 287.242 133.894C287.263 133.894 287.282 133.889 287.299 133.878C287.316 133.867 287.33 133.852 287.339 133.834C287.295 132.601 287.011 131.389 286.503 130.265Z" fill="#263238"/>
<path d="M293.846 129.36C293.432 128.231 292.904 127.147 292.27 126.126C291.074 124.171 289.564 122.43 287.8 120.973C287.682 120.876 287.521 121.059 287.618 121.178C289.101 122.921 290.431 124.789 291.595 126.762C292.184 127.754 292.72 128.778 293.256 129.791C293.792 130.805 294.157 131.947 294.8 132.896C294.854 132.982 294.961 132.896 294.95 132.831C294.697 131.64 294.327 130.478 293.846 129.36Z" fill="#263238"/>
<path d="M299.699 127.107C299.12 126.18 298.488 125.296 297.855 124.401C297.268 123.5 296.545 122.696 295.711 122.019C295.583 121.922 295.454 122.094 295.529 122.213C296.676 123.981 297.791 125.781 298.895 127.603C299.799 129.317 300.518 131.124 301.039 132.993C301.047 133.009 301.06 133.022 301.075 133.031C301.09 133.041 301.107 133.045 301.125 133.045C301.143 133.045 301.16 133.041 301.175 133.031C301.19 133.022 301.203 133.009 301.211 132.993C301.307 130.923 300.781 128.871 299.699 127.107Z" fill="#263238"/>
<path d="M305.831 127.786C304.808 125.913 303.44 124.252 301.8 122.892C301.693 122.795 301.511 122.989 301.618 123.086C303.02 124.588 304.191 126.292 305.091 128.142C306.014 129.983 306.733 131.921 307.235 133.92C307.235 134.006 307.417 134.017 307.417 133.92C307.368 131.779 306.825 129.68 305.831 127.786Z" fill="#263238"/>
<path d="M312.188 133.737C312.131 133.267 312.041 132.803 311.92 132.346C311.68 131.428 311.342 130.539 310.912 129.694C310.003 127.991 308.926 126.383 307.696 124.897C307.6 124.757 307.385 124.897 307.493 125.07C308.65 126.544 309.626 128.155 310.398 129.867C310.782 130.704 311.105 131.569 311.362 132.454C311.491 132.885 311.588 133.327 311.673 133.769C311.722 134.209 311.815 134.642 311.952 135.063C311.96 135.089 311.976 135.113 311.998 135.129C312.021 135.146 312.048 135.155 312.075 135.155C312.103 135.155 312.13 135.146 312.152 135.129C312.174 135.113 312.191 135.089 312.199 135.063C312.271 134.623 312.268 134.175 312.188 133.737Z" fill="#263238"/>
<path d="M316.637 135.688C316.405 134.953 316.13 134.233 315.811 133.532C315.495 132.821 315.137 132.13 314.739 131.462C314.321 130.783 313.882 130.115 313.496 129.414C313.489 129.394 313.477 129.376 313.462 129.361C313.447 129.346 313.428 129.335 313.408 129.328C313.388 129.322 313.367 129.32 313.346 129.322C313.325 129.325 313.305 129.333 313.287 129.345C313.27 129.357 313.255 129.372 313.244 129.391C313.234 129.409 313.227 129.429 313.226 129.451C313.224 129.472 313.227 129.493 313.235 129.513C313.243 129.533 313.255 129.55 313.271 129.565C313.692 130.25 314.051 130.971 314.343 131.721C314.632 132.422 314.943 133.111 315.243 133.801C315.543 134.491 315.833 135.192 316.122 135.893C316.412 136.593 316.637 137.37 317.001 138.049C317.011 138.074 317.031 138.094 317.055 138.105C317.079 138.117 317.107 138.118 317.132 138.11C317.158 138.102 317.18 138.085 317.193 138.061C317.206 138.038 317.211 138.01 317.205 137.984C317.106 137.199 316.916 136.428 316.637 135.688Z" fill="#263238"/>
<path d="M293.728 267.646L267.893 343.796C266.885 346.006 267.893 347.957 270.101 348.108L310.001 351.428C311.227 351.442 312.431 351.103 313.472 350.452C314.512 349.801 315.346 348.864 315.876 347.752L341.711 271.656C342.718 269.435 341.711 267.495 339.502 267.344L299.603 264.045C298.385 264.025 297.186 264.352 296.146 264.989C295.106 265.627 294.268 266.548 293.728 267.646Z" fill="#37474F"/>
<path d="M298.466 267.991L272.642 344.141C271.57 346.351 272.642 348.302 274.786 348.453L314.686 351.751C315.911 351.765 317.115 351.427 318.156 350.775C319.197 350.124 320.031 349.187 320.56 348.075L346.395 271.925C347.403 269.705 346.395 267.764 344.187 267.613L304.287 264.315C303.072 264.319 301.883 264.665 300.854 265.315C299.825 265.965 298.998 266.892 298.466 267.991Z" fill="#455A64"/>
<path d="M309.122 272.454C309.051 273.125 308.783 273.76 308.353 274.279C307.923 274.798 307.35 275.177 306.706 275.368C306.063 275.56 305.377 275.555 304.735 275.355C304.094 275.155 303.526 274.768 303.103 274.243C302.68 273.719 302.422 273.08 302.359 272.408C302.297 271.736 302.434 271.06 302.754 270.466C303.073 269.872 303.56 269.386 304.153 269.071C304.747 268.755 305.42 268.623 306.088 268.692C306.533 268.737 306.965 268.871 307.359 269.085C307.753 269.299 308.1 269.589 308.382 269.939C308.664 270.288 308.875 270.69 309.002 271.122C309.129 271.554 309.169 272.006 309.122 272.454Z" fill="#263238"/>
<path d="M130.355 411.85C146.274 417.24 169.097 408.443 229.376 379.876C237.716 375.92 225.806 309.235 216.683 312.987C205.192 317.73 161.625 338.611 158.635 340.551C133.378 356.818 119.56 408.163 130.355 411.85Z" fill="#F7A9A0"/>
<path d="M194.214 328.122C194.214 328.122 213.328 309.796 226.374 303.328C243.784 294.617 262.383 294.316 270.187 294.704C286.471 295.426 325.363 308.491 323.572 320.414C321.954 331.194 282.836 315.822 282.836 315.822C282.836 315.822 325.245 324.888 320.925 337.522C316.604 350.156 272.288 329.631 272.288 329.631C272.288 329.631 315.661 339.926 309.154 352.269C304.234 361.572 263.058 345.326 263.058 345.326C263.058 345.326 300.278 354.446 295.625 364.235C290.491 375.015 251.523 362.456 251.523 362.456C235.54 385.342 218.613 389.665 206.221 391.303C203.155 391.67 194.214 328.122 194.214 328.122Z" fill="#F7A9A0"/>
<path d="M268.375 311.671C273.392 312.555 278.484 313.407 283.383 314.744C288.282 316.08 293.192 317.579 297.973 319.357C309.701 323.734 316.358 328.316 315.918 328.079C305.466 322.451 287.907 317.417 282.976 316.091C278.045 314.765 273.21 313.181 268.3 311.855C268.193 311.822 268.257 311.65 268.375 311.671Z" fill="#263238"/>
<path d="M263.283 329.469C269.64 330.871 276.008 332.035 282.311 333.727C288.615 335.42 294.382 337.554 300.535 339.667C301.007 339.829 300.76 340.034 300.289 339.883C294.06 338.028 288.175 336.778 281.936 334.989C275.697 333.199 269.522 331.172 263.24 329.599C263.133 329.588 263.187 329.448 263.283 329.469Z" fill="#263238"/>
<path d="M256.208 343.947C266.038 345.596 275.504 349.067 284.809 352.7C285.27 352.883 284.927 353.11 284.444 352.948C274.989 349.865 267.603 347.364 256.144 344.324C255.94 344.238 255.961 343.882 256.208 343.947Z" fill="#263238"/>
<path d="M175.358 332.196C170.834 334.654 166.31 337.112 161.893 339.742C157.477 342.373 153.049 344.982 149.673 348.862C144.602 354.667 140.22 361.045 136.616 367.867C135.369 370.128 134.248 372.456 133.26 374.842C136.897 364.374 142.686 354.795 150.252 346.728C157.53 340.26 166.621 336.228 175.358 332.175V332.196Z" fill="#263238"/>
<path d="M274.421 41.158V95.1658H281.957V108.274L294.982 95.1658H366.474V41.158H274.421Z" fill="white"/>
<path d="M274.432 41.158L274.593 68.2374C274.679 77.2423 274.725 86.2256 274.732 95.1874L274.432 94.864H282.279V95.1766V108.274L281.69 108.037L294.704 94.864L294.822 94.7562H294.982C316.026 94.7562 345.72 94.5945 366.474 94.6268L365.959 95.1443L366.088 41.1365L366.474 41.5353C343.522 41.5353 297.362 41.2874 274.421 41.1365L274.432 41.158ZM274.432 41.158C297.362 41.0179 343.544 40.7915 366.485 40.77H366.871V41.158L366.999 95.1658V95.6833H366.485C345.838 95.7587 315.951 95.5647 294.993 95.5647L295.272 95.4461L282.215 108.511L281.614 109.115V108.264V95.1658L281.936 95.4892H274.432H274.132C274.078 79.6642 274.389 57.2095 274.432 41.1796V41.158Z" fill="#263238"/>
<path d="M337.852 68.1619C337.852 69.0297 338.107 69.878 338.587 70.5995C339.066 71.321 339.748 71.8833 340.545 72.2154C341.342 72.5475 342.219 72.6344 343.066 72.4651C343.912 72.2958 344.69 71.8779 345.3 71.2643C345.91 70.6507 346.325 69.869 346.494 69.0179C346.662 68.1668 346.576 67.2846 346.246 66.4829C345.915 65.6812 345.356 64.996 344.639 64.5139C343.921 64.0318 343.078 63.7745 342.215 63.7745C341.057 63.7745 339.948 64.2367 339.129 65.0595C338.311 65.8823 337.852 66.9983 337.852 68.1619Z" fill="#263238"/>
<path d="M316.079 68.1619C316.079 69.0297 316.335 69.878 316.815 70.5995C317.294 71.321 317.975 71.8833 318.773 72.2154C319.57 72.5475 320.447 72.6344 321.293 72.4651C322.14 72.2958 322.917 71.8779 323.527 71.2643C324.138 70.6507 324.553 69.869 324.721 69.0179C324.89 68.1668 324.803 67.2846 324.473 66.4829C324.143 65.6812 323.584 64.996 322.866 64.5139C322.149 64.0318 321.305 63.7745 320.442 63.7745C319.285 63.7745 318.175 64.2367 317.357 65.0595C316.539 65.8823 316.079 66.9983 316.079 68.1619Z" fill="#263238"/>
<path d="M294.318 68.1619C294.318 69.0297 294.574 69.878 295.053 70.5995C295.532 71.321 296.214 71.8833 297.011 72.2154C297.808 72.5475 298.686 72.6344 299.532 72.4651C300.378 72.2958 301.156 71.8779 301.766 71.2643C302.376 70.6507 302.792 69.869 302.96 69.0179C303.128 68.1668 303.042 67.2846 302.712 66.4829C302.381 65.6812 301.822 64.996 301.105 64.5139C300.387 64.0318 299.544 63.7745 298.681 63.7745C297.524 63.7745 296.414 64.2367 295.596 65.0595C294.777 65.8823 294.318 66.9983 294.318 68.1619Z" fill="#263238"/>
<path d="M245.874 215.492V269.5H238.338V282.598L225.313 269.5H132.381V215.492H245.874Z" fill="white"/>
<path d="M245.874 215.492C245.874 231.662 246.228 253.901 246.174 269.802H245.874H238.37L238.681 269.478V282.576V283.428L238.091 282.824L225.034 269.759C211.323 270.125 169.955 269.867 155.612 270.007H132.381H131.856V269.5L131.963 215.492V215.093H132.36C160.65 215.147 217.573 215.32 245.852 215.492H245.874ZM245.874 215.492C217.595 215.675 160.65 215.848 132.381 215.891L132.778 215.492L132.928 269.5L132.435 268.993C144.034 268.993 167.307 268.993 178.895 268.993C179.41 269.112 225.238 268.864 225.635 269.198L238.638 282.328L238.038 282.576L237.984 269.5V269.177H238.306H245.81L245.509 269.478C245.509 260.517 245.552 251.533 245.638 242.528L245.81 215.449L245.874 215.492Z" fill="#263238"/>
<path d="M198.084 226.563H143.959V229.323H198.084V226.563Z" fill="#A6A6A6"/>
<path d="M143.959 236.826C172.356 236.104 202.361 236.125 230.791 236.826C202.361 237.537 172.378 237.559 143.959 236.826Z" fill="#EBEBEB"/>
<path d="M143.959 244.167C173.032 243.466 205.202 243.466 234.286 244.167C205.202 244.878 173.042 244.878 143.959 244.167Z" fill="#EBEBEB"/>
<path d="M143.959 251.519C167.393 250.786 190.988 250.786 214.432 251.519C190.988 252.241 167.404 252.241 143.959 251.519Z" fill="#EBEBEB"/>
<path d="M143.959 258.86C167.393 258.138 190.988 258.138 214.432 258.86C190.988 259.582 167.404 259.582 143.959 258.86Z" fill="#EBEBEB"/>
<path d="M329.586 110.818V169.138H337.723V183.292L351.788 169.138H463.726V110.818H329.586Z" fill="white"/>
<path d="M329.586 110.818L329.747 140.043C329.833 149.745 329.876 159.447 329.887 169.149L329.586 168.847H338.045V169.16V183.314L337.455 183.066L351.498 168.89L351.605 168.772H351.766C384.73 168.707 431.212 168.588 463.704 168.664L463.211 169.16L463.308 110.84L463.704 111.239C430.269 111.239 363.001 110.991 329.565 110.84L329.586 110.818ZM329.586 110.818C363.011 110.667 430.301 110.441 463.726 110.42H464.176V110.818L464.273 169.138V169.634H463.769C431.448 169.742 384.644 169.537 351.83 169.526L352.109 169.408L338.012 183.53L337.412 184.122V183.26V169.106L337.734 169.429H329.597H329.297C329.211 152.354 329.576 128.099 329.597 110.808L329.586 110.818Z" fill="#263238"/>
<path d="M373.013 123.226H339.953V156.472H373.013V123.226Z" fill="#455A64"/>
<path d="M351.745 145.81V133.898L363.912 139.849L351.745 145.81Z" fill="white"/>
<path d="M443.486 123.226H383.304V125.986H443.486V123.226Z" fill="#A6A6A6"/>
<path d="M383.304 133.489C405.044 132.766 426.935 132.766 448.696 133.489C426.956 134.211 405.066 134.211 383.304 133.489Z" fill="#EBEBEB"/>
<path d="M383.304 140.83C406.202 140.108 429.272 140.108 452.18 140.83C429.272 141.552 406.213 141.552 383.304 140.83Z" fill="#EBEBEB"/>
<path d="M383.304 148.171C399.599 147.449 416.022 147.449 432.327 148.171C416.022 148.893 399.599 148.893 383.304 148.171Z" fill="#EBEBEB"/>
<path d="M383.304 155.512C399.599 154.79 416.022 154.79 432.327 155.512C416.022 156.245 399.599 156.245 383.304 155.512Z" fill="#EBEBEB"/>
<path d="M215 130.858V189.189H206.853V203.332L192.789 189.189H80.8503V130.858H215Z" fill="white"/>
<path d="M214.99 130.858C214.99 148.257 215.365 172.329 215.29 189.491H214.99H206.853L207.175 189.167V203.311V204.162L206.574 203.559L192.478 189.448L192.756 189.555C159.782 189.555 113.321 189.782 80.8181 189.663H80.4V189.167V130.858V130.438H80.8074C114.254 130.503 181.575 130.664 214.947 130.837L214.99 130.858ZM214.99 130.858C181.565 131.042 114.222 131.214 80.8503 131.268L81.2469 130.858L81.3434 189.189L80.8503 188.693C113.16 188.618 159.985 188.747 192.789 188.801H192.96L193.067 188.909L207.11 203.084L206.521 203.332V189.189V188.866H206.842H214.979L214.679 189.167C214.679 179.487 214.725 169.785 214.818 160.061L214.979 130.826L214.99 130.858Z" fill="#263238"/>
<path d="M125.456 143.277H92.3957V176.522H125.456V143.277Z" fill="#90CAF9"/>
<path opacity="0.2" d="M96.8445 153.744C96.6854 154.552 96.7886 155.389 97.1389 156.133C97.4893 156.877 98.0682 157.488 98.7902 157.876C99.5122 158.263 100.339 158.407 101.149 158.286C101.958 158.166 102.708 157.786 103.287 157.204C103.865 156.622 104.243 155.868 104.363 155.054C104.483 154.24 104.34 153.409 103.954 152.683C103.569 151.957 102.961 151.374 102.221 151.022C101.482 150.67 100.649 150.566 99.8461 150.726C99.1048 150.874 98.4238 151.239 97.8894 151.777C97.3551 152.314 96.9914 152.999 96.8445 153.744Z" fill="white"/>
<path opacity="0.2" d="M101.561 176.522H125.467L113.514 161.905L101.561 176.522Z" fill="white"/>
<path d="M92.3957 176.522H112.12L102.258 167.004L92.3957 176.522Z" fill="#90CAF9"/>
<path opacity="0.5" d="M92.3957 176.522H112.12L102.258 167.004L92.3957 176.522Z" fill="white"/>
<path d="M195.929 143.277H135.747V146.037H195.929V143.277Z" fill="#A6A6A6"/>
<path d="M135.747 153.54C157.488 152.806 179.378 152.806 201.139 153.54C179.389 154.262 157.498 154.262 135.747 153.54Z" fill="#EBEBEB"/>
<path d="M135.747 160.881C158.656 160.158 181.715 160.158 204.623 160.881C181.715 161.603 158.656 161.603 135.747 160.881Z" fill="#EBEBEB"/>
<path d="M135.747 168.222C152.042 167.5 168.465 167.5 184.77 168.222C168.465 168.944 152.042 168.944 135.747 168.222Z" fill="#EBEBEB"/>
<path d="M135.747 175.563C152.042 174.841 168.465 174.841 184.77 175.563C168.465 176.285 152.042 176.285 135.747 175.563Z" fill="#EBEBEB"/>
<path d="M340.339 188.057V246.377H348.486V260.531L362.55 246.377H395.246V188.057H340.339Z" fill="white"/>
<path d="M340.339 188.057L340.66 246.377L340.339 246.064H348.486H348.829V246.409L348.882 260.563L348.207 260.283L362.229 246.086L362.357 245.957L395.246 245.892L394.732 246.409C394.732 231.889 394.732 202.621 394.818 188.089L395.246 188.521L340.339 188.089V188.057ZM340.339 188.057C354.275 187.928 381.771 187.68 395.675 187.626C395.675 202.395 395.772 231.619 395.761 246.377V246.862H395.246H362.55L362.872 246.733L348.764 260.833L348.078 261.512V260.553V246.398L348.432 246.754H340.285H339.963V246.431L340.285 188.111L340.339 188.057Z" fill="#263238"/>
<path d="M383.776 200.465H350.716V233.71H383.776V200.465Z" fill="#90CAF9"/>
<path d="M359.356 213.627C359.354 215.159 359.803 216.656 360.648 217.93C361.492 219.205 362.694 220.198 364.1 220.786C365.506 221.373 367.054 221.528 368.548 221.231C370.042 220.933 371.414 220.197 372.492 219.115C373.569 218.033 374.303 216.654 374.601 215.152C374.899 213.65 374.747 212.093 374.165 210.679C373.583 209.264 372.596 208.054 371.33 207.203C370.064 206.352 368.576 205.898 367.053 205.898C365.013 205.898 363.057 206.712 361.614 208.161C360.171 209.61 359.359 211.576 359.356 213.627Z" fill="white"/>
<path d="M380.292 233.721H353.76C354.071 230.406 355.601 227.326 358.051 225.085C360.5 222.843 363.693 221.601 367.005 221.601C370.316 221.601 373.509 222.843 375.958 225.085C378.408 227.326 379.938 230.406 380.249 233.721H380.292Z" fill="white"/>
<path d="M232.538 50.321V108.641H224.391V122.795L210.326 108.641H177.63V50.321H232.538Z" fill="white"/>
<path d="M232.538 50.321L232.86 108.641V108.964H232.538H224.402L224.745 108.608V122.763V123.722L224.059 123.043L210.005 108.964L210.326 109.104L177.63 109.169H177.116V108.641C177.116 93.883 177.116 64.6369 177.202 49.8898C191.138 49.9761 218.634 50.1593 232.538 50.321ZM232.538 50.321L177.63 50.7522L178.059 50.321C178.124 64.8633 178.145 94.1094 178.156 108.641L177.63 108.123C177.834 108.123 210.348 108.188 210.519 108.188L210.648 108.317L224.68 122.504L223.994 122.795L224.048 108.641V108.296H224.402H232.538C231.681 110.269 232.806 49.8898 232.538 50.2995V50.321Z" fill="#263238"/>
<path d="M189.112 95.9743H222.172V62.7288L189.112 62.7288V95.9743Z" fill="#455A64"/>
<path d="M212.556 75.46C212.213 71.9781 209.823 68.5177 205.631 68.5177C201.44 68.5177 199.06 71.9781 198.717 75.46C198.191 80.85 201.783 85.7118 205.631 90.1531C209.49 85.7333 213.092 80.85 212.556 75.46ZM205.631 79.33C204.881 79.3279 204.148 79.1023 203.526 78.6817C202.903 78.261 202.418 77.6643 202.133 76.9668C201.847 76.2693 201.773 75.5024 201.921 74.7628C202.069 74.0233 202.431 73.3443 202.962 72.8117C203.493 72.2791 204.17 71.9167 204.905 71.7703C205.641 71.624 206.404 71.7002 207.096 71.9893C207.789 72.2785 208.381 72.7676 208.798 73.3949C209.214 74.0222 209.437 74.7596 209.437 75.5139C209.441 76.0182 209.345 76.5182 209.156 76.9851C208.966 77.4519 208.686 77.8762 208.332 78.2333C207.978 78.5904 207.557 78.8731 207.093 79.0651C206.63 79.2571 206.133 79.3545 205.631 79.3516V79.33Z" fill="white"/>
<path d="M479.838 492.463C344.123 493.12 191.877 493.131 56.1621 492.463C191.877 491.794 344.123 491.805 479.838 492.463Z" fill="#263238"/>
</svg>
