<svg width="59" height="59" viewBox="0 0 59 59" fill="none" xmlns="http://www.w3.org/2000/svg">
<path d="M41.1567 0.5978C41.0522 0.601405 40.9478 0.619409 40.847 0.662618L39.1365 1.35402C38.7295 1.51968 38.4955 1.9482 38.5747 2.37673L39.1941 5.64651C38.3911 6.22989 37.6852 6.92129 37.0875 7.70633L33.8357 7.03654C33.4072 6.9465 32.975 7.17338 32.8022 7.5767L32.082 9.27641C31.9127 9.67973 32.0496 10.1479 32.4097 10.3963L35.1537 12.2689C34.9988 13.2448 34.9916 14.2315 35.1321 15.2146L32.3521 17.0403C31.9884 17.2816 31.8407 17.7461 32.0064 18.153L32.6978 19.8636C32.8598 20.2705 33.2883 20.5082 33.7205 20.4253L36.9866 19.806C37.57 20.609 38.2614 21.3148 39.0501 21.909L38.3767 25.1643C38.2902 25.5929 38.5171 26.025 38.9204 26.1979L40.6201 26.9181C41.0234 27.0873 41.4916 26.9505 41.7401 26.5904L43.6126 23.8464C44.5885 23.9976 45.5752 24.0084 46.5583 23.868L48.384 26.648C48.5569 26.9109 48.8522 27.0621 49.1547 27.0621C49.2699 27.0621 49.3851 27.0405 49.4968 26.9937L51.2073 26.3023C51.6178 26.1402 51.8519 25.7081 51.7691 25.2796L51.1533 22.0134C51.9563 21.43 52.6621 20.7386 53.2563 19.95L56.5081 20.6234C56.9366 20.7062 57.3687 20.483 57.5416 20.0796L58.2618 18.3799C58.431 17.9766 58.2942 17.5085 57.9341 17.26L55.1865 15.3875C55.3413 14.4116 55.3485 13.4285 55.2117 12.4454L57.9881 10.616C58.3554 10.3748 58.503 9.91022 58.3374 9.5033L57.646 7.79279C57.4803 7.38586 57.0518 7.14819 56.6233 7.23102L53.3535 7.85041C52.7701 7.04738 52.0787 6.34156 51.2937 5.74739L51.9635 2.49201C52.0535 2.06349 51.8267 1.63136 51.4233 1.45851L49.7236 0.741899C49.3203 0.569047 48.8522 0.70589 48.6037 1.06599L46.7312 3.81001C45.7553 3.65877 44.7686 3.65157 43.7855 3.7884L41.9597 1.01197C41.7797 0.738294 41.4736 0.583401 41.1567 0.5978ZM40.8362 2.65402L42.5791 5.30441C42.7844 5.6177 43.1589 5.77254 43.5298 5.70053C44.6749 5.47006 45.8273 5.48086 46.958 5.72933C47.3217 5.80856 47.7034 5.66091 47.9195 5.34762L49.702 2.72965L50.0081 2.85929L49.3671 5.96342C49.2915 6.33073 49.4464 6.70884 49.7596 6.91771C50.7247 7.5551 51.5314 8.37974 52.158 9.36283C52.3596 9.67973 52.7377 9.84538 53.1086 9.77335L56.22 9.18278L56.346 9.49247L53.6992 11.2354C53.3823 11.4407 53.2239 11.8188 53.2995 12.1861C53.53 13.3312 53.5228 14.4836 53.2707 15.6143C53.1915 15.9816 53.3391 16.3597 53.6524 16.5722L56.2668 18.3547L56.1372 18.6644L53.0366 18.0198C52.6657 17.9478 52.2912 18.1026 52.0823 18.4159C51.445 19.381 50.6203 20.1877 49.6372 20.8143C49.3203 21.0159 49.1583 21.394 49.2267 21.7649L49.8137 24.8763L49.5076 25.0023L47.7647 22.3519C47.5954 22.089 47.3001 21.9378 46.9976 21.9378C46.9364 21.9378 46.8716 21.9414 46.814 21.9558C45.6688 22.1863 44.5165 22.1791 43.3858 21.927C43.0221 21.8478 42.6404 21.9954 42.4279 22.3087L40.6454 24.9231L40.3357 24.7934L40.9803 21.6929C41.0559 21.3256 40.8974 20.9475 40.5841 20.7386C39.6191 20.1012 38.8124 19.2766 38.1858 18.2935C37.9842 17.9766 37.6096 17.8146 37.2351 17.883L34.1238 18.47L33.9978 18.1639L36.6482 16.421C36.9615 16.2157 37.1199 15.8376 37.0479 15.4703C36.8138 14.3251 36.8246 13.1728 37.0731 12.042C37.1559 11.6747 37.0047 11.2966 36.6914 11.0842L34.077 9.30164L34.2066 8.99555L37.3072 9.63654C37.6781 9.70856 38.0562 9.55372 38.2614 9.24042C38.9024 8.27533 39.7235 7.46869 40.7066 6.8421C41.0235 6.64044 41.1855 6.26233 41.1171 5.89142L40.5301 2.78009L40.8362 2.65402ZM45.1719 8.2969C42.1218 8.2969 39.6406 10.778 39.6406 13.8281C39.6406 16.8783 42.1218 19.3594 45.1719 19.3594C48.222 19.3594 50.7031 16.8783 50.7031 13.8281C50.7031 10.778 48.222 8.2969 45.1719 8.2969ZM45.1719 9.92098C47.3289 9.92098 49.079 11.6711 49.079 13.8281C49.079 15.9852 47.3289 17.7353 45.1719 17.7353C43.0148 17.7353 41.2647 15.9852 41.2647 13.8281C41.2647 11.6711 43.0148 9.92098 45.1719 9.92098ZM45.1719 11.9844C44.1528 11.9844 43.3281 12.809 43.3281 13.8281C43.3281 14.8472 44.1528 15.6719 45.1719 15.6719C46.191 15.6719 47.0156 14.8472 47.0156 13.8281C47.0156 12.809 46.191 11.9844 45.1719 11.9844ZM20.0796 16.5938C19.2333 16.5938 18.4987 17.1699 18.2935 17.991L17.1123 22.6796C15.8195 23.0289 14.5771 23.5438 13.4104 24.2245L9.25836 21.7325C8.53454 21.2968 7.60547 21.4084 7.00769 22.0098L5.41602 23.5979C4.81823 24.1992 4.703 25.1247 5.13873 25.8521L7.62347 30.0042C6.95368 31.1709 6.43512 32.4133 6.09301 33.7097L1.39721 34.8836C0.576172 35.0889 0 35.8235 0 36.6734V38.9204C0 39.7667 0.576172 40.5013 1.39722 40.7066L6.08582 41.8877C6.43513 43.1805 6.95008 44.4229 7.63068 45.5896L5.13874 49.7417C4.70301 50.4691 4.81465 51.3946 5.41602 51.996L7.0077 53.584C7.60548 54.1818 8.53095 54.2971 9.25837 53.8613L13.4104 51.3766C14.5736 52.0464 15.8195 52.5649 17.1159 52.907L18.2935 57.6028C18.4951 58.4275 19.2297 59.0001 20.0796 59.0001H22.3267C23.1729 59.0001 23.9075 58.4239 24.1128 57.6028L25.294 52.9142C26.5867 52.5649 27.8291 52.0464 28.9959 51.3694L33.1479 53.8613C33.8717 54.2971 34.8008 54.1854 35.4022 53.5841L36.9902 51.996C37.588 51.3982 37.7033 50.4691 37.2675 49.7417L34.7864 45.5897C35.4562 44.4265 35.9711 43.1805 36.3132 41.8842L41.009 40.7102C41.8301 40.5049 42.4063 39.7703 42.4063 38.9205V36.6734C42.4063 35.8235 41.8301 35.0889 41.0091 34.8837L36.3205 33.7061C35.9711 32.4133 35.4526 31.1674 34.7756 30.0042L37.2675 25.8522C37.7033 25.1248 37.5916 24.1993 36.9903 23.5979L35.4022 22.0098C34.8008 21.412 33.8753 21.2968 33.1479 21.7325L28.9959 24.2137C27.8291 23.5439 26.5868 23.0289 25.2904 22.6868L24.1164 17.991C23.9111 17.17 23.1765 16.5938 22.3267 16.5938L20.0796 16.5938ZM20.0796 18.4375H22.3267L23.5006 23.1333C23.6627 23.7779 24.1668 24.2857 24.815 24.4585C25.9529 24.7682 27.0477 25.2219 28.074 25.8125C28.661 26.151 29.374 26.1474 29.9429 25.8053L34.095 23.3134L35.6866 24.9051L33.1947 29.0571C32.8526 29.6261 32.849 30.3427 33.1875 30.9261C33.7781 31.9524 34.2318 33.0507 34.5415 34.185C34.7144 34.8368 35.2221 35.3374 35.8667 35.4994L40.5625 36.6734V38.9204L35.8667 40.0944C35.2221 40.2564 34.7144 40.7606 34.5415 41.4088C34.2318 42.5467 33.7745 43.6415 33.1875 44.6678C32.849 45.2511 32.8526 45.9678 33.1947 46.5367L35.6867 50.6888L34.095 52.2804L29.9465 49.7885C29.374 49.4464 28.661 49.4428 28.0776 49.7813C27.0513 50.3719 25.953 50.8256 24.815 51.1353C24.1668 51.3081 23.6627 51.8159 23.5006 52.4605L22.3267 57.1563H20.0796L18.9057 52.4605C18.7436 51.8195 18.2395 51.3117 17.5913 51.1353C16.4533 50.8256 15.3586 50.3719 14.3323 49.7813C14.0406 49.612 13.7165 49.5328 13.396 49.5328C13.0719 49.5328 12.7478 49.6156 12.4597 49.7885L8.3113 52.2804L6.71963 50.6888L9.21158 46.5403C9.55368 45.9714 9.55728 45.2547 9.21878 44.6678C8.62821 43.6415 8.17447 42.5467 7.86477 41.4088C7.69192 40.757 7.18417 40.2528 6.53958 40.0944L1.84378 38.9204V36.6734L6.53958 35.4994C7.18057 35.341 7.68832 34.8332 7.86477 34.185C8.17447 33.0471 8.62821 31.9524 9.21878 30.9261C9.55728 30.3391 9.55368 29.6225 9.21158 29.0535L6.71963 24.9051L8.3113 23.3134L12.4597 25.8053C13.0287 26.1474 13.7453 26.151 14.3323 25.8125C15.3586 25.222 16.4533 24.7682 17.5913 24.4585C18.2395 24.2857 18.7436 23.7779 18.9057 23.1333L20.0796 18.4375ZM21.0087 26.738C19.7303 26.7452 18.4483 26.9541 17.2383 27.3682C16.7558 27.5338 16.5001 28.056 16.6658 28.5385C16.7954 28.9238 17.1555 29.1651 17.5372 29.1651C17.6345 29.1651 17.7353 29.1471 17.8361 29.1111C19.8779 28.4125 22.1574 28.4053 24.2028 29.0823C24.689 29.2371 25.2075 28.9779 25.366 28.4917C25.528 28.0092 25.2651 27.4906 24.7826 27.3286C23.569 26.9289 22.287 26.7308 21.0087 26.738ZM27.7139 29.0823C27.4798 29.1111 27.2565 29.2263 27.0981 29.428C26.7848 29.8277 26.8532 30.4075 27.2529 30.7244C27.7319 31.1025 28.182 31.5274 28.5817 31.9884C28.7654 32.1972 29.0211 32.3017 29.2803 32.3017C29.4928 32.3017 29.7125 32.226 29.8853 32.0748C30.267 31.7399 30.3066 31.1565 29.9717 30.7712C29.4928 30.2274 28.9634 29.7233 28.3945 29.2768C28.1928 29.1183 27.9515 29.0571 27.7139 29.0823ZM21.2031 31.3438C17.6453 31.3438 14.75 34.239 14.75 37.7969C14.75 41.3548 17.6453 44.25 21.2031 44.25C24.761 44.25 27.6562 41.3548 27.6562 37.7969C27.6562 34.239 24.761 31.3438 21.2031 31.3438ZM10.8608 32.8094C10.5007 32.8202 10.1658 33.0435 10.029 33.4C9.84534 33.8753 10.083 34.4083 10.5584 34.5919L12.1248 35.1933C12.2329 35.2365 12.3481 35.2545 12.4561 35.2545C12.827 35.2545 13.1763 35.0277 13.3168 34.6604C13.5004 34.185 13.2592 33.6557 12.7874 33.472L11.221 32.8706C11.1021 32.8238 10.9797 32.8058 10.8608 32.8094ZM21.2031 33.1875C23.7455 33.1875 25.8125 35.2545 25.8125 37.7969C25.8125 40.3393 23.7455 42.4063 21.2031 42.4063C18.6608 42.4063 16.5937 40.3393 16.5937 37.7969C16.5937 35.2545 18.6608 33.1875 21.2031 33.1875ZM21.2031 35.9531C20.184 35.9531 19.3594 36.7778 19.3594 37.7969C19.3594 38.816 20.184 39.6406 21.2031 39.6406C22.2222 39.6406 23.0469 38.816 23.0469 37.7969C23.0469 36.7778 22.2222 35.9531 21.2031 35.9531ZM11.8259 36.8786L10.1514 36.9074C9.64007 36.9182 9.23316 37.336 9.24396 37.8437C9.25477 38.3479 9.66529 38.7512 10.1658 38.7512H10.1838L11.8583 38.7224C12.3697 38.7116 12.7766 38.2939 12.7658 37.7825C12.755 37.2748 12.3409 36.8966 11.8259 36.8786ZM12.575 40.3213C12.4525 40.3213 12.3337 40.3465 12.2149 40.3933L10.6736 41.0523C10.2019 41.2503 9.9858 41.7905 10.1839 42.2622C10.3315 42.6115 10.6736 42.824 11.0337 42.824C11.1525 42.824 11.275 42.7988 11.3938 42.7484L12.9351 42.093C13.4032 41.8949 13.6229 41.3548 13.4248 40.883C13.2772 40.5337 12.9315 40.3213 12.575 40.3213ZM14.5447 43.2417C14.3071 43.2417 14.073 43.3317 13.8929 43.5118L12.7046 44.6966C12.3445 45.0603 12.3445 45.64 12.7046 46.0037C12.8846 46.1802 13.1223 46.2702 13.3564 46.2702C13.5941 46.2702 13.8317 46.1802 14.0118 46.0037L15.1965 44.8154C15.5566 44.4553 15.5566 43.8719 15.1965 43.5118C15.0165 43.3318 14.7824 43.2417 14.5447 43.2417Z" fill="#639AEB"/>
</svg>
